<svg xmlns="http://www.w3.org/2000/svg" width="20.889" height="20.888" viewBox="0 0 20.889 20.888">
  <path id="Path_657" data-name="Path 657" d="M10.444.006A10.444,10.444,0,1,0,20.889,10.45,10.444,10.444,0,0,0,10.444.006ZM3.982,3.988a9.144,9.144,0,0,1,3.4-2.151,9.568,9.568,0,0,0-1.54,2.82H3.377C3.568,4.425,3.77,4.2,3.982,3.988ZM2.677,5.636H5.532a17.642,17.642,0,0,0-.627,4.325H1.319A9.078,9.078,0,0,1,2.677,5.636Zm0,9.628A9.078,9.078,0,0,1,1.319,10.94h3.59a17.694,17.694,0,0,0,.62,4.325H2.677Zm1.305,1.648c-.213-.213-.414-.436-.605-.669H5.848A11.653,11.653,0,0,0,6.432,17.6a8.283,8.283,0,0,0,.953,1.464A9.143,9.143,0,0,1,3.982,16.912Zm5.973,2.663q-.229-.012-.455-.035a3.205,3.205,0,0,1-.714-.447,7.045,7.045,0,0,1-1.893-2.85H9.955v3.332Zm0-4.311h-3.4a16.49,16.49,0,0,1-.666-4.325h4.07v4.325Zm0-5.3H5.888a16.465,16.465,0,0,1,.667-4.325h3.4V9.961Zm0-5.3H6.9c.127-.318.26-.625.405-.906A6.13,6.13,0,0,1,8.785,1.807,3.2,3.2,0,0,1,9.5,1.36q.226-.023.455-.035V4.657Zm8.257.979A9.078,9.078,0,0,1,19.57,9.961H15.98a17.685,17.685,0,0,0-.621-4.325h2.853ZM16.907,3.988c.213.213.414.436.605.669H15.041A11.688,11.688,0,0,0,14.457,3.3,8.284,8.284,0,0,0,13.5,1.838,9.148,9.148,0,0,1,16.907,3.988ZM10.934,1.325q.229.012.455.035a3.224,3.224,0,0,1,.714.447A7.043,7.043,0,0,1,14,4.657H10.934Zm0,4.311h3.4A16.485,16.485,0,0,1,15,9.961h-4.07Zm0,5.3H15a16.463,16.463,0,0,1-.667,4.325h-3.4ZM12.1,19.093a3.221,3.221,0,0,1-.714.447q-.226.023-.455.035V16.244h3.058c-.127.318-.26.625-.405.906A6.129,6.129,0,0,1,12.1,19.093Zm4.8-2.181A9.142,9.142,0,0,1,13.5,19.063a9.569,9.569,0,0,0,1.54-2.82h2.47C17.321,16.476,17.119,16.7,16.907,16.912Zm1.306-1.648H15.356a17.645,17.645,0,0,0,.627-4.325H19.57A9.078,9.078,0,0,1,18.212,15.264Z" transform="translate(0 -0.006)" fill="#fff"/>
</svg>
