<svg xmlns="http://www.w3.org/2000/svg" xmlns:xlink="http://www.w3.org/1999/xlink" width="134.701" height="24.344" viewBox="0 0 134.701 24.344">
  <defs>
    <clipPath id="clip-path">
      <rect id="Rectangle_2966" data-name="Rectangle 2966" width="134.701" height="24.344" fill="none"/>
    </clipPath>
  </defs>
  <g id="Group_2806" data-name="Group 2806" clip-path="url(#clip-path)">
    <path id="Path_1170" data-name="Path 1170" d="M100.969.157h-5.4a4.319,4.319,0,0,0-4.319,4.319V20.132a4.319,4.319,0,0,0,4.319,4.319h5.4a4.319,4.319,0,0,0,4.319-4.319V4.476A4.319,4.319,0,0,0,100.969.157M99.9,18.4a.648.648,0,0,1-.648.648H97.311a.648.648,0,0,1-.648-.648V6.2a.648.648,0,0,1,.648-.648h1.944A.648.648,0,0,1,99.9,6.2Z" transform="translate(-62.286 -0.107)"/>
    <path id="Path_1171" data-name="Path 1171" d="M156.5,12.907v-1.1a2.16,2.16,0,0,0-2.16-2.159h-1.08a2.15,2.15,0,0,0-.281.021H151.1V5.618h5.4V.22h-8.638A2.16,2.16,0,0,0,145.7,2.379V12.907a2.159,2.159,0,0,0,2.159,2.159H151.1V19.1h-5.4v5.4h8.638a2.159,2.159,0,0,0,2.159-2.159V12.907Z" transform="translate(-99.45 -0.15)"/>
    <path id="Path_1172" data-name="Path 1172" d="M198.587,9.679h-3.092V.156h-5.4V24.451h5.4V15.079h3.092v9.372h5.4V.156h-5.4Z" transform="translate(-129.754 -0.107)"/>
    <rect id="Rectangle_2964" data-name="Rectangle 2964" width="5.399" height="24.294" transform="translate(77.405 0.05)"/>
    <rect id="Rectangle_2965" data-name="Rectangle 2965" width="5.399" height="24.294" transform="translate(103.369 0.001)"/>
    <path id="Path_1173" data-name="Path 1173" d="M366.877,22.223v-.059h-.005V14.419a2.158,2.158,0,0,0-2.015-2.152v-.125A2.157,2.157,0,0,0,366.9,9.988V2.16c0-.074,0-.148-.011-.221s-.017-.135-.03-.2A2.16,2.16,0,0,0,364.736,0H352.859V24.295h5.4V15.127h2.162s0,.009,0,.013a1.076,1.076,0,0,1,1.055.883v6.224a2.16,2.16,0,0,0,1.539,2.069h.009v.007h5.414v-.03h-.019a2.16,2.16,0,0,1-1.54-2.069M358.284,8.646V6.479a1.079,1.079,0,0,1,.994-1.08h1.236a1.077,1.077,0,0,1,.983.935V8.79a1.077,1.077,0,0,1-1.031.938h-1.141a1.079,1.079,0,0,1-1.041-1.082" transform="translate(-240.852 0)"/>
    <path id="Path_1174" data-name="Path 1174" d="M407.345,0V24.295h5.4V0Z" transform="translate(-278.043 0)"/>
    <path id="Path_1175" data-name="Path 1175" d="M283.452.113h-2.159a1.62,1.62,0,0,0-1.62,1.62V8.5a1.618,1.618,0,0,1-1.593,1.34c-.027,0-.053,0-.08,0a.148.148,0,0,0,0,.017h-1.547V.123h-5.4V24.418h5.4V16.85a1.619,1.619,0,0,1,1.481-1.586c.04,0,.081-.006.122-.006h.029a1.617,1.617,0,0,1,1.583,1.367V22.8a1.618,1.618,0,0,0,1.564,1.617v.006h5.4V24.4a1.619,1.619,0,0,1-1.564-1.6V18.947c.007-.073.011-.147.011-.222v-4.32a2.158,2.158,0,0,0-2.007-2.152,2.158,2.158,0,0,0,2-2.152V5.784c0-.021,0-.042,0-.062V1.741a1.619,1.619,0,0,1,1.564-1.6V.121h-3.029c-.051,0-.1-.008-.155-.008" transform="translate(-185.016 -0.077)"/>
    <path id="Path_1176" data-name="Path 1176" d="M27.54,24.45H16.906L26.523.189l10.793,0Z" transform="translate(-11.54 -0.128)" fill="#c6000b"/>
    <path id="Path_1177" data-name="Path 1177" d="M5.395,24.455,0,24.443,9.656.2,15,.188Z" transform="translate(0 -0.128)" fill="#1d2087"/>
  </g>
</svg>
