<svg xmlns="http://www.w3.org/2000/svg" width="146.805" height="37.652" viewBox="0 0 146.805 37.652">
  <path id="Path_1165" data-name="Path 1165" d="M23.765,3.745a.839.839,0,0,1-.613-.263.839.839,0,0,1-.263-.612V-12.565l-4.725.525a.863.863,0,0,1-.98-.665L14.6-22.54a.784.784,0,0,1,.14-.7.768.768,0,0,1,.63-.385l16.52-1.925a.737.737,0,0,1,.735.28.776.776,0,0,1,.21.77L30.625-14.035a.854.854,0,0,1-.77.665l-5.215.595V2.87a.869.869,0,0,1-.245.612A.823.823,0,0,1,23.765,3.745ZM9.31,2.24,4.375-.49a.861.861,0,0,1-.42-.525.828.828,0,0,1,.07-.665A.861.861,0,0,1,4.55-2.1a.828.828,0,0,1,.665.07L8.855-.035V-9.7L3.535-6.37a.8.8,0,0,1-.665.122.926.926,0,0,1-.56-.4A.818.818,0,0,1,2.223-7.3.835.835,0,0,1,2.59-7.84L8.855-11.8v-6.65L3.78-17.01a.875.875,0,0,1-.683-.07.85.85,0,0,1-.438-.525.964.964,0,0,1,.105-.682.876.876,0,0,1,.525-.4l5.565-1.575V-27.79a.823.823,0,0,1,.263-.63.869.869,0,0,1,.612-.245.853.853,0,0,1,.63.245.853.853,0,0,1,.245.63v7.035l2.52-.7a.828.828,0,0,1,.665.07.861.861,0,0,1,.42.525,1.067,1.067,0,0,1-.088.683.7.7,0,0,1-.542.4l-2.975.84v6.02l3.5-2.17a.872.872,0,0,1,.648-.1.75.75,0,0,1,.543.385.8.8,0,0,1,.122.665.926.926,0,0,1-.4.56l-4.41,2.765V1.47a.878.878,0,0,1-.42.77A.964.964,0,0,1,9.31,2.24Zm15.33-16.8,4.375-.49,1.855-8.61-6.23.735v3.395l1.68-.21a.783.783,0,0,1,.665.158A.825.825,0,0,1,27.3-19a.774.774,0,0,1-.157.647.958.958,0,0,1-.612.368l-1.89.21Zm-5.915.665,4.165-.455v-3.185L21-17.29a.889.889,0,0,1-.648-.193.805.805,0,0,1-.332-.577.929.929,0,0,1,.175-.665.767.767,0,0,1,.56-.315l2.135-.28v-3.4l-6.335.735ZM59.85.735l-5.285-2.66a.86.86,0,0,1-.42-.507.988.988,0,0,1,.035-.683.934.934,0,0,1,.507-.437.83.83,0,0,1,.683.053l4.515,2.275a27.788,27.788,0,0,0,1.347-3.308q.683-1.978,1.33-4.322t1.19-4.76q.542-2.415.927-4.672t.56-4.043l-13.3,2.275a.806.806,0,0,1-.648-.14.873.873,0,0,1-.368-.56.99.99,0,0,1,.175-.683.751.751,0,0,1,.56-.332l14.385-2.485a.729.729,0,0,1,.735.21.834.834,0,0,1,.315.7q-.1,1.855-.507,4.392t-1.033,5.337q-.63,2.8-1.382,5.512T62.615-3.168A20.469,20.469,0,0,1,61,.385.894.894,0,0,1,60.5.77.887.887,0,0,1,59.85.735ZM42.6-3.71a.816.816,0,0,1-.56-.84V-15.645l-5.32,2.03a.82.82,0,0,1-.682-.017.918.918,0,0,1-.472-.508.779.779,0,0,1,.017-.665.93.93,0,0,1,.507-.455l5.95-2.24v-9.135a.823.823,0,0,1,.263-.63.869.869,0,0,1,.612-.245.853.853,0,0,1,.63.245.853.853,0,0,1,.245.63v8.47l4.27-1.645a.982.982,0,0,1,.682.035.85.85,0,0,1,.472.49.82.82,0,0,1-.017.683.918.918,0,0,1-.507.472l-4.9,1.82v9.59l4.83-5.005a.837.837,0,0,1,.613-.3.73.73,0,0,1,.612.262.82.82,0,0,1,.3.6.809.809,0,0,1-.263.63L43.54-3.92A.814.814,0,0,1,42.6-3.71Zm4.41,5.11a.775.775,0,0,1-.648.192,1.051,1.051,0,0,1-.612-.3.826.826,0,0,1-.21-.648A.9.9,0,0,1,45.85.035a25.575,25.575,0,0,0,3.78-4.007,45.045,45.045,0,0,0,3.36-5.04A54.986,54.986,0,0,0,55.7-14.367,41.477,41.477,0,0,0,57.54-19.32a.861.861,0,0,1,.42-.525.828.828,0,0,1,.665-.07.861.861,0,0,1,.525.42.9.9,0,0,1,.07.7,42.069,42.069,0,0,1-1.925,5.2,59.364,59.364,0,0,1-2.817,5.565,44.412,44.412,0,0,1-3.5,5.233A28.105,28.105,0,0,1,47.005,1.4Zm35.945.8a.923.923,0,0,1-.683-.052.791.791,0,0,1-.437-.508.923.923,0,0,1,.053-.683A.791.791,0,0,1,82.39.525a19.9,19.9,0,0,0,11.795-9.45q-1.785-1.5-2.958-2.555t-1.312-1.155a.94.94,0,0,1-.3-.63.862.862,0,0,1,.228-.63.837.837,0,0,1,.613-.3.775.775,0,0,1,.613.228q.07.035,1.137,1t2.747,2.4a25.729,25.729,0,0,0,1.1-3.028,26.075,26.075,0,0,0,.753-3.378l-11.725,1.26a.833.833,0,0,1-.63-.192.825.825,0,0,1-.315-.577.887.887,0,0,1,.192-.665.825.825,0,0,1,.577-.315l12.18-1.3a39.121,39.121,0,0,0,.333-4.358q.052-2.293-.088-4.778a.773.773,0,0,1,.228-.648.985.985,0,0,1,.612-.3.954.954,0,0,1,.647.228.769.769,0,0,1,.263.612,51.672,51.672,0,0,1-.21,9.03l10.71-1.155a.887.887,0,0,1,.665.192.854.854,0,0,1,.315.613.833.833,0,0,1-.192.63.825.825,0,0,1-.577.315L98.63-17.15a35.369,35.369,0,0,1-.91,4.078,24.687,24.687,0,0,1-1.365,3.657q1.61,1.33,3.413,2.747t3.552,2.642a35.1,35.1,0,0,0,3.15,2,18.3,18.3,0,0,0,2.188.98q1.208.455,2.327.77t1.855.508l.735.193a.759.759,0,0,1,.56.385.947.947,0,0,1,.105.665.81.81,0,0,1-.368.543.912.912,0,0,1-.683.122q-.07,0-.857-.21t-1.942-.56q-1.155-.35-2.433-.822A18.821,18.821,0,0,1,105.63-.49a32.536,32.536,0,0,1-3.168-1.977q-1.732-1.208-3.518-2.607t-3.43-2.73A21.55,21.55,0,0,1,82.95,2.2ZM117.18-3.64a.93.93,0,0,1-.648-.175.874.874,0,0,1-.368-.56.99.99,0,0,1,.175-.682.751.751,0,0,1,.56-.332q2.24-.35,5.215-.648t6.353-.508q3.377-.21,6.772-.332t6.458-.14q3.063-.018,5.408.122a.947.947,0,0,1,.63.3.8.8,0,0,1,.21.647.915.915,0,0,1-.3.6A.913.913,0,0,1,147-5.11q-2.555-.14-5.705-.122t-6.545.14q-3.4.122-6.685.35t-6.108.507Q119.14-3.955,117.18-3.64Zm7.245-14.035a.776.776,0,0,1-.63-.228.951.951,0,0,1-.315-.612.8.8,0,0,1,.21-.648.915.915,0,0,1,.6-.3l14.735-1.05a.78.78,0,0,1,.612.192.881.881,0,0,1,.3.613.833.833,0,0,1-.192.63.854.854,0,0,1-.613.315Z" transform="matrix(0.999, -0.035, 0.035, 0.999, -1.185, 33.986)" fill="#0b2257"/>
</svg>
