<svg xmlns="http://www.w3.org/2000/svg" width="309.998" height="403.074" viewBox="0 0 309.998 403.074">
  <g id="Group_2667" data-name="Group 2667" transform="translate(20191 12869.303)">
    <g id="Group_2662" data-name="Group 2662" transform="translate(-20163.014 -12853.968)">
      <path id="Path_689" data-name="Path 689" d="M4.722-10.379H1.9a7.093,7.093,0,0,1-1.1-.069v.71A7.871,7.871,0,0,1,1.892-9.8H8.477a7.078,7.078,0,0,1,1.114.059v-.71a6.872,6.872,0,0,1-1.124.069h-3.1v-.6a4.165,4.165,0,0,1,.069-.838H4.653a4.855,4.855,0,0,1,.069.838Zm0,1.942H2.632a8.607,8.607,0,0,1-.946-.039,6.828,6.828,0,0,1,.039.808v2.76a8.1,8.1,0,0,1-.059,1.065h.779a7.692,7.692,0,0,1-.059-1.065V-7.875H4.722v3.924a7.766,7.766,0,0,1-.069,1.075h.779a7.2,7.2,0,0,1-.069-1.075V-7.875H7.945v2.967c0,.217-.079.276-.394.276A7.779,7.779,0,0,1,6.4-4.73a2.171,2.171,0,0,1,.168.66c.453.03.621.039,1.025.039C8.4-4.03,8.6-4.2,8.6-4.838V-7.677a6.346,6.346,0,0,1,.039-.8,8.646,8.646,0,0,1-.937.039H5.362v-.315a4.994,4.994,0,0,1,.049-.789H4.672a4.7,4.7,0,0,1,.049.779Zm7.3-2.05c-.493,0-.759-.01-1.084-.039a7.289,7.289,0,0,1,.039.828v.818a5.44,5.44,0,0,1-.049.7h.66V-9.955h6.881V-8.18h.67a3.946,3.946,0,0,1-.049-.71V-9.7a6.068,6.068,0,0,1,.039-.828,10.591,10.591,0,0,1-1.094.039h-.8a10.494,10.494,0,0,0,.789-1.173l-.631-.227a6.462,6.462,0,0,1-.848,1.4H15.506a11.723,11.723,0,0,0-.7-1.41l-.611.138a5.968,5.968,0,0,1,.66,1.272h-1.38a7.545,7.545,0,0,0-.818-1.272l-.591.168a5.333,5.333,0,0,1,.749,1.1Zm2.494,3.628a5.872,5.872,0,0,1-.473.966h-1.5a8.053,8.053,0,0,1-.946-.039,6,6,0,0,1,.049.927v1.134a7.169,7.169,0,0,1-.059.946h.67V-3.32h5.521v.4h.67a5.382,5.382,0,0,1-.059-.956V-5.006a5.774,5.774,0,0,1,.049-.927,7.868,7.868,0,0,1-.937.039H14.678a9.755,9.755,0,0,0,.473-.966H16.63c.493,0,.7.01,1.055.039a5.1,5.1,0,0,1-.039-.789v-.848a6.445,6.445,0,0,1,.03-.749,8.84,8.84,0,0,1-.946.039H13.308a9.037,9.037,0,0,1-.956-.039,4.7,4.7,0,0,1,.039.739v.858a5.707,5.707,0,0,1-.039.789,8.545,8.545,0,0,1,1.055-.039ZM12.993-8.653h4.052v1.282H12.993Zm-.739,3.3h5.521v1.479H12.253ZM24.7-7.914l1.41-.473v2.5a6.419,6.419,0,0,1-.059.956h.729a6.462,6.462,0,0,1-.059-.946V-8.594l1.636-.562A19.87,19.87,0,0,1,28.2-6.662c-.049.286-.1.335-.325.335a3.526,3.526,0,0,1-.759-.089,2.3,2.3,0,0,1,.148.621c.227.02.345.03.434.03a1.348,1.348,0,0,0,.71-.138c.256-.148.384-.562.453-1.439.079-.966.118-1.656.158-2.642a7.123,7.123,0,0,1-.779.306l-1.518.5v-1.617a6.559,6.559,0,0,1,.059-.927h-.729a6.221,6.221,0,0,1,.059.917v1.824l-1.41.473v-1.38a7,7,0,0,1,.059-.976h-.739a7.158,7.158,0,0,1,.059,1.006v1.548l-.355.118a3.8,3.8,0,0,1-.858.2l.177.67a5.435,5.435,0,0,1,.818-.315l.217-.069v3.618c0,.769.4.917,2.445.917,2.563,0,2.741-.118,2.859-1.942a1.808,1.808,0,0,1-.631-.256,2.873,2.873,0,0,1-.207,1.331c-.158.227-.572.286-1.962.286A7.166,7.166,0,0,1,25-3.843c-.237-.059-.3-.138-.3-.375ZM21.687-9.127h-.365a3.638,3.638,0,0,1-.828-.059v.67a3.742,3.742,0,0,1,.828-.059h.365V-5.2a5.553,5.553,0,0,1-1.321.444l.168.68c.108-.049.256-.118.394-.168a19.03,19.03,0,0,0,2.543-1.2l-.059-.6c-.513.286-.69.375-1.114.572v-3.1h.266a6.149,6.149,0,0,1,.8.039v-.641a3.726,3.726,0,0,1-.789.049H22.3V-10.6a8.231,8.231,0,0,1,.059-1.1h-.729a8.069,8.069,0,0,1,.059,1.094Zm12.471-1.479v6.477a7.25,7.25,0,0,1-.069,1.163h.818a7.169,7.169,0,0,1-.069-1.163V-8.772a11.01,11.01,0,0,1,1.025.542,14.769,14.769,0,0,1,2.09,1.38l.384-.611a21.271,21.271,0,0,0-3.5-2.021v-1.124h3.1a9.678,9.678,0,0,1,1.144.059v-.73a9.332,9.332,0,0,1-1.144.059H31.545a9.172,9.172,0,0,1-1.153-.059v.73a9.621,9.621,0,0,1,1.153-.059Zm7.887,1.843v1.084h-.8a7.459,7.459,0,0,1-.927-.049v.621a6.019,6.019,0,0,1,.917-.049h.808v2.928A7.845,7.845,0,0,1,40.2-3.8l.168.68c.3-.1.384-.128.631-.2a28.34,28.34,0,0,0,3.026-1.025l-.02-.562c-.68.276-.927.365-1.39.513v-2.76h.414a5.533,5.533,0,0,1,.887.049v-.621a5.458,5.458,0,0,1-.887.049h-.414V-8.762h.306a4.158,4.158,0,0,1,.66.039v-.572a3.874,3.874,0,0,1-.651.039H41.719a5.453,5.453,0,0,1-.621-.03,6.4,6.4,0,0,0,1.3-1.784A6.139,6.139,0,0,0,43.878-9.3a2,2,0,0,1,.355-.532,4.557,4.557,0,0,1-1.518-1.735h-.69a5.279,5.279,0,0,1-1.932,2.336,1.274,1.274,0,0,1,.375.5,6.323,6.323,0,0,0,.591-.513v.522a4.525,4.525,0,0,1,.651-.039Zm4.15-.532a16.628,16.628,0,0,1-.128,1.834h-.858a6.67,6.67,0,0,1-.986-.059v.67a6.817,6.817,0,0,1,1-.059h.759A4.745,4.745,0,0,1,45-4.789a4.746,4.746,0,0,1-1.646,1.272,1.591,1.591,0,0,1,.453.542,5.439,5.439,0,0,0,2.612-3.342,6.124,6.124,0,0,0,2.484,3.352,1.911,1.911,0,0,1,.434-.582,5.17,5.17,0,0,1-1.824-1.705,6.143,6.143,0,0,1-.749-1.656h1.183a8.4,8.4,0,0,1,1.015.059v-.67a6.8,6.8,0,0,1-1.025.059H46.668c.059-.5.089-.927.118-1.834h.966a7.954,7.954,0,0,1,1,.059V-9.9a5.981,5.981,0,0,1-1.015.059H46.8a10.437,10.437,0,0,1,.059-1.873h-.69a8.881,8.881,0,0,1,.049,1.3v.572H45.209c.079-.246.118-.434.177-.7s.059-.286.118-.522l-.611-.138a2.663,2.663,0,0,1-.069.591,6.338,6.338,0,0,1-.937,2.366,1.656,1.656,0,0,1,.522.345,7.6,7.6,0,0,0,.621-1.4Zm-4.623,4.7a11.375,11.375,0,0,0-.5-2l-.493.168a10.089,10.089,0,0,1,.473,2.031Zm1.873-.256a10.217,10.217,0,0,0,.493-1.676l-.5-.2A6.7,6.7,0,0,1,43-5.026Zm14.127-5.235.365-.217a7.242,7.242,0,0,0-1.065-1.577l-.493.256A6.854,6.854,0,0,1,57.3-10.28c-.246.01-.375.01-.582.01H51.962a6.989,6.989,0,0,1-1.114-.059v.789a7.279,7.279,0,0,1,1.1-.059H56.97A7.989,7.989,0,0,1,55.244-6.09a7.916,7.916,0,0,1-3.608,2.238,1.951,1.951,0,0,1,.483.68,9.063,9.063,0,0,0,3.1-1.853A8.19,8.19,0,0,0,57.63-9.117a1.808,1.808,0,0,1,.207-.611Zm.089-1.873a7.31,7.31,0,0,1,1.015,1.548l.5-.3a8.587,8.587,0,0,0-1.035-1.518Zm3.786.828a4.385,4.385,0,0,1,.039.7A13.449,13.449,0,0,1,61.041-6.2a4.877,4.877,0,0,1-1.666,2.267,1.821,1.821,0,0,1,.591.532,6.026,6.026,0,0,0,1.705-2.435c.375-1,.453-1.725.532-4.4a4.911,4.911,0,0,1,.059-.848ZM63.9-11.2a3.955,3.955,0,0,1,.039.877L63.88-4.552a1.661,1.661,0,0,1-.069.67l.394.453a1.641,1.641,0,0,1,.227-.108c.138-.049.138-.049.315-.118a6.5,6.5,0,0,0,1.41-.72,5.6,5.6,0,0,0,1.981-2.534,2.756,2.756,0,0,1-.552-.572,4.875,4.875,0,0,1-1.163,1.972A4.556,4.556,0,0,1,64.59-4.365l.059-5.954a3.822,3.822,0,0,1,.059-.868ZM69.509-7a10.769,10.769,0,0,1,1.222-.039h5.718a11.277,11.277,0,0,1,1.2.039v-.8a7.775,7.775,0,0,1-1.193.049H70.732a6.974,6.974,0,0,1-1.222-.059Zm11.209-3.322a6.569,6.569,0,0,1,1.025-.049h3.312a6.569,6.569,0,0,1,1.025.049v-.759a4.524,4.524,0,0,1-1.035.069H81.753a4.524,4.524,0,0,1-1.035-.069ZM79.87-8.052A9.074,9.074,0,0,1,81.014-8.1H86.16a6.074,6.074,0,0,1-1.6,2.583,6.767,6.767,0,0,1-2.928,1.5,2.144,2.144,0,0,1,.424.68A6.724,6.724,0,0,0,86.81-7.756a2.859,2.859,0,0,1,.276-.621L86.721-8.8a1.664,1.664,0,0,1-.641.069H81.023a7.093,7.093,0,0,1-1.153-.059Zm16.217-3.391A8.275,8.275,0,0,1,94.2-9.58a13.881,13.881,0,0,1-5.116,2.553,2.282,2.282,0,0,1,.384.66,15.411,15.411,0,0,0,3.805-1.725v3.746a5.138,5.138,0,0,1-.059,1.025h.858a6.548,6.548,0,0,1-.049-1.045v-4.2a17.362,17.362,0,0,0,2.307-1.981,2.232,2.232,0,0,1,.434-.414Zm3.677,1.39a10.886,10.886,0,0,1,2.346,1.932l.513-.611a12.842,12.842,0,0,0-2.376-1.853Zm.069,6.408a5.18,5.18,0,0,1,.591-.158A9.939,9.939,0,0,0,104.1-5.272a8.646,8.646,0,0,0,3.007-3.766,1.975,1.975,0,0,1-.6-.582,7.449,7.449,0,0,1-4.022,4.387,8.581,8.581,0,0,1-2.869.759Z" transform="translate(-0.562 12.222)" fill="#0b2257"/>
      <path id="Path_690" data-name="Path 690" d="M4.671-11.572a6.911,6.911,0,0,1,.059,1v6.723c0,.2-.089.246-.444.246a7.831,7.831,0,0,1-1.459-.168,2.327,2.327,0,0,1,.177.73c.562.049.956.069,1.36.069.818,0,1.045-.177,1.045-.808v-6.782a6.688,6.688,0,0,1,.059-1.006ZM6.978-9.226c.03.079.03.079.069.2.315,1,.463,1.5.473,1.508A10.365,10.365,0,0,0,9.2-4.386a2.546,2.546,0,0,1,.562-.493,8.937,8.937,0,0,1-1.469-2.5,8.184,8.184,0,0,1-.611-2.041ZM2.286-9.364a7.766,7.766,0,0,1-.3,1.479A8.229,8.229,0,0,1,.462-4.819a2.3,2.3,0,0,1,.6.4A10.234,10.234,0,0,0,2.729-8.1c.207-.808.237-.927.286-1.084ZM18.867-2.907a9.561,9.561,0,0,1-.059-1.144v-6.122a7.388,7.388,0,0,1,.049-.986,10.039,10.039,0,0,1-1.124.049h-5.6A10.113,10.113,0,0,1,11-11.158c.03.315.049.621.049.986V-4.05a9.8,9.8,0,0,1-.059,1.144h.69v-.6h6.5v.6Zm-7.187-7.63H14.51v2.829H11.681Zm3.45,0h3.046v2.829H15.131Zm-3.45,3.391H14.51V-4.08H11.681Zm3.45,0h3.046V-4.08H15.131ZM25.59-9.4a7.349,7.349,0,0,0,.552-.71c.128-.177.384-.522.463-.611l-.306-.355a4.546,4.546,0,0,1-.838.049H23.707c.325-.473.325-.473.444-.651l-.71-.177a5.572,5.572,0,0,1-1.035,1.607,8.063,8.063,0,0,1-1.932,1.558,1.922,1.922,0,0,1,.434.453,8.78,8.78,0,0,0,1.341-1.055v.453a6.384,6.384,0,0,1,.789-.039h4.338v.848H22.653a6.255,6.255,0,0,1-.828-.039v.6a5.749,5.749,0,0,1,.828-.049h4.722v.907h-4.88a6.255,6.255,0,0,1-.828-.039v.611a5.922,5.922,0,0,1,.828-.049h4.86c.207,0,.394.01.651.03a4.957,4.957,0,0,1-.03-.582V-8.861a5.02,5.02,0,0,1,.03-.572c-.217.02-.424.03-.68.03Zm-2.553,0a5.962,5.962,0,0,1-.641-.03,7.5,7.5,0,0,0,.956-1.084h2.4A6.476,6.476,0,0,1,24.881-9.4Zm-2.09,6.27A5.832,5.832,0,0,0,22.11-5.361l-.562-.207a4.781,4.781,0,0,1-.473,1.183,4.058,4.058,0,0,1-.66.887ZM23.51-4.878a3.987,3.987,0,0,1,.059-.858H22.84a5.578,5.578,0,0,1,.059.858v1.015c0,.463.089.641.365.749a4.976,4.976,0,0,0,1.479.128c2.189,0,2.317-.079,2.534-1.518a1.839,1.839,0,0,1-.621-.237,1.929,1.929,0,0,1-.207.976c-.128.177-.414.217-1.686.217a5.229,5.229,0,0,1-1.015-.059c-.187-.049-.237-.128-.237-.375Zm2.455.177a7.584,7.584,0,0,0-1.38-1.163l-.444.355a6.61,6.61,0,0,1,1.4,1.232Zm1.252-.631a8.093,8.093,0,0,1,1.459,2.05l.542-.414a12.865,12.865,0,0,0-1.5-1.972ZM35.429-4.1h-1.8a7.557,7.557,0,0,1-1.075-.059v.739a6.908,6.908,0,0,1,1.084-.069H38a6.942,6.942,0,0,1,1.075.069v-.739A7.368,7.368,0,0,1,38-4.1H36.119V-10.31h1.6a8.493,8.493,0,0,1,1.035.059v-.73a6.416,6.416,0,0,1-1.035.069H34.177a7.228,7.228,0,0,1-1.035-.059v.71a9.967,9.967,0,0,1,1.035-.049h1.252Zm-4.761-6.98A8.034,8.034,0,0,1,32.521-9.63l.424-.522a10.173,10.173,0,0,0-1.843-1.37Zm-.513,2.415a7.624,7.624,0,0,1,1.9,1.351l.4-.582a12.221,12.221,0,0,0-1.912-1.282Zm1.932,2.228a10.611,10.611,0,0,1-.739,1.42,6.88,6.88,0,0,1-.73,1.045,1.992,1.992,0,0,1-.365.394l.572.542a3.922,3.922,0,0,1,.3-.424,17.864,17.864,0,0,0,1.489-2.563ZM46.835-11.05A9.305,9.305,0,0,1,45.8-8.526a9.455,9.455,0,0,1-4.86,4.249,2.33,2.33,0,0,1,.5.69,11.414,11.414,0,0,0,3.717-2.731A12.41,12.41,0,0,0,47.406-10.2a4.1,4.1,0,0,1,.246-.572Zm6.063,6.8H51.162v-.444a3.048,3.048,0,0,1,.03-.552h-.68a2.761,2.761,0,0,1,.049.591l.01.621a4.9,4.9,0,0,1-.059.779h.651v-.453h4.091c.089,0,.276,0,.345.01.256.01.256.01.365.01a4.288,4.288,0,0,1-.02-.513v-.493a3.723,3.723,0,0,1,.039-.591h-.66a3.159,3.159,0,0,1,.039.552v.483H53.509V-5.539h4.121a10.872,10.872,0,0,1-.3,1.755c-.079.256-.2.325-.522.325a6.258,6.258,0,0,1-.966-.089,2.036,2.036,0,0,1,.148.621c.315.02.473.03.749.03.582,0,.848-.1,1.035-.375a7.116,7.116,0,0,0,.463-2.267c.039-.306.059-.463.069-.552a5.551,5.551,0,0,1-.779.039H51.882v-.71h5.747a9.018,9.018,0,0,1,.946.049v-.631a5.907,5.907,0,0,1-.927.059H51.882v-.66h4.347c.266,0,.473.01.769.03-.02-.207-.03-.414-.03-.67v-1.636a3.6,3.6,0,0,1,.03-.621,5.75,5.75,0,0,1-.808.039H53.775a9.313,9.313,0,0,0,.473-.858l-.651-.128a4.833,4.833,0,0,1-.473.986h-1.1a5.528,5.528,0,0,1-.789-.039c.02.237.039.473.039.769v3.667a7.381,7.381,0,0,1-.039.887c.276-.02.384-.02.818-.02H52.9ZM51.882-9.63v-.67h4.466v.67Zm0,.483h4.466v.71H51.882ZM59.916-6.84a2.518,2.518,0,0,1,.4-.049c.828-.059.828-.059,1.144-.079v3.2a7.254,7.254,0,0,1-.059.986h.69a5.478,5.478,0,0,1-.059-.986V-7.028c.375-.039.453-.049.887-.108.049.168.069.246.128.483l.483-.237a10.3,10.3,0,0,0-.69-1.755l-.444.207a5.4,5.4,0,0,1,.355.818c-.6.079-.621.079-1.508.138.532-.69.956-1.291,1.282-1.794q.384-.606.651-1.006l-.572-.306a9.433,9.433,0,0,1-.986,1.745c-.266-.315-.355-.414-.6-.68a14.591,14.591,0,0,0,.966-1.617,3.41,3.41,0,0,1,.237-.4l-.611-.256a6.635,6.635,0,0,1-.956,1.893c-.158-.158-.246-.237-.473-.453l-.355.463a12.1,12.1,0,0,1,1.479,1.518c-.168.227-.394.542-.69.937-.187.01-.345.01-.414.01a2.342,2.342,0,0,1-.384-.03ZM64.648-10.9a7.479,7.479,0,0,1-.927-.039,8.038,8.038,0,0,1,.039.917v1.587a7.82,7.82,0,0,1-.039.917,7.868,7.868,0,0,1,.937-.039h.927v3.835c0,.158-.079.207-.335.207a6.356,6.356,0,0,1-.946-.089,1.714,1.714,0,0,1,.177.631c.187.01.552.03.739.03.72,0,.956-.168.956-.7V-4.888c0-.453-.03-.946-.1-1.834a6.084,6.084,0,0,0,1.183,2.336,5.9,5.9,0,0,0,1.222,1.2,1.684,1.684,0,0,1,.414-.552,6.3,6.3,0,0,1-1.765-1.774,14.485,14.485,0,0,0,1.38-1.331l-.444-.414a8.717,8.717,0,0,1-1.222,1.3,5.218,5.218,0,0,1-.67-1.607h1a7.9,7.9,0,0,1,.927.039,7.327,7.327,0,0,1-.039-.907v-1.587a7.686,7.686,0,0,1,.039-.927,7.659,7.659,0,0,1-.937.039H65.91c.168-.355.227-.473.355-.779l-.68-.128a4.214,4.214,0,0,1-.306.907Zm-.335.5H67.5v.9H64.313Zm0,1.41H67.5v.927H64.313ZM60.38-6.328a8.777,8.777,0,0,1-.532,2.721l.532.266a10.473,10.473,0,0,0,.552-2.879Zm2.05.128A11.783,11.783,0,0,1,62.8-4.267l.5-.187a12.317,12.317,0,0,0-.414-1.893Zm2.622-.473a2.174,2.174,0,0,1-.513.039h-.5a3.2,3.2,0,0,1-.68-.049v.621a3.265,3.265,0,0,1,.67-.049h.641a5.017,5.017,0,0,1-1.932,2.405,1.534,1.534,0,0,1,.424.453,7.591,7.591,0,0,0,1.025-.986A6.791,6.791,0,0,0,65.052-5.7a6.755,6.755,0,0,1,.3-.651Z" transform="translate(-0.463 31.83)" fill="#0b2257"/>
      <path id="Path_682" data-name="Path 682" d="M15.779-28.434a11.8,11.8,0,0,1,1.938.121v-1.938a12.443,12.443,0,0,1-1.968.121h-1.7v-2.846a18.7,18.7,0,0,1,.151-3H12.115a19.567,19.567,0,0,1,.151,3.058v2.786H10.238a16.744,16.744,0,0,1-2.3-.121v1.938a17.431,17.431,0,0,1,2.271-.121h1.786A31.114,31.114,0,0,1,7.059-16.747a7.827,7.827,0,0,1,1.332,1.6c1.938-3.149,2.665-5,4.088-10.567-.091,1.968-.212,4.633-.212,5.178V-11.9a23.582,23.582,0,0,1-.182,3.361h2.15a22.721,22.721,0,0,1-.182-3.361v-9.144c0-1.211,0-1.211-.121-4.814a24.561,24.561,0,0,0,2.937,6.54,7.364,7.364,0,0,1,1.06-1.726,21.879,21.879,0,0,1-3.815-7.388ZM2.7-34.1A18.835,18.835,0,0,1,7-30.221l1.3-1.393a21.742,21.742,0,0,0-4.33-3.815ZM1.548-26.557a21.064,21.064,0,0,1,4.663,3.694l1.211-1.6A29.7,29.7,0,0,0,2.7-27.95Zm4,6.722A30.4,30.4,0,0,1,2.971-12.81a6.2,6.2,0,0,1-1.393,2.15L3.365-9.147c.151-.333.242-.515.606-1.241a41.389,41.389,0,0,0,3.149-8.3Zm13.262,7.9A18.359,18.359,0,0,1,18.625-9h1.938v-1.3h5.813V-8.9h1.968a24.043,24.043,0,0,1-.182-3.179V-31.7a22.715,22.715,0,0,1,.121-2.967,20.592,20.592,0,0,1-2.846.121H21.653c-1.332,0-2.15-.03-2.967-.091a26.679,26.679,0,0,1,.121,2.937Zm1.786-20.892h5.783v5.48H20.593Zm0,7.146h5.783v5.571H20.593Zm0,7.237h5.783v6.419H20.593ZM43.6-21.894a16.1,16.1,0,0,1-2.725-.151v1.938a15.783,15.783,0,0,1,2.634-.151H47.6v3.24H44a16.905,16.905,0,0,1-2.786-.151v1.908a17.877,17.877,0,0,1,2.755-.151H47.6v2.665a26.089,26.089,0,0,1-.151,3.391H49.6a25.475,25.475,0,0,1-.151-3.421v-2.634H53.93a16.406,16.406,0,0,1,2.665.151V-17.17a15.74,15.74,0,0,1-2.665.151H49.449v-3.24h4.723a16.866,16.866,0,0,1,2.665.151v-1.938a15.524,15.524,0,0,1-2.665.151h-2.3a25.64,25.64,0,0,0,2.271-3.6l-1.817-.545a16.244,16.244,0,0,1-2.392,4.148ZM38.639-33.1a19.029,19.029,0,0,1-3.088-.212v2.15a21.986,21.986,0,0,1,3.088-.182h9.053v3.119H40.214a22.9,22.9,0,0,1-2.755-.121,22.124,22.124,0,0,1,.121,2.6v14.08A20.969,20.969,0,0,1,37.4-8.45h2.271a17.906,17.906,0,0,1-.151-3.119V-26.527H58.441v15.079c0,.636-.3.787-1.453.787a19.451,19.451,0,0,1-3.6-.333A5.279,5.279,0,0,1,53.9-9.026c1.181.091,2.18.151,3.149.151,2.634,0,3.331-.515,3.331-2.422V-25.8a20.418,20.418,0,0,1,.121-2.543,21.732,21.732,0,0,1-2.725.121H49.6v-3.119h9.629a23.717,23.717,0,0,1,3.119.182v-2.15a15.821,15.821,0,0,1-3.119.212H49.6a15.155,15.155,0,0,1,.212-2.937H47.481a14.553,14.553,0,0,1,.212,2.937Zm4.723,7.691a17.642,17.642,0,0,1,2,3.331l1.544-.666A30.981,30.981,0,0,0,44.937-26.1Zm28.946-.575-.727.03a18.092,18.092,0,0,1-2.331-.151l.424,2.241a13.436,13.436,0,0,1,1.423-.121c.939-.03,1.786-.061,2.513-.091,2.392-.061,3.936-.121,6.9-.3,5.147-.3,6.57-.424,10.719-.878.908,1.09,1.3,1.574,2.483,3.179l1.7-1.332a72.679,72.679,0,0,0-8.841-9.114L84.9-31.462A34.033,34.033,0,0,1,89.87-26.8c-5.117.484-5.783.515-13.868.757a67.968,67.968,0,0,0,5.3-8.3c.242-.454.242-.454.333-.636l-2.21-.818c-.7,2.331-2.876,6.056-5.723,9.81ZM74.58-8.6v-1.847H89.84V-8.6H91.96a20.634,20.634,0,0,1-.182-2.816v-7.237a14.609,14.609,0,0,1,.151-2.422,17.05,17.05,0,0,1-2.392.121H74.913a16.778,16.778,0,0,1-2.392-.121,20.388,20.388,0,0,1,.151,2.422v7.237A22.706,22.706,0,0,1,72.491-8.6Zm0-10.567H89.84v6.934H74.58ZM110.1-24.5h1.151a16.23,16.23,0,0,1,2.634.151v-1.786a15.348,15.348,0,0,1-2.634.151H110.1v-2.725h1.151a16.23,16.23,0,0,1,2.634.151v-1.786a15.348,15.348,0,0,1-2.634.151H110.1v-2.786h1.6a19.667,19.667,0,0,1,2.846.151V-34.7a22.02,22.02,0,0,1-3.088.151h-4.754a22.686,22.686,0,0,1-3.331-.151,30.724,30.724,0,0,1,.121,3.512v8.3c0,1.7-.03,2.453-.091,3.119.848-.061,1.574-.091,2.786-.091h6.449a53.994,53.994,0,0,1-.606,6.9c-.394,2.21-.636,2.6-1.574,2.6a14.152,14.152,0,0,1-2.665-.363,5.1,5.1,0,0,1,.333,1.7v.242c1,.091,1.635.121,2.21.121,1.7,0,2.392-.424,2.846-1.726a46.923,46.923,0,0,0,1.181-9.931c.03-.636.03-.878.061-1.211a19.251,19.251,0,0,1-2.816.121H110.1Zm-1.6,0v3.088h-3.3V-24.5Zm0-1.484h-3.3v-2.725h3.3Zm0-4.209h-3.3v-2.786h3.3Zm16.774,6.328a21.35,21.35,0,0,1,2.907.121,25.877,25.877,0,0,1-.121-3.27v-4.118a25.208,25.208,0,0,1,.121-3.3,21.5,21.5,0,0,1-3.27.151h-5.026a23.2,23.2,0,0,1-3.331-.151,32.3,32.3,0,0,1,.121,3.6c0,12.687-.666,17.35-3.088,21.256a5.972,5.972,0,0,1,1.726,1.06c2.089-4.027,2.816-7.721,3.058-15.351h3.452a30.057,30.057,0,0,0,1.877,8.266,21.223,21.223,0,0,0,4.451,7.237,6.87,6.87,0,0,1,1.484-1.726,15.289,15.289,0,0,1-4.057-5.723,26.271,26.271,0,0,1-2-8.054Zm-6.843-1.665c.03-2.876.061-4.723.061-5.571v-1.514h7.751v7.085Zm-15.018,6.9c-.273,3.785-.606,5.208-1.756,7.691l1.484.757c1.029-2.453,1.393-4.118,1.726-8.145Zm2.18.424a43.13,43.13,0,0,1,.273,5.45c0,.273,0,.7-.03,1.241l1.514-.212a48.183,48.183,0,0,0-.515-6.661Zm2,0a28.431,28.431,0,0,1,.908,5.571l1.332-.424a31.826,31.826,0,0,0-1.06-5.42Zm1.968-.242a17.856,17.856,0,0,1,1.12,4.209l1.151-.484a19.626,19.626,0,0,0-1.211-4.057Z" transform="translate(121.739 36.87)" fill="#0b2257"/>
    </g>
    <g id="Path_683" data-name="Path 683" transform="translate(-20191 -12869.303)" fill="none">
      <path d="M0,0H309.847V59.853H0Z" stroke="none"/>
      <path d="M 1 0.9999923706054688 L 1 58.85291290283203 L 308.846923828125 58.85291290283203 L 308.846923828125 0.9999923706054688 L 1 0.9999923706054688 M 0 -7.62939453125e-06 L 309.846923828125 -7.62939453125e-06 L 309.846923828125 59.85291290283203 L 0 59.85291290283203 L 0 -7.62939453125e-06 Z" stroke="none" fill="#0b2257"/>
    </g>
    <g id="Path_684" data-name="Path 684" transform="translate(-20191 -12810.154)" fill="none">
      <path d="M0,0H309.847V50.7H0Z" stroke="none"/>
      <path d="M 1 1.000003814697266 L 1 49.69892883300781 L 308.846923828125 49.69892883300781 L 308.846923828125 1.000003814697266 L 1 1.000003814697266 M 0 3.814697265625e-06 L 309.846923828125 3.814697265625e-06 L 309.846923828125 50.69892883300781 L 0 50.69892883300781 L 0 3.814697265625e-06 Z" stroke="none" fill="#0b2257"/>
    </g>
    <g id="Path_685" data-name="Path 685" transform="translate(-20191 -12760.159)" fill="none">
      <path d="M0,0H309.847V237.921H0Z" stroke="none"/>
      <path d="M 1 1 L 1 236.9209136962891 L 308.846923828125 236.9209136962891 L 308.846923828125 1 L 1 1 M 0 0 L 309.846923828125 0 L 309.846923828125 237.9209136962891 L 0 237.9209136962891 L 0 0 Z" stroke="none" fill="#0b2257"/>
    </g>
    <path id="Path_686" data-name="Path 686" d="M0,0V286.859" transform="translate(-20030.83 -12809.098)" fill="none" stroke="#0b2257" stroke-width="1"/>
    <g id="Group_2657" data-name="Group 2657" transform="translate(-20191 -12526.082)">
      <g id="Path_687" data-name="Path 687" transform="translate(0)" fill="#0b2257">
        <path d="M 309.4983825683594 59.35291290283203 L 0.5000221729278564 59.35291290283203 L 0.5000221729278564 0.4999910891056061 L 309.4983825683594 0.4999910891056061 L 309.4983825683594 59.35291290283203 Z" stroke="none"/>
        <path d="M 0.999969482421875 0.9999923706054688 L 0.999969482421875 58.85291290283203 L 308.9983215332031 58.85291290283203 L 308.9983215332031 0.9999923706054688 L 0.999969482421875 0.9999923706054688 M -3.0517578125e-05 -7.62939453125e-06 L 309.9983215332031 -7.62939453125e-06 L 309.9983215332031 59.85291290283203 L -3.0517578125e-05 59.85291290283203 L -3.0517578125e-05 -7.62939453125e-06 Z" stroke="none" fill="#0b2257"/>
      </g>
      <path id="Path_688" data-name="Path 688" d="M10.535-13.335v.1L10.6-7.015v.372a9.989,9.989,0,0,1-.068,1.335H11.9a15.345,15.345,0,0,1-.084-1.724l-.118-8.23H14.22a13.827,13.827,0,0,1,1.4.051v-1.234a8.54,8.54,0,0,1-1.69.1H11.7l-.034-1.69v-.406a6.491,6.491,0,0,1,.068-.929H10.383A8.053,8.053,0,0,1,10.468-18l.017,1.656-6.151.034a9.55,9.55,0,0,1-1.91-.118v1.267A13.279,13.279,0,0,1,4.3-15.228l5.543-.034a16.29,16.29,0,0,1-2.434,3.076A19.185,19.185,0,0,1,1.68-8.147a2.724,2.724,0,0,1,.845,1.014A26,26,0,0,0,5.313-8.874a19.722,19.722,0,0,0,4.005-3.735A10.525,10.525,0,0,0,10.586-14.5c-.034.727-.051.98-.051,1.1Zm10.63-4.58a17.772,17.772,0,0,1,4.157,2.231l.693-1.132a24.989,24.989,0,0,0-4.191-2.129ZM19.83-13.876a18.764,18.764,0,0,1,4.309,2.315l.659-1.132a25.779,25.779,0,0,0-4.293-2.214ZM20.4-5.781a3.967,3.967,0,0,1,.659-.186c.338-.068.642-.135.913-.186a19.3,19.3,0,0,0,4.276-1.453,13.247,13.247,0,0,0,6.506-7.284,5.1,5.1,0,0,1-1.048-.9A12.584,12.584,0,0,1,29.683-12a11.131,11.131,0,0,1-5.07,3.769,14.615,14.615,0,0,1-4.546,1.048ZM41.479-16.073l-3.448.541a12.66,12.66,0,0,1-1.758.169l.237,1.284a13.919,13.919,0,0,1,1.69-.372l3.481-.541.608,3.414-4.5.727a8.894,8.894,0,0,1-1.673.152l.22,1.284a8.949,8.949,0,0,1,1.622-.338l4.529-.727.693,3.786a13.471,13.471,0,0,1,.2,1.622l1.352-.253a9.17,9.17,0,0,1-.372-1.605l-.693-3.735,4.242-.676c.118-.017.2-.034.389-.068.287-.051.456-.084.524-.084a4.994,4.994,0,0,1,.744-.084l-.237-1.251a10.385,10.385,0,0,1-1.673.389l-4.191.676-.642-3.414,3.836-.591c1.048-.169,1.048-.169,1.5-.22l-.237-1.217a7.938,7.938,0,0,1-1.487.338l-3.819.591-.338-1.859a8.709,8.709,0,0,1-.186-1.436l-1.335.22a5.762,5.762,0,0,1,.372,1.436ZM55.167-19a9.94,9.94,0,0,1,.068,1.42v4.512a10.247,10.247,0,0,1-.068,1.42h1.4a8.95,8.95,0,0,1-.068-1.4v-4.546A9.233,9.233,0,0,1,56.57-19Zm7.47,0a9.4,9.4,0,0,1,.068,1.487v1.91a21.012,21.012,0,0,1-.237,4.309,5.041,5.041,0,0,1-2.7,3.566,9.84,9.84,0,0,1-3.211,1.149,3.232,3.232,0,0,1,.71,1.166,13.305,13.305,0,0,0,3.076-1.217,6.422,6.422,0,0,0,3.211-3.752,19.046,19.046,0,0,0,.422-5.154v-1.994A7.543,7.543,0,0,1,64.057-19Zm17.187,3.008a18.481,18.481,0,0,1-2.755,4.005,15.418,15.418,0,0,1-3.955,3.431,3.188,3.188,0,0,1,.794,1,18.08,18.08,0,0,0,3.211-2.839,15.8,15.8,0,0,0,3.194-4.884c-.051.913-.068,1.555-.068,2.18v3.836H78.59a10.179,10.179,0,0,1-1.673-.084v1.183a9.485,9.485,0,0,1,1.707-.1h1.622v1.589a13.411,13.411,0,0,1-.118,1.96h1.335a12.573,12.573,0,0,1-.118-1.943V-8.265h1.808a9.3,9.3,0,0,1,1.673.1V-9.347a9.962,9.962,0,0,1-1.639.084H81.345V-13.1c0-.558-.017-1.183-.068-2.2a16.084,16.084,0,0,0,3.16,4.749,19.18,19.18,0,0,0,3.515,2.957,4.477,4.477,0,0,1,.777-1.1,17.569,17.569,0,0,1-6.963-7.3H86.33a18.238,18.238,0,0,1,1.893.1v-1.234A11.066,11.066,0,0,1,86.33-17H81.345v-1.453a9.084,9.084,0,0,1,.118-1.521H80.128a9.574,9.574,0,0,1,.118,1.538V-17H75.515a12.584,12.584,0,0,1-1.859-.118v1.234a16.673,16.673,0,0,1,1.859-.1Zm14.2,4.056A10.984,10.984,0,0,0,96.4-9.8a4.058,4.058,0,0,1,.575-.929,10.247,10.247,0,0,1-2.721-2.3A14.565,14.565,0,0,0,96.115-15.9c.186-.355.287-.541.406-.727L96-17.222a6.156,6.156,0,0,1-.98.051h-.98v-1.555a7.2,7.2,0,0,1,.1-1.318H92.87a9.7,9.7,0,0,1,.085,1.3v1.572h-1a11.1,11.1,0,0,1-1.318-.068v1.115a11.68,11.68,0,0,1,1.352-.068h3.16a11.459,11.459,0,0,1-2.1,3.143,14.555,14.555,0,0,1-3.042,2.5,3.179,3.179,0,0,1,.625.946,17.325,17.325,0,0,0,2.332-1.994v5.256a11.5,11.5,0,0,1-.1,1.673h1.251a10.939,10.939,0,0,1-.1-1.656Zm5.864-2.873H98.211a10.784,10.784,0,0,1-1.656-.1v1.183c.524-.051,1.082-.084,1.656-.084h1.673v7.216h-2.3a11.757,11.757,0,0,1-1.825-.1v1.267a11.164,11.164,0,0,1,1.808-.118h6.084a11.529,11.529,0,0,1,1.825.118V-6.694a11.757,11.757,0,0,1-1.825.1h-2.67v-7.216H103.2c.591,0,1.132.034,1.656.084v-1.183a10.938,10.938,0,0,1-1.656.1h-2.214v-3.65a7.963,7.963,0,0,1,.118-1.538H99.766a10.032,10.032,0,0,1,.118,1.538Zm14.855,1.048a1.392,1.392,0,0,0-1.386,1.386,1.392,1.392,0,0,0,1.386,1.386,1.392,1.392,0,0,0,1.386-1.386A1.392,1.392,0,0,0,114.739-13.758Zm17-2.112a6.587,6.587,0,0,1,1.082.068v-1.082a6.945,6.945,0,0,1-1.1.068h-.946v-1.589a10.438,10.438,0,0,1,.084-1.673h-1.166a10.923,10.923,0,0,1,.085,1.707v1.555h-1.132a9.345,9.345,0,0,1-1.284-.068V-15.8a9.729,9.729,0,0,1,1.267-.068h1a17.366,17.366,0,0,1-2.755,6.523,4.368,4.368,0,0,1,.744.9,17.455,17.455,0,0,0,2.281-5.9c-.051,1.1-.118,2.586-.118,2.89v4.816a13.162,13.162,0,0,1-.1,1.876h1.2a12.682,12.682,0,0,1-.1-1.876v-5.1c0-.676,0-.676-.068-2.687a13.709,13.709,0,0,0,1.639,3.65,4.11,4.11,0,0,1,.592-.963,12.212,12.212,0,0,1-2.129-4.124Zm-7.3-3.16a10.513,10.513,0,0,1,2.4,2.163l.727-.777a12.135,12.135,0,0,0-2.417-2.129Zm-.642,4.208a11.756,11.756,0,0,1,2.6,2.062l.676-.9a16.575,16.575,0,0,0-2.636-1.943Zm2.231,3.752a16.97,16.97,0,0,1-1.436,3.921,3.459,3.459,0,0,1-.777,1.2l1,.845c.084-.186.135-.287.338-.693a23.1,23.1,0,0,0,1.758-4.631Zm7.4,4.411a10.247,10.247,0,0,1-.1,1.639h1.082v-.727h3.245v.777h1.1a13.417,13.417,0,0,1-.1-1.774V-17.7a12.68,12.68,0,0,1,.068-1.656,11.493,11.493,0,0,1-1.589.068h-2.112c-.744,0-1.2-.017-1.656-.051a14.889,14.889,0,0,1,.068,1.639Zm1-11.661h3.228v3.059h-3.228Zm0,3.988h3.228v3.11h-3.228Zm0,4.039h3.228v3.583h-3.228ZM145.58-12.22a8.985,8.985,0,0,1-1.521-.084v1.082a8.809,8.809,0,0,1,1.47-.084h2.281V-9.5H145.8a9.435,9.435,0,0,1-1.555-.084v1.065a9.978,9.978,0,0,1,1.538-.084h2.028v1.487a14.558,14.558,0,0,1-.085,1.893h1.2a14.216,14.216,0,0,1-.085-1.91V-8.6h2.5a9.157,9.157,0,0,1,1.487.084V-9.584a8.785,8.785,0,0,1-1.487.084h-2.5v-1.808h2.636a9.414,9.414,0,0,1,1.487.084V-12.3a8.665,8.665,0,0,1-1.487.084h-1.284a14.31,14.31,0,0,0,1.267-2.011l-1.014-.3a9.066,9.066,0,0,1-1.335,2.315Zm-2.772-6.253a10.621,10.621,0,0,1-1.724-.118v1.2a12.272,12.272,0,0,1,1.724-.1h5.053v1.741h-4.174a12.784,12.784,0,0,1-1.538-.068,12.35,12.35,0,0,1,.068,1.453v7.858a11.7,11.7,0,0,1-.1,1.791h1.267a10,10,0,0,1-.084-1.741v-8.348h10.562v8.416c0,.355-.169.439-.811.439a10.856,10.856,0,0,1-2.011-.186,2.946,2.946,0,0,1,.287,1.1c.659.051,1.217.084,1.758.084,1.47,0,1.859-.287,1.859-1.352V-14.4a11.4,11.4,0,0,1,.068-1.42,12.129,12.129,0,0,1-1.521.068h-4.563v-1.741H154.3a13.237,13.237,0,0,1,1.741.1v-1.2a8.83,8.83,0,0,1-1.741.118h-5.374a8.459,8.459,0,0,1,.118-1.639h-1.3a8.122,8.122,0,0,1,.118,1.639Zm2.636,4.293a9.847,9.847,0,0,1,1.115,1.859l.862-.372a17.3,17.3,0,0,0-1.1-1.876ZM164.711-17.1v9.65h-4.766a12.709,12.709,0,0,1-1.994-.118v1.318a13.049,13.049,0,0,1,1.977-.118h11.1a12.614,12.614,0,0,1,1.977.118V-7.572a12.614,12.614,0,0,1-1.977.118h-5.1V-17.1H170a16.288,16.288,0,0,1,1.943.1v-1.284a15.066,15.066,0,0,1-1.96.1h-8.991a14.711,14.711,0,0,1-1.96-.1V-17a16.089,16.089,0,0,1,1.943-.1Zm18.826,6.827a9.584,9.584,0,0,1-4.276,3.431,2.454,2.454,0,0,1,.727.794,11.648,11.648,0,0,0,4.647-4.225h1.673a8.241,8.241,0,0,1-1.386,2.214,10.728,10.728,0,0,1-3.312,2.569,2.885,2.885,0,0,1,.777.794,13.723,13.723,0,0,0,1.369-.946,17.249,17.249,0,0,0,2.079-2.079,9.784,9.784,0,0,0,1.5-2.552h1.132a20.545,20.545,0,0,1-.372,3.245c-.22,1.014-.338,1.149-1.014,1.149a11.673,11.673,0,0,1-2.011-.186,2.863,2.863,0,0,1,.338,1.1c.524.034,1.082.068,1.47.068,1.149,0,1.572-.169,1.876-.777a16.864,16.864,0,0,0,.744-4.512,7.662,7.662,0,0,1,.085-1,13.189,13.189,0,0,1-1.656.068h-5.594a8.269,8.269,0,0,0,.777-1.234h5.171a14.4,14.4,0,0,1,1.673.068v-1.065a9.6,9.6,0,0,1-1.673.1H181.07a8.321,8.321,0,0,1-1.555-.1v1.1a8.273,8.273,0,0,1,1.521-.1h1.031a8.113,8.113,0,0,1-3.921,3.566,3,3,0,0,1,.693.76,10.836,10.836,0,0,0,2.839-2.248Zm-6.608-5.374h-.693a9.446,9.446,0,0,1-1.47-.084v1.115A12.18,12.18,0,0,1,176.2-14.7h.727v4.833a8.42,8.42,0,0,1-2.18.828l.321,1.183c.152-.084.625-.321.9-.439a31.145,31.145,0,0,0,3.515-1.91l-.068-1.014a14.612,14.612,0,0,1-1.436.862V-14.7h.406a13.2,13.2,0,0,1,1.4.068v-1.082a9.974,9.974,0,0,1-1.4.068h-.406v-2.332a11.524,11.524,0,0,1,.1-1.876h-1.251a13.387,13.387,0,0,1,.1,1.859Zm9.988,1.284c.659,0,1.183.017,1.555.051a9.95,9.95,0,0,1-.068-1.5v-2.112a12.348,12.348,0,0,1,.068-1.572,12.376,12.376,0,0,1-1.758.084H182.3a10.911,10.911,0,0,1-1.622-.084,11.372,11.372,0,0,1,.068,1.487v2.2a13.02,13.02,0,0,1-.068,1.521,11.917,11.917,0,0,1,1.538-.068Zm-5.171-4.174h5.661v1.234h-5.661Zm0,2.062h5.661v1.284h-5.661Z" transform="translate(58.996 42.566)" fill="#fff"/>
    </g>
    <g id="Group_2661" data-name="Group 2661" transform="translate(-20148.568 -12791.72)">
      <path id="Path_691" data-name="Path 691" d="M-33.641-14.186v.789h-2.774a9.873,9.873,0,0,1-1.535-.07,13.442,13.442,0,0,1,.056,1.451v2.591c-.014.972-.014.972-.014,1.028a1.835,1.835,0,0,0-.042.408,10.741,10.741,0,0,1,1.591-.07h1.521A8.359,8.359,0,0,1-36.852-6.61,11.792,11.792,0,0,1-39.5-5.568a6.018,6.018,0,0,1,.789,1.422A14.613,14.613,0,0,0-36.3-5.23a9.17,9.17,0,0,0,2.69-2.225c-.014.268-.028.789-.028.958v1.014a11.292,11.292,0,0,1-.1,1.605h1.732a8.626,8.626,0,0,1-.1-1.605V-6.5c0-.239-.014-.507-.028-.972A9.13,9.13,0,0,0-29.67-5.441a14.746,14.746,0,0,0,2.887,1.282,9.31,9.31,0,0,1,.8-1.493A9.931,9.931,0,0,1-30.867-8.06h1.69a11.118,11.118,0,0,1,1.577.07,11.1,11.1,0,0,1-.056-1.436v-2.605c0-.535.014-1,.056-1.422a13.634,13.634,0,0,1-1.563.056h-2.943v-.789h3.943a15.047,15.047,0,0,1,1.746.084v-1.549a11.8,11.8,0,0,1-1.845.1h-3.845a7,7,0,0,1,.084-1.267H-33.74a8.134,8.134,0,0,1,.1,1.267h-3.718a12.4,12.4,0,0,1-1.8-.1V-14.1a12.042,12.042,0,0,1,1.7-.084Zm0,2v.859H-36.4v-.859Zm1.535,0h2.957v.859h-2.957Zm-1.535,2.028v.887H-36.4v-.887Zm1.535,0h2.957v.887h-2.957Zm9.591,5.844V-5.342h7.6v1.028h1.76A15.848,15.848,0,0,1-13.235-6.1v-8.084a12.329,12.329,0,0,1,.07-1.549,12.952,12.952,0,0,1-1.577.07H-22.7a12.57,12.57,0,0,1-1.563-.07c.042.493.07.929.07,1.549V-6.1a12.313,12.313,0,0,1-.1,1.789Zm0-9.76h7.6v7.126h-7.6Z" transform="translate(39.5 16.82)" fill="#0b2257"/>
      <path id="Path_692" data-name="Path 692" d="M5.529-5.047H4.5v1.6H3.665v-1.6H.294v-.739l3.312-4.742h.9v4.7H5.529ZM3.665-5.826V-8.044q0-.513.015-.872T3.715-9.6H3.675a4.491,4.491,0,0,1-.2.4,3.272,3.272,0,0,1-.227.365L1.142-5.826ZM10.28-9.119H9.127a7.943,7.943,0,0,0-.71-1.213l-.522.227a6.112,6.112,0,0,1,.611.986H7.392a6.454,6.454,0,0,1-1-.059v.641a6.911,6.911,0,0,1,1-.059H9.7A8.767,8.767,0,0,1,6.179-6.674a1.619,1.619,0,0,1,.355.552c.5-.2.7-.286,1.124-.493,0,.148.01.355.01.552v2.455a6.221,6.221,0,0,1-.059.917H8.25v-.532H13.06v.532H13.7a5.908,5.908,0,0,1-.059-.927V-6.072c0-.246,0-.325.01-.552.365.168.424.2,1.232.513a2.111,2.111,0,0,1,.345-.591A9.286,9.286,0,0,1,11.444-8.6h2.425a6.911,6.911,0,0,1,1,.059v-.641a5.4,5.4,0,0,1-1,.059H12.686a9.516,9.516,0,0,0,.759-1.262l-.6-.227a6.964,6.964,0,0,1-.789,1.489H10.872v-1.489c.808-.089,2.09-.276,2.81-.424.1-.02.168-.03.207-.039l.187-.03-.444-.562a21.211,21.211,0,0,1-5.787.68c-.207,0-.414,0-.808-.01a1.926,1.926,0,0,1,.266.572c1-.01,2-.059,2.977-.128ZM8.437-6.851H8.131A7.494,7.494,0,0,0,10.32-8.537a2.716,2.716,0,0,0-.039.384v.345a4.63,4.63,0,0,1-.039.67h.66a5.807,5.807,0,0,1-.03-.67v-.355c0-.049-.01-.089-.02-.227-.01-.069-.01-.1-.02-.158a8.247,8.247,0,0,0,2.346,1.7H8.437Zm-.187.513H10.29v1.006H8.25Zm0,1.508H10.29v1.084H8.25Zm2.612-1.508h2.2v1.006h-2.2Zm.01,1.508H13.05v1.084H10.872Zm7.689-5.787a1.089,1.089,0,0,1,.01.158,7.819,7.819,0,0,1-.1.927,11.416,11.416,0,0,1-1.015,3.421A6.337,6.337,0,0,1,16.028-4.16a2.158,2.158,0,0,1,.631.513,10.581,10.581,0,0,0,2.6-6.151,3.579,3.579,0,0,1,.128-.67Zm2.829.148a4.285,4.285,0,0,1,.128.651A11.844,11.844,0,0,0,24.2-3.628a2.132,2.132,0,0,1,.611-.552,8.7,8.7,0,0,1-2.238-4.071,11.913,11.913,0,0,1-.453-2.366Zm1.282-.424a7.436,7.436,0,0,1,.976,1.587l.5-.286a7.3,7.3,0,0,0-.986-1.548Zm1.134-.5a7.725,7.725,0,0,1,.976,1.567l.493-.266a7.556,7.556,0,0,0-.986-1.558ZM34.324-3.983A24.516,24.516,0,0,0,31.041-6.94,11.921,11.921,0,0,0,32.668-9.7a1.84,1.84,0,0,1,.276-.483l-.414-.424a1.838,1.838,0,0,1-.631.079l-3.519.039h-.256a4.633,4.633,0,0,1-.779-.049l.02.8a6.633,6.633,0,0,1,1.015-.079l3.293-.049a1.675,1.675,0,0,0,.237-.01.209.209,0,0,1-.03.069c-.02.049-.03.059-.049.118a10.685,10.685,0,0,1-3.519,4.446,7.936,7.936,0,0,1-2,1.134,2.194,2.194,0,0,1,.483.651,12.7,12.7,0,0,0,1.932-1.183,10.7,10.7,0,0,0,1.883-1.765,18.335,18.335,0,0,1,3.155,3.046Zm6.713-6.773H39.332a6.328,6.328,0,0,1-.956-.059v.641a6.658,6.658,0,0,1,.927-.049H43.63a6.719,6.719,0,0,1,.937.049v-.641a6.524,6.524,0,0,1-.976.059H41.659v-.207a4.02,4.02,0,0,1,.049-.66h-.729a3.151,3.151,0,0,1,.059.66Zm.168,5.412v1.686c0,.2-.079.246-.414.246a7.17,7.17,0,0,1-1.144-.108,2.254,2.254,0,0,1,.138.631c.375.03.621.039,1.055.039.779,0,.986-.148.986-.72V-5.343h.966a7.612,7.612,0,0,1,.986.049v-.631a5.728,5.728,0,0,1-.966.049H39.894a6.981,6.981,0,0,1-.956-.049v.631a7.369,7.369,0,0,1,.966-.049Zm-4.347,1.5A9.807,9.807,0,0,1,36.8-2.662h.72a9.843,9.843,0,0,1-.049-1.153V-9.158c.335-.858.394-1.015.522-1.41.177-.572.177-.572.3-.9l-.68-.177a8.581,8.581,0,0,1-.7,2.2,9.025,9.025,0,0,1-1.39,2.189,1.975,1.975,0,0,1,.384.532,8.931,8.931,0,0,0,1-1.528c-.03.493-.039.828-.039,1.213Zm2.2-4.594a5,5,0,0,1-.039.67,7.79,7.79,0,0,1,.927-.039h2.888a7.456,7.456,0,0,1,.937.039,4.289,4.289,0,0,1-.039-.621V-9.04a4.9,4.9,0,0,1,.039-.67,7.712,7.712,0,0,1-.907.049H39.934a7.767,7.767,0,0,1-.917-.049,5.5,5.5,0,0,1,.039.69Zm.582-.73h3.509V-8.3H39.638ZM38.12-6.26a3.643,3.643,0,0,1-.039.591h.631V-6.674H44v1.015h.651a3.643,3.643,0,0,1-.039-.591v-.335a6.229,6.229,0,0,1,.03-.66,10.222,10.222,0,0,1-1.134.049H39.027c-.444,0-.66-.01-.937-.03a5.835,5.835,0,0,1,.03.641Z" transform="translate(35.473 14.59)" fill="#0b2257"/>
    </g>
    <g id="Group_2660" data-name="Group 2660" transform="translate(-20167.229 -12578.001)">
      <path id="Path_693" data-name="Path 693" d="M3.344-10.385a5.533,5.533,0,0,1,.642.034v-1.172a3.687,3.687,0,0,1-.665.045H3.085v-.89a8.059,8.059,0,0,1,.056-1.172H1.868a7.6,7.6,0,0,1,.056,1.172v.89H1.463a5.385,5.385,0,0,1-.8-.045v1.183a5.355,5.355,0,0,1,.811-.045h.383A10.2,10.2,0,0,1,.336-6.814a2.887,2.887,0,0,1,.71.913,9.284,9.284,0,0,0,.946-2.287c-.023.327-.034.462-.034.71,0,.146-.011.248-.011.27,0,.259-.011.473-.011.5v2.253a9.38,9.38,0,0,1-.079,1.386h1.3a11.178,11.178,0,0,1-.068-1.386V-7.377c-.011-.237-.011-.484-.023-.744a7.091,7.091,0,0,0-.045-.71,8.561,8.561,0,0,0,.62,1.251,6.783,6.783,0,0,1,.518-.958A5.927,5.927,0,0,1,3.13-10.385Zm7.188-1.408a10.09,10.09,0,0,1,.056-1.284,12.39,12.39,0,0,1-1.3.045H5.575a13.172,13.172,0,0,1-1.318-.045A10.878,10.878,0,0,1,4.3-11.952v7.515a10.952,10.952,0,0,1-.068,1.352H5.485a8.939,8.939,0,0,1-.056-1.307V-11.94H9.394v7.391c0,.18-.113.237-.484.237A7.887,7.887,0,0,1,7.851-4.4,3.153,3.153,0,0,1,8.11-3.22c.248.011.665.023.879.023a2.386,2.386,0,0,0,1.149-.18.988.988,0,0,0,.394-.9Zm-1.453.676a5.4,5.4,0,0,1-.834.045H6.589a5.4,5.4,0,0,1-.834-.045V-10a6.056,6.056,0,0,1,.845-.045H8.234A5.954,5.954,0,0,1,9.079-10Zm-.2,2.636a4.685,4.685,0,0,1,.034-.71c-.214.011-.439.023-.755.023h-1.6c-.27,0-.417-.011-.631-.023.011.192.023.394.023.755v2.749c0,.406-.011.676-.034.946H6.949V-5.53H8.166A6.469,6.469,0,0,1,8.91-5.5a5.706,5.706,0,0,1-.034-.71Zm-1.927.315h.924v1.611H6.949Zm8.867-2.963a10.335,10.335,0,0,1-1.127-.045c.023.349.034.608.034,1.127V-7.9c0,.484-.011.811-.034,1.127.349-.034.721-.045,1.127-.045h1.521v2.265c0,.18-.079.214-.428.214a8.352,8.352,0,0,1-1.329-.113,3.575,3.575,0,0,1,.27,1.206c.484.011.71.023,1.014.023,1.375,0,1.7-.214,1.7-1.115V-6.814h1.577c.417,0,.766.011,1.127.045a9.294,9.294,0,0,1-.045-1.093v-2.219a9.542,9.542,0,0,1,.045-1.093,9.762,9.762,0,0,1-1.149.045H18.227c.135-.3.214-.541.327-.856h2.1a9.531,9.531,0,0,1,1.307.056v-1.217a9.478,9.478,0,0,1-1.375.068h-6.4a13.484,13.484,0,0,1-1.442-.056,16.122,16.122,0,0,1,.068,2.028c0,3.786-.259,5.385-1.093,6.85a6.108,6.108,0,0,1,.89,1.093,7.671,7.671,0,0,0,.845-1.949,22.95,22.95,0,0,0,.563-5.949v-.924h3.279a6.4,6.4,0,0,1-.315.856Zm.045.991H20.03v.653H15.861Zm0,1.622H20.03v.687H15.861Zm3.324,2.467A8.81,8.81,0,0,0,21.37-3.412a5.594,5.594,0,0,1,.879-.969,7.017,7.017,0,0,1-2.062-2.2ZM15.32-6.566A5.976,5.976,0,0,1,13.54-4.2a5.81,5.81,0,0,1,.913.834A8.118,8.118,0,0,0,16.413-6.1ZM32.952-3.84a28.9,28.9,0,0,0-2.76-4.2l-1.1.62a16.806,16.806,0,0,1,1.431,2.005,34.842,34.842,0,0,1-4.078.372,35.537,35.537,0,0,0,2.107-4.338c.113-.27.158-.361.225-.5l-1.487-.383a9.067,9.067,0,0,1-.653,1.938,29.652,29.652,0,0,1-1.656,3.335c-.315.011-.383.011-.642.011-.315,0-.575-.011-.822-.034l.225,1.442a8.408,8.408,0,0,1,1.318-.124,58.65,58.65,0,0,0,6.1-.62c.2.383.3.575.586,1.183Zm-6.67-9.419a4.234,4.234,0,0,1-.6,1.4A8.974,8.974,0,0,1,22.9-8.955a5.244,5.244,0,0,1,.856,1.172,11.76,11.76,0,0,0,1.735-1.622,13.117,13.117,0,0,0,1.87-2.76,1.738,1.738,0,0,1,.146-.293.99.99,0,0,0,.056-.113,1.648,1.648,0,0,1,.1-.169Zm2.569.518.09.18a1.98,1.98,0,0,1,.113.225c.056.124.1.2.124.259a11.677,11.677,0,0,0,1.037,1.7,12.035,12.035,0,0,0,2.6,2.6,5.683,5.683,0,0,1,.834-1.239,10.987,10.987,0,0,1-1.07-.766,9.334,9.334,0,0,1-1.239-1.273,7.28,7.28,0,0,1-1.251-2.219Zm10.016,2.084v.462H37.031a4.67,4.67,0,0,1-.9-.056v.98a5.237,5.237,0,0,1,.879-.056h5.07a4.883,4.883,0,0,1,.856.056v-.98a4.481,4.481,0,0,1-.879.056H40.039v-.462h1.589a6.419,6.419,0,0,1,.9.045v-.935a4.814,4.814,0,0,1-.9.056H40.039a2.95,2.95,0,0,1,.045-.451H38.822c.023.146.034.27.045.451H37.515a4.985,4.985,0,0,1-.946-.056v.935a7.291,7.291,0,0,1,.935-.045Zm5.566,7.571a10.9,10.9,0,0,1-.068-1.465v-7.323a11.515,11.515,0,0,1,.056-1.352,10.79,10.79,0,0,1-1.318.056H35.949a10.678,10.678,0,0,1-1.318-.056,12.464,12.464,0,0,1,.068,1.352v7.312a12.992,12.992,0,0,1-.068,1.476h1.251v-.462h7.3v.462Zm-8.551-9.081h7.289v7.627H35.882V-5.71a3.107,3.107,0,0,1,.71.834,8.588,8.588,0,0,0,2.073-1.363c0,.09-.011.293-.011.361v.484a3.661,3.661,0,0,1-.045.642h1.217a3.5,3.5,0,0,1-.045-.642v-.484c0-.192,0-.192-.011-.394a7.676,7.676,0,0,0,2.524,1.555,8,8,0,0,1,.721-.924A8.162,8.162,0,0,1,41.875-6a6.326,6.326,0,0,0,.665-.518,2.194,2.194,0,0,1,.2-.192l-.473-.27a3.942,3.942,0,0,1-.023-.6V-8.4a4.372,4.372,0,0,1,.023-.608,6.278,6.278,0,0,1-.744.023H37.538a6.382,6.382,0,0,1-.744-.023,3.412,3.412,0,0,1,.034.608v.822a4.688,4.688,0,0,1-.034.608c.237-.011.237-.011.744-.023h.653a6.208,6.208,0,0,1-1.3.834c-.2.1-.541.237-1.014.417Zm5.644,5.171h.225a5.486,5.486,0,0,1-.665.6,5.694,5.694,0,0,1-.868-.6ZM37.955-8.189h3.155v.394H37.955Zm9.024-3.887a7.576,7.576,0,0,1-1.206-.068v1.217a7.17,7.17,0,0,1,1.206-.068h7.65a6.86,6.86,0,0,1,1.206.068v-1.217a8.179,8.179,0,0,1-1.206.068H52.894a11.258,11.258,0,0,0,.9-1.228l-1.273-.349a5.908,5.908,0,0,1-.991,1.577H50.01a9.528,9.528,0,0,0-1.048-1.589l-1.217.349a7.048,7.048,0,0,1,.913,1.239Zm.586,6.546h1.848v.958c0,.2-.056.248-.327.248a6.678,6.678,0,0,1-.789-.068,4.4,4.4,0,0,1,.27,1.1c.406.011.541.011.71.011,1.048,0,1.3-.214,1.3-1.082V-9.2c0-.6.011-.856.034-1.127a6.535,6.535,0,0,1-1,.045H47.418a9.66,9.66,0,0,1-1.059-.045c.023.282.034.462.034,1.014v4.856a9.983,9.983,0,0,1-.056,1.284h1.3a6.785,6.785,0,0,1-.068-1.206Zm0-1.059v-.789h1.848v.789Zm0-1.848v-.789h1.848v.789Zm4.022-1.69a6.773,6.773,0,0,1,.056,1.059v2.434A9.887,9.887,0,0,1,51.6-5.428h1.273a9.628,9.628,0,0,1-.045-1.217V-9.056a6.416,6.416,0,0,1,.056-1.07Zm2.377-.3a7.256,7.256,0,0,1,.056,1.16V-4.7c0,.315-.056.361-.518.361a9.617,9.617,0,0,1-1.375-.124,4,4,0,0,1,.349,1.194c.71.034.946.045,1.217.045.721,0,1.025-.079,1.262-.3a1.314,1.314,0,0,0,.259-.969V-9.236a6.644,6.644,0,0,1,.068-1.194Z" transform="translate(-0.336 13.664)" fill="#0b2257"/>
      <path id="Path_694" data-name="Path 694" d="M5.811-4.042a2.735,2.735,0,0,1-1.528-1.39c.059-.227.089-.375.128-.562a7.741,7.741,0,0,1,.217-.976L3.948-7.1A5.176,5.176,0,0,1,3.8-5.984,6.164,6.164,0,0,1,2.43-3.1a1.677,1.677,0,0,1,.522.414,6.815,6.815,0,0,0,1.124-2.11C4.9-3.529,6.1-3.066,8.572-3.066c.168,0,.434,0,.779-.01a2.648,2.648,0,0,1,.207-.68c-.651.03-.966.039-1.321.039a9.563,9.563,0,0,1-1.814-.138V-5.806H7.97a8.34,8.34,0,0,1,.9.049v-.66a6.223,6.223,0,0,1-.9.049H6.423v-1.42h2.1a9.273,9.273,0,0,1,.937.049v-.651a8.678,8.678,0,0,1-.937.049H6.432V-9.779H7.941a5.941,5.941,0,0,1,.917.049v-.651a5.7,5.7,0,0,1-.927.049h-1.5v-.246a4.853,4.853,0,0,1,.059-1.006H5.752a4.149,4.149,0,0,1,.079,1.015v.237H4.461a5.444,5.444,0,0,1-.9-.049v.651a5.743,5.743,0,0,1,.9-.049h1.37V-8.34H3.988a8.485,8.485,0,0,1-.927-.049v.651c.306-.03.6-.049.927-.049H5.811Zm-3.273-7.62a4.115,4.115,0,0,1-.917,1.134A6.966,6.966,0,0,1,.409-9.6a2.042,2.042,0,0,1,.4.493A9.234,9.234,0,0,0,2.8-10.932c.217-.256.217-.266.3-.345ZM1.651-3.835a8.788,8.788,0,0,1-.059,1.144h.72a8.9,8.9,0,0,1-.049-1.134V-7.778c.286-.365.463-.611.621-.858a2.867,2.867,0,0,1,.276-.424L2.588-9.4a3.751,3.751,0,0,1-.463.848A7.341,7.341,0,0,1,.35-6.713,1.664,1.664,0,0,1,.7-6.161a5.305,5.305,0,0,0,.976-1.015c-.03.513-.03.779-.03,1.183ZM15.3-8.586V-9.9h2.2a5.7,5.7,0,0,1,.927.049v-.66a5.908,5.908,0,0,1-.927.059H15.3v-.286a4.577,4.577,0,0,1,.059-.9h-.739a5.858,5.858,0,0,1,.059.917v2.129H12.87v-1.39a4.785,4.785,0,0,1,.059-.877H12.2a5.757,5.757,0,0,1,.059.877v1.39h-.651a7.791,7.791,0,0,1-1.065-.059v.69a7.892,7.892,0,0,1,1.065-.059h3.056v2.248c0,.168-.079.207-.4.207a5.941,5.941,0,0,1-1.1-.108,2.279,2.279,0,0,1,.158.631c.355.03.71.039,1,.039.71,0,1-.187,1-.66V-8.014h2.938a7.311,7.311,0,0,1,1.015.059v-.69a7.021,7.021,0,0,1-1.015.059ZM16.5-7.275a10.467,10.467,0,0,0,2.445,2.021,3.243,3.243,0,0,1,.453-.513A7.374,7.374,0,0,1,17.02-7.6Zm-3.7-.315a5.548,5.548,0,0,1-2.356,2.2,2.794,2.794,0,0,1,.483.483,7.7,7.7,0,0,0,2.425-2.356ZM17.06-6.112a4.55,4.55,0,0,1-1.6,1.5A8.553,8.553,0,0,1,10.987-3.4a2.256,2.256,0,0,1,.315.66,9.007,9.007,0,0,0,5.343-1.981,12.811,12.811,0,0,0,1-.956Zm6.26,2.662h-.848V-8.369q0-.424.01-.68t.03-.532a3.927,3.927,0,0,1-.291.266q-.133.108-.32.276l-.749.611L20.7-9.01l1.9-1.479h.72Zm6-4.062a4.773,4.773,0,0,1-.532,2.031,5.023,5.023,0,0,1-2.484,2.159,2.06,2.06,0,0,1,.434.552,5.785,5.785,0,0,0,2.484-2.149,5.614,5.614,0,0,0,.769-2.593h2.3a14.033,14.033,0,0,1-.325,3.648c-.069.187-.177.246-.493.246a7.6,7.6,0,0,1-1.39-.168,2.732,2.732,0,0,1,.158.7c.621.059.966.079,1.291.079.572,0,.808-.1.976-.394a12.53,12.53,0,0,0,.444-4.042,4.355,4.355,0,0,1,.039-.7,7.459,7.459,0,0,1-1.035.049H28.712a7.566,7.566,0,0,1-1.025-.059v.7A7.939,7.939,0,0,1,28.7-7.512Zm-.4-4.091a3.171,3.171,0,0,1-.424,1.035,8.123,8.123,0,0,1-2.7,2.888,2.17,2.17,0,0,1,.483.532,9.785,9.785,0,0,0,3.105-3.7,2.69,2.69,0,0,1,.276-.5Zm2.189.276c.049.079.108.187.158.276a9.987,9.987,0,0,0,3.322,3.963,2.432,2.432,0,0,1,.463-.6,8.221,8.221,0,0,1-2.908-3.066,3.991,3.991,0,0,1-.375-.828Z" transform="translate(63.738 12.367)" fill="#0b2257"/>
    </g>
    <g id="Group_2658" data-name="Group 2658" transform="translate(-20169.908 -12739.034)">
      <path id="Path_695" data-name="Path 695" d="M0,0H52.107V13.379H0Z" transform="translate(2.146)" fill="#becbd9"/>
      <path id="Path_696" data-name="Path 696" d="M5.137-9.274a3.843,3.843,0,0,1,.631.039v-.631a4.051,4.051,0,0,1-.641.039H4.575v-.927a6.088,6.088,0,0,1,.049-.976h-.68a6.371,6.371,0,0,1,.049,1v.907h-.66a5.452,5.452,0,0,1-.749-.039v.631a5.675,5.675,0,0,1,.739-.039h.582A10.13,10.13,0,0,1,2.3-5.469a2.548,2.548,0,0,1,.434.522,10.182,10.182,0,0,0,1.331-3.44c-.03.641-.069,1.508-.069,1.686v2.81A7.678,7.678,0,0,1,3.935-2.8h.7a7.4,7.4,0,0,1-.059-1.094V-6.869c0-.394,0-.394-.039-1.567a8,8,0,0,0,.956,2.129,2.4,2.4,0,0,1,.345-.562A7.124,7.124,0,0,1,4.6-9.274ZM.879-11.118a6.132,6.132,0,0,1,1.4,1.262l.424-.453a7.079,7.079,0,0,0-1.41-1.242ZM.5-8.663a6.858,6.858,0,0,1,1.518,1.2l.394-.522A9.669,9.669,0,0,0,.879-9.116Zm1.3,2.189A9.9,9.9,0,0,1,.967-4.187a2.017,2.017,0,0,1-.453.7l.582.493c.049-.108.079-.168.2-.4A13.475,13.475,0,0,0,2.318-6.1ZM6.123-3.9a5.977,5.977,0,0,1-.059.956h.631v-.424H8.588v.453h.641a7.828,7.828,0,0,1-.059-1.035v-6.388a7.4,7.4,0,0,1,.039-.966,6.7,6.7,0,0,1-.927.039H7.05c-.434,0-.7-.01-.966-.03a8.686,8.686,0,0,1,.039.956ZM6.7-10.7H8.588v1.784H6.7Zm0,2.327H8.588v1.814H6.7Zm0,2.356H8.588v2.09H6.7Zm6.8,2.534h-.848V-8.407q0-.424.01-.68t.03-.532a3.926,3.926,0,0,1-.291.266q-.133.108-.32.276l-.749.611-.453-.582,1.9-1.479h.72Zm7-5.392a1.568,1.568,0,0,1-.4,1.129,1.979,1.979,0,0,1-1.06.557v.039a2.016,2.016,0,0,1,1.257.532,1.563,1.563,0,0,1,.419,1.134,2.074,2.074,0,0,1-.286,1.094,1.891,1.891,0,0,1-.882.739,3.785,3.785,0,0,1-1.533.266A5.887,5.887,0,0,1,17-3.473a3.308,3.308,0,0,1-.907-.3v-.808a4.135,4.135,0,0,0,.956.345,4.382,4.382,0,0,0,.986.118,2.044,2.044,0,0,0,1.365-.37,1.29,1.29,0,0,0,.419-1.02A1.007,1.007,0,0,0,19.3-6.46a3,3,0,0,0-1.454-.291h-.68V-7.49h.69a2.046,2.046,0,0,0,1.316-.365,1.183,1.183,0,0,0,.449-.966.965.965,0,0,0-.345-.794,1.44,1.44,0,0,0-.937-.281,2.546,2.546,0,0,0-.976.168,4.933,4.933,0,0,0-.8.424L16.129-9.9a3.608,3.608,0,0,1,.932-.513,3.471,3.471,0,0,1,1.267-.217,2.362,2.362,0,0,1,1.641.493A1.625,1.625,0,0,1,20.506-8.88Zm1.705,2.691a2.251,2.251,0,0,1,.473-.049c.207-.01.434-.02.67-.02.394-.01.394-.01,1.459-.059l1.015-.039v2.6a4.648,4.648,0,0,1-.059.956h.759a4.648,4.648,0,0,1-.059-.956V-6.4c1.479-.069,1.656-.089,3.046-.217.266.345.365.493.67.937l.513-.4a19.247,19.247,0,0,0-1.952-2.267l-.473.325a11.866,11.866,0,0,1,.838.9c-1.153.108-1.153.108-3.2.187.522-.483,1.469-1.449,1.853-1.9a7.09,7.09,0,0,1,.739-.838l-.621-.365a3.9,3.9,0,0,1-.582.8c-.306.365-.828.937-1.36,1.489a13.089,13.089,0,0,0-1.075-.907,14.4,14.4,0,0,0,1.617-1.972c.769-.089,1.912-.286,2.465-.414a6.757,6.757,0,0,1,.66-.148l-.453-.591c-.207.089-.335.138-.375.148a13.443,13.443,0,0,1-2.041.424,33.376,33.376,0,0,1-4.367.3,2.105,2.105,0,0,1,.266.591c1.311-.059,1.656-.079,3.026-.207A11.418,11.418,0,0,1,24.42-9.008c-.217-.168-.345-.266-.828-.6l-.453.4a18.653,18.653,0,0,1,2.4,1.853c-.2.2-.355.335-.453.434-.3.01-.582.01-.729.02-.375,0-.621.01-.73.01-.246.01-.394.01-.473.01a9.043,9.043,0,0,1-1.035-.059Zm1.952.355a6.444,6.444,0,0,1-2.277,2.149,2.1,2.1,0,0,1,.473.532A8.275,8.275,0,0,0,24.7-5.5Zm3.46.187a9.661,9.661,0,0,0,2.405,2.455,2.6,2.6,0,0,1,.463-.532,8.518,8.518,0,0,1-2.356-2.218ZM31.744-6.79c.128-.03.582-.079,1.479-.158v3.214a7,7,0,0,1-.059.976h.7a7.1,7.1,0,0,1-.059-.976V-7.007c.522-.069.66-.089.9-.128.069.207.1.3.177.591l.483-.227a8.165,8.165,0,0,0-.818-1.824l-.424.217a5.442,5.442,0,0,1,.4.789A13.4,13.4,0,0,1,33-7.441a27.475,27.475,0,0,0,1.676-2.553,1.9,1.9,0,0,1,.227-.345l-.582-.325a9.357,9.357,0,0,1-1.006,1.853c-.2-.266-.3-.384-.552-.68a13.3,13.3,0,0,0,.808-1.331,6.47,6.47,0,0,1,.375-.67l-.6-.3a7.553,7.553,0,0,1-.937,1.9c-.187-.207-.207-.217-.424-.444l-.325.453A10.81,10.81,0,0,1,33-8.318c-.237.365-.237.365-.631.917-.138,0-.315.01-.414.01a1.446,1.446,0,0,1-.306-.02Zm7.827-3.056a8.3,8.3,0,0,1,.887.049v-.651a5.771,5.771,0,0,1-.917.059H37.856v-.444a4.471,4.471,0,0,1,.059-.838h-.71a5.4,5.4,0,0,1,.059.838v.444H36a5.685,5.685,0,0,1-.917-.059V-9.8a5.241,5.241,0,0,1,.887-.049h.858a10.612,10.612,0,0,1-.946,1.725c-.168.01-.227.01-.3.01-.168,0-.266-.01-.444-.02l.118.641a6.377,6.377,0,0,1,.641-.069c1.794-.118,2.327-.158,3.6-.325.187.246.286.375.532.749l.483-.394a14.094,14.094,0,0,0-1.824-2.05l-.444.325a10.009,10.009,0,0,1,.858.887c-.789.1-1.607.168-2.563.217a11.712,11.712,0,0,0,.907-1.7Zm-7.394,3.48a7.979,7.979,0,0,1-.542,2.741l.522.266a9.118,9.118,0,0,0,.562-2.9Zm2.06.1a9.215,9.215,0,0,1,.444,2.021l.522-.207a13.13,13.13,0,0,0-.473-1.991Zm3.726-.907a5.875,5.875,0,0,1,.049.966v2.573c0,.532.187.651,1.075.651.66,0,.956-.079,1.114-.3a4,4,0,0,0,.335-1.873,1.751,1.751,0,0,1-.6-.266,6.013,6.013,0,0,1-.148,1.656c-.059.158-.246.217-.729.217-.375,0-.434-.039-.434-.286V-6.208a5.949,5.949,0,0,1,.049-.966Zm-1.666.02a3.093,3.093,0,0,1,.049.631,4.18,4.18,0,0,1-.424,2,3.066,3.066,0,0,1-1.36,1.232,1.774,1.774,0,0,1,.5.483,3.71,3.71,0,0,0,1.351-1.331,4.589,4.589,0,0,0,.532-2.248A4.221,4.221,0,0,1,37-7.155Z" transform="translate(7.63 14.05)" fill="#0b2257"/>
      <g id="Group_2441" data-name="Group 2441" transform="translate(0 23.951)">
        <text id="湘南台駅東口" transform="translate(0 8)" fill="#0b2257" font-size="9" font-family="PingFangSC-Semibold, PingFang SC" font-weight="600"><tspan x="0" y="0">湘南台駅東口</tspan></text>
        <text id="行" transform="translate(64.047 9)" fill="#0b2257" font-size="10" font-family="PingFangSC-Regular, PingFang SC"><tspan x="0" y="0">行</tspan></text>
      </g>
      <g id="Group_2442" data-name="Group 2442" transform="translate(0 44.175)">
        <text id="湘南台駅西口" transform="translate(0 8)" fill="#0b2257" font-size="9" font-family="PingFangSC-Semibold, PingFang SC" font-weight="600"><tspan x="0" y="0">湘南台駅西口</tspan></text>
        <text id="行-2" data-name="行" transform="translate(64.047 9)" fill="#0b2257" font-size="10" font-family="PingFangSC-Regular, PingFang SC"><tspan x="0" y="0">行</tspan></text>
      </g>
      <path id="Path_697" data-name="Path 697" d="M.78-6.736a3.571,3.571,0,0,1,.6-.069c.375-.03.375-.03,1.1-.1v3.174a7.311,7.311,0,0,1-.059,1.015h.72a7.158,7.158,0,0,1-.059-1.006V-6.962c.375-.039.6-.069.68-.079a1.586,1.586,0,0,0,.246-.03c.1.256.128.345.227.66l.5-.227A10.679,10.679,0,0,0,3.876-8.51l-.453.177a8.288,8.288,0,0,1,.394.779c-.68.089-.858.1-1.6.148A21.587,21.587,0,0,0,4.043-9.9c.138-.2.2-.286.286-.4l-.582-.345A10.1,10.1,0,0,1,2.614-8.786c-.207-.246-.365-.424-.66-.72a15.113,15.113,0,0,0,.976-1.548,3.577,3.577,0,0,1,.227-.375L2.545-11.7A7.334,7.334,0,0,1,1.569-9.88c-.158-.158-.207-.2-.424-.4L.78-9.821a9.777,9.777,0,0,1,1.5,1.508c-.286.384-.384.513-.749.946-.158.01-.453.02-.5.02a2.247,2.247,0,0,1-.355-.03Zm7.877-2.7a27.609,27.609,0,0,1-.424,5.156c-.138.631-.246.749-.71.749A7.779,7.779,0,0,1,6.212-3.66a2.371,2.371,0,0,1,.168.68c.394.039.759.059,1.045.059.946,0,1.193-.207,1.42-1.153A24.691,24.691,0,0,0,9.268-8.54a14.839,14.839,0,0,1,.049-1.518,5.336,5.336,0,0,1-.8.039H6.055c.128-.315.207-.513.286-.73.177-.493.177-.493.256-.68l-.67-.168a6.172,6.172,0,0,1-.552,1.627,6.4,6.4,0,0,1-1.1,1.686,1.794,1.794,0,0,1,.513.384A7.668,7.668,0,0,0,5.788-9.437ZM1.342-6.262A7.294,7.294,0,0,1,.692-3.62l.542.256a8.73,8.73,0,0,0,.651-2.79Zm2.287.1a13,13,0,0,1,.5,2.376L4.7-3.975a15.691,15.691,0,0,0-.582-2.346ZM7.4-5.819A11.817,11.817,0,0,0,6-8.224l-.513.3A9.548,9.548,0,0,1,6.833-5.484ZM12.867-10.6a2.5,2.5,0,0,1,1.518.434,1.457,1.457,0,0,1,.591,1.252,1.451,1.451,0,0,1-.182.739,1.956,1.956,0,0,1-.488.557,4.092,4.092,0,0,1-.67.429,5.691,5.691,0,0,1,.789.473,2.091,2.091,0,0,1,.567.6,1.552,1.552,0,0,1,.212.828,1.721,1.721,0,0,1-.631,1.4,2.56,2.56,0,0,1-1.676.518,2.7,2.7,0,0,1-1.75-.5,1.7,1.7,0,0,1-.606-1.395,1.672,1.672,0,0,1,.2-.833,2.006,2.006,0,0,1,.537-.616A3.808,3.808,0,0,1,12-7.14a3.2,3.2,0,0,1-.877-.715,1.6,1.6,0,0,1-.355-1.07,1.486,1.486,0,0,1,.276-.907,1.735,1.735,0,0,1,.749-.572A2.772,2.772,0,0,1,12.867-10.6Zm-.01.7a1.447,1.447,0,0,0-.9.261.889.889,0,0,0-.345.754,1.04,1.04,0,0,0,.173.611,1.454,1.454,0,0,0,.468.419,6.66,6.66,0,0,0,.651.33,3.188,3.188,0,0,0,.863-.522,1.055,1.055,0,0,0,.35-.838.889.889,0,0,0-.345-.754A1.481,1.481,0,0,0,12.857-9.9ZM11.388-5.247a1.117,1.117,0,0,0,.365.853,1.6,1.6,0,0,0,1.124.34,1.6,1.6,0,0,0,1.1-.34,1.13,1.13,0,0,0,.38-.882,1.069,1.069,0,0,0-.4-.853,3.733,3.733,0,0,0-1.075-.6l-.158-.059a3.073,3.073,0,0,0-.991.641A1.244,1.244,0,0,0,11.388-5.247ZM19.56-7.524a4.773,4.773,0,0,1-.532,2.031,5.023,5.023,0,0,1-2.484,2.159,2.06,2.06,0,0,1,.434.552,5.785,5.785,0,0,0,2.484-2.149,5.614,5.614,0,0,0,.769-2.593h2.3A14.033,14.033,0,0,1,22.2-3.877c-.069.187-.177.246-.493.246a7.6,7.6,0,0,1-1.39-.168,2.733,2.733,0,0,1,.158.7c.621.059.966.079,1.291.079.572,0,.808-.1.976-.394a12.53,12.53,0,0,0,.444-4.042,4.355,4.355,0,0,1,.039-.7,7.459,7.459,0,0,1-1.035.049H18.949a7.567,7.567,0,0,1-1.025-.059v.7a7.939,7.939,0,0,1,1.015-.059Zm-.4-4.091a3.171,3.171,0,0,1-.424,1.035,8.123,8.123,0,0,1-2.7,2.888,2.17,2.17,0,0,1,.483.532,9.785,9.785,0,0,0,3.105-3.7,2.69,2.69,0,0,1,.276-.5Zm2.189.276c.049.079.108.187.158.276A9.987,9.987,0,0,0,24.824-7.1a2.432,2.432,0,0,1,.463-.6,8.221,8.221,0,0,1-2.908-3.066A3.991,3.991,0,0,1,22-11.6Z" transform="translate(82.221 56.274)" fill="#0b2257"/>
    </g>
    <g id="Group_2659" data-name="Group 2659" transform="translate(-20169.637 -12674.119)">
      <path id="Path_698" data-name="Path 698" d="M0,0H52.107V13.379H0Z" transform="translate(0.109)" fill="#becbd9"/>
      <path id="Path_699" data-name="Path 699" d="M5.137-9.274a3.843,3.843,0,0,1,.631.039v-.631a4.051,4.051,0,0,1-.641.039H4.575v-.927a6.088,6.088,0,0,1,.049-.976h-.68a6.371,6.371,0,0,1,.049,1v.907h-.66a5.452,5.452,0,0,1-.749-.039v.631a5.675,5.675,0,0,1,.739-.039h.582A10.13,10.13,0,0,1,2.3-5.469a2.548,2.548,0,0,1,.434.522,10.182,10.182,0,0,0,1.331-3.44c-.03.641-.069,1.508-.069,1.686v2.81A7.678,7.678,0,0,1,3.935-2.8h.7a7.4,7.4,0,0,1-.059-1.094V-6.869c0-.394,0-.394-.039-1.567a8,8,0,0,0,.956,2.129,2.4,2.4,0,0,1,.345-.562A7.124,7.124,0,0,1,4.6-9.274ZM.879-11.118a6.132,6.132,0,0,1,1.4,1.262l.424-.453a7.079,7.079,0,0,0-1.41-1.242ZM.5-8.663a6.858,6.858,0,0,1,1.518,1.2l.394-.522A9.669,9.669,0,0,0,.879-9.116Zm1.3,2.189A9.9,9.9,0,0,1,.967-4.187a2.017,2.017,0,0,1-.453.7l.582.493c.049-.108.079-.168.2-.4A13.475,13.475,0,0,0,2.318-6.1ZM6.123-3.9a5.977,5.977,0,0,1-.059.956h.631v-.424H8.588v.453h.641a7.828,7.828,0,0,1-.059-1.035v-6.388a7.4,7.4,0,0,1,.039-.966,6.7,6.7,0,0,1-.927.039H7.05c-.434,0-.7-.01-.966-.03a8.686,8.686,0,0,1,.039.956ZM6.7-10.7H8.588v1.784H6.7Zm0,2.327H8.588v1.814H6.7Zm0,2.356H8.588v2.09H6.7Zm6.8,2.534h-.848V-8.407q0-.424.01-.68t.03-.532a3.926,3.926,0,0,1-.291.266q-.133.108-.32.276l-.749.611-.453-.582,1.9-1.479h.72Zm4.85-4.318a2.588,2.588,0,0,1,1.72.542,1.885,1.885,0,0,1,.646,1.528,2.2,2.2,0,0,1-.695,1.72,2.792,2.792,0,0,1-1.937.626,5.027,5.027,0,0,1-1.025-.1,2.7,2.7,0,0,1-.8-.286v-.818a3.01,3.01,0,0,0,.863.34,4.117,4.117,0,0,0,.971.123,2,2,0,0,0,1.257-.37,1.36,1.36,0,0,0,.478-1.148,1.331,1.331,0,0,0-.424-1.06,2.011,2.011,0,0,0-1.341-.37,4.643,4.643,0,0,0-.631.049q-.355.049-.572.1L16.435-7.2l.266-3.322H20.23v.789H17.44L17.273-7.7q.168-.03.453-.069A4.638,4.638,0,0,1,18.357-7.805Zm3.855,1.617a2.251,2.251,0,0,1,.473-.049c.207-.01.434-.02.67-.02.394-.01.394-.01,1.459-.059l1.015-.039v2.6a4.648,4.648,0,0,1-.059.956h.759a4.648,4.648,0,0,1-.059-.956V-6.4c1.479-.069,1.656-.089,3.046-.217.266.345.365.493.67.937l.513-.4a19.247,19.247,0,0,0-1.952-2.267l-.473.325a11.866,11.866,0,0,1,.838.9c-1.153.108-1.153.108-3.2.187.522-.483,1.469-1.449,1.853-1.9a7.09,7.09,0,0,1,.739-.838l-.621-.365a3.9,3.9,0,0,1-.582.8c-.306.365-.828.937-1.36,1.489a13.089,13.089,0,0,0-1.075-.907,14.4,14.4,0,0,0,1.617-1.972c.769-.089,1.912-.286,2.465-.414a6.757,6.757,0,0,1,.66-.148l-.453-.591c-.207.089-.335.138-.375.148a13.443,13.443,0,0,1-2.041.424,33.376,33.376,0,0,1-4.367.3,2.105,2.105,0,0,1,.266.591c1.311-.059,1.656-.079,3.026-.207A11.418,11.418,0,0,1,24.42-9.008c-.217-.168-.345-.266-.828-.6l-.453.4a18.653,18.653,0,0,1,2.4,1.853c-.2.2-.355.335-.453.434-.3.01-.582.01-.729.02-.375,0-.621.01-.73.01-.246.01-.394.01-.473.01a9.043,9.043,0,0,1-1.035-.059Zm1.952.355a6.444,6.444,0,0,1-2.277,2.149,2.1,2.1,0,0,1,.473.532A8.275,8.275,0,0,0,24.7-5.5Zm3.46.187a9.661,9.661,0,0,0,2.405,2.455,2.6,2.6,0,0,1,.463-.532,8.518,8.518,0,0,1-2.356-2.218ZM31.744-6.79c.128-.03.582-.079,1.479-.158v3.214a7,7,0,0,1-.059.976h.7a7.1,7.1,0,0,1-.059-.976V-7.007c.522-.069.66-.089.9-.128.069.207.1.3.177.591l.483-.227a8.165,8.165,0,0,0-.818-1.824l-.424.217a5.442,5.442,0,0,1,.4.789A13.4,13.4,0,0,1,33-7.441a27.475,27.475,0,0,0,1.676-2.553,1.9,1.9,0,0,1,.227-.345l-.582-.325a9.357,9.357,0,0,1-1.006,1.853c-.2-.266-.3-.384-.552-.68a13.3,13.3,0,0,0,.808-1.331,6.47,6.47,0,0,1,.375-.67l-.6-.3a7.553,7.553,0,0,1-.937,1.9c-.187-.207-.207-.217-.424-.444l-.325.453A10.81,10.81,0,0,1,33-8.318c-.237.365-.237.365-.631.917-.138,0-.315.01-.414.01a1.446,1.446,0,0,1-.306-.02Zm7.827-3.056a8.3,8.3,0,0,1,.887.049v-.651a5.771,5.771,0,0,1-.917.059H37.856v-.444a4.471,4.471,0,0,1,.059-.838h-.71a5.4,5.4,0,0,1,.059.838v.444H36a5.685,5.685,0,0,1-.917-.059V-9.8a5.241,5.241,0,0,1,.887-.049h.858a10.612,10.612,0,0,1-.946,1.725c-.168.01-.227.01-.3.01-.168,0-.266-.01-.444-.02l.118.641a6.377,6.377,0,0,1,.641-.069c1.794-.118,2.327-.158,3.6-.325.187.246.286.375.532.749l.483-.394a14.094,14.094,0,0,0-1.824-2.05l-.444.325a10.009,10.009,0,0,1,.858.887c-.789.1-1.607.168-2.563.217a11.712,11.712,0,0,0,.907-1.7Zm-7.394,3.48a7.979,7.979,0,0,1-.542,2.741l.522.266a9.118,9.118,0,0,0,.562-2.9Zm2.06.1a9.215,9.215,0,0,1,.444,2.021l.522-.207a13.13,13.13,0,0,0-.473-1.991Zm3.726-.907a5.875,5.875,0,0,1,.049.966v2.573c0,.532.187.651,1.075.651.66,0,.956-.079,1.114-.3a4,4,0,0,0,.335-1.873,1.751,1.751,0,0,1-.6-.266,6.013,6.013,0,0,1-.148,1.656c-.059.158-.246.217-.729.217-.375,0-.434-.039-.434-.286V-6.208a5.949,5.949,0,0,1,.049-.966Zm-1.666.02a3.093,3.093,0,0,1,.049.631,4.18,4.18,0,0,1-.424,2,3.066,3.066,0,0,1-1.36,1.232,1.774,1.774,0,0,1,.5.483,3.71,3.71,0,0,0,1.351-1.331,4.589,4.589,0,0,0,.532-2.248A4.221,4.221,0,0,1,37-7.155Z" transform="translate(5.593 14.05)" fill="#0b2257"/>
      <g id="Group_2444" data-name="Group 2444" transform="translate(0 23.951)">
        <text id="文化体育館前" transform="translate(0 8)" fill="#0b2257" font-size="9" font-family="PingFangSC-Semibold, PingFang SC" font-weight="600"><tspan x="0" y="0">文化体育館前</tspan></text>
        <text id="行-3" data-name="行" transform="translate(64.047 9)" fill="#0b2257" font-size="10" font-family="PingFangSC-Regular, PingFang SC"><tspan x="0" y="0">行</tspan></text>
      </g>
      <g id="Group_2443" data-name="Group 2443" transform="translate(0 44.175)">
        <text id="文化体育館前-2" data-name="文化体育館前" transform="translate(0 8)" fill="#0b2257" font-size="9" font-family="PingFangSC-Semibold, PingFang SC" font-weight="600"><tspan x="0" y="0">文化体育館前</tspan></text>
        <text id="行-4" data-name="行" transform="translate(64.047 9)" fill="#0b2257" font-size="10" font-family="PingFangSC-Regular, PingFang SC"><tspan x="0" y="0">行</tspan></text>
      </g>
      <path id="Path_700" data-name="Path 700" d="M.78-6.736a3.571,3.571,0,0,1,.6-.069c.375-.03.375-.03,1.1-.1v3.174a7.311,7.311,0,0,1-.059,1.015h.72a7.158,7.158,0,0,1-.059-1.006V-6.962c.375-.039.6-.069.68-.079a1.586,1.586,0,0,0,.246-.03c.1.256.128.345.227.66l.5-.227A10.679,10.679,0,0,0,3.876-8.51l-.453.177a8.288,8.288,0,0,1,.394.779c-.68.089-.858.1-1.6.148A21.587,21.587,0,0,0,4.043-9.9c.138-.2.2-.286.286-.4l-.582-.345A10.1,10.1,0,0,1,2.614-8.786c-.207-.246-.365-.424-.66-.72a15.113,15.113,0,0,0,.976-1.548,3.577,3.577,0,0,1,.227-.375L2.545-11.7A7.334,7.334,0,0,1,1.569-9.88c-.158-.158-.207-.2-.424-.4L.78-9.821a9.777,9.777,0,0,1,1.5,1.508c-.286.384-.384.513-.749.946-.158.01-.453.02-.5.02a2.247,2.247,0,0,1-.355-.03Zm7.877-2.7a27.609,27.609,0,0,1-.424,5.156c-.138.631-.246.749-.71.749A7.779,7.779,0,0,1,6.212-3.66a2.371,2.371,0,0,1,.168.68c.394.039.759.059,1.045.059.946,0,1.193-.207,1.42-1.153A24.691,24.691,0,0,0,9.268-8.54a14.839,14.839,0,0,1,.049-1.518,5.336,5.336,0,0,1-.8.039H6.055c.128-.315.207-.513.286-.73.177-.493.177-.493.256-.68l-.67-.168a6.172,6.172,0,0,1-.552,1.627,6.4,6.4,0,0,1-1.1,1.686,1.794,1.794,0,0,1,.513.384A7.668,7.668,0,0,0,5.788-9.437ZM1.342-6.262A7.294,7.294,0,0,1,.692-3.62l.542.256a8.73,8.73,0,0,0,.651-2.79Zm2.287.1a13,13,0,0,1,.5,2.376L4.7-3.975a15.691,15.691,0,0,0-.582-2.346ZM7.4-5.819A11.817,11.817,0,0,0,6-8.224l-.513.3A9.548,9.548,0,0,1,6.833-5.484Zm7.788-1.676A8.359,8.359,0,0,1,15.05-6a4.024,4.024,0,0,1-.483,1.331,2.567,2.567,0,0,1-.986.951,3.324,3.324,0,0,1-1.632.355q-.2,0-.463-.025a2.132,2.132,0,0,1-.424-.074V-4.2a2.736,2.736,0,0,0,.868.128A2.517,2.517,0,0,0,13.069-4.3a1.867,1.867,0,0,0,.715-.616,2.627,2.627,0,0,0,.384-.907,5.773,5.773,0,0,0,.138-1.089h-.059a1.955,1.955,0,0,1-.631.577,2.016,2.016,0,0,1-1.045.242,1.979,1.979,0,0,1-1.464-.557,2.126,2.126,0,0,1-.557-1.572A2.731,2.731,0,0,1,10.826-9.5a1.942,1.942,0,0,1,.784-.818A2.381,2.381,0,0,1,12.8-10.6a2.235,2.235,0,0,1,1.213.34,2.305,2.305,0,0,1,.858,1.025A4.171,4.171,0,0,1,15.183-7.495ZM12.8-9.87a1.328,1.328,0,0,0-1,.4,1.717,1.717,0,0,0-.389,1.232,1.6,1.6,0,0,0,.33,1.07,1.264,1.264,0,0,0,1.02.389,1.655,1.655,0,0,0,.818-.192,1.49,1.49,0,0,0,.537-.488,1.107,1.107,0,0,0,.192-.611,2.216,2.216,0,0,0-.168-.838,1.709,1.709,0,0,0-.5-.69A1.274,1.274,0,0,0,12.8-9.87ZM19.56-7.524a4.773,4.773,0,0,1-.532,2.031,5.023,5.023,0,0,1-2.484,2.159,2.06,2.06,0,0,1,.434.552,5.785,5.785,0,0,0,2.484-2.149,5.614,5.614,0,0,0,.769-2.593h2.3A14.033,14.033,0,0,1,22.2-3.877c-.069.187-.177.246-.493.246a7.6,7.6,0,0,1-1.39-.168,2.733,2.733,0,0,1,.158.7c.621.059.966.079,1.291.079.572,0,.808-.1.976-.394a12.53,12.53,0,0,0,.444-4.042,4.355,4.355,0,0,1,.039-.7,7.459,7.459,0,0,1-1.035.049H18.949a7.567,7.567,0,0,1-1.025-.059v.7a7.939,7.939,0,0,1,1.015-.059Zm-.4-4.091a3.171,3.171,0,0,1-.424,1.035,8.123,8.123,0,0,1-2.7,2.888,2.17,2.17,0,0,1,.483.532,9.785,9.785,0,0,0,3.105-3.7,2.69,2.69,0,0,1,.276-.5Zm2.189.276c.049.079.108.187.158.276A9.987,9.987,0,0,0,24.824-7.1a2.432,2.432,0,0,1,.463-.6,8.221,8.221,0,0,1-2.908-3.066A3.991,3.991,0,0,1,22-11.6Z" transform="translate(82.295 56.274)" fill="#0b2257"/>
    </g>
    <path id="Path_678" data-name="Path 678" d="M-19064-10609.105l13.191,10.553,13.193-10.553" transform="translate(-1067.2 -1995.964)" fill="none" stroke="#545e67" stroke-width="1"/>
    <path id="Path_680" data-name="Path 680" d="M-19064-10609.105l13.191,10.553,13.193-10.553" transform="translate(-1067.2 -1942.291)" fill="none" stroke="#545e67" stroke-width="1"/>
    <g id="Group_2663" data-name="Group 2663" transform="translate(-19995.578 -12791.086)">
      <path id="Path_709" data-name="Path 709" d="M-34.787-14.4v1.577h-1.929a13.21,13.21,0,0,1-1.648-.07,16.836,16.836,0,0,1,.085,1.7V-5.5a15.531,15.531,0,0,1-.085,1.817h1.577V-4.5h8.239v.817h1.577a14.157,14.157,0,0,1-.084-1.8v-5.7a15.568,15.568,0,0,1,.07-1.7,13.629,13.629,0,0,1-1.648.07h-2.1V-14.4h2.8a14.889,14.889,0,0,1,1.634.084V-15.92a13.26,13.26,0,0,1-1.648.084h-9.436a13.508,13.508,0,0,1-1.662-.084v1.605a14.7,14.7,0,0,1,1.634-.084Zm1.436,0h1.225v1.577H-33.35V-14.4Zm-1.493,3.014a4.219,4.219,0,0,1-.648,2.31,3.463,3.463,0,0,1-1.3,1.084v-3.394Zm2.718,0v2.45c0,.986.338,1.225,1.7,1.225,1.014,0,1.451-.183,1.662-.676a3.317,3.317,0,0,0,.183-1.056c.014-.225.014-.225.028-.239v3.732h-8.239V-7.907a4.353,4.353,0,0,1,1.07,1.028,4.515,4.515,0,0,0,1.69-1.774,6.354,6.354,0,0,0,.62-2.732Zm1.394,0h2.183v1.507A2.982,2.982,0,0,1-29.7-10.23c0,1.1-.014,1.141-.549,1.141-.422,0-.479-.028-.479-.3Zm8.351,7.337V-5.076h7.6v1.028h1.76A15.848,15.848,0,0,1-13.1-5.837V-13.92a12.329,12.329,0,0,1,.07-1.549,12.952,12.952,0,0,1-1.577.07h-7.957a12.569,12.569,0,0,1-1.563-.07c.042.493.07.929.07,1.549v8.084a12.312,12.312,0,0,1-.1,1.789Zm0-9.76h7.6v7.126h-7.6Z" transform="translate(39.039 15.92)" fill="#0b2257"/>
      <path id="Path_710" data-name="Path 710" d="M.77-6.457A8.359,8.359,0,0,1,.9-7.95a4.024,4.024,0,0,1,.483-1.331,2.576,2.576,0,0,1,.981-.951,3.3,3.3,0,0,1,1.627-.355q.207,0,.458.02a1.908,1.908,0,0,1,.409.069v.739a2.169,2.169,0,0,0-.4-.089,3.428,3.428,0,0,0-.444-.03,2.524,2.524,0,0,0-1.134.227,1.806,1.806,0,0,0-.715.621,2.743,2.743,0,0,0-.38.907,6.282,6.282,0,0,0-.148,1.094H1.7a1.909,1.909,0,0,1,.631-.587,1.994,1.994,0,0,1,1.035-.242A2.009,2.009,0,0,1,4.841-7.3,2.129,2.129,0,0,1,5.4-5.718,2.4,2.4,0,0,1,4.8-3.983a2.157,2.157,0,0,1-1.632.631,2.26,2.26,0,0,1-1.213-.335A2.3,2.3,0,0,1,1.09-4.712,4.149,4.149,0,0,1,.77-6.457ZM3.156-4.081a1.333,1.333,0,0,0,1.006-.4,1.728,1.728,0,0,0,.384-1.237,1.575,1.575,0,0,0-.34-1.065,1.274,1.274,0,0,0-1.02-.394,1.634,1.634,0,0,0-.808.192,1.473,1.473,0,0,0-.537.493,1.116,1.116,0,0,0-.192.606,2.254,2.254,0,0,0,.168.843,1.666,1.666,0,0,0,.5.69A1.289,1.289,0,0,0,3.156-4.081Zm7.265-5.038H9.268a7.943,7.943,0,0,0-.71-1.213l-.522.227a6.112,6.112,0,0,1,.611.986H7.533a6.454,6.454,0,0,1-1-.059v.641a6.911,6.911,0,0,1,1-.059H9.839A8.767,8.767,0,0,1,6.32-6.674a1.619,1.619,0,0,1,.355.552c.5-.2.7-.286,1.124-.493,0,.148.01.355.01.552v2.455a6.221,6.221,0,0,1-.059.917H8.39v-.532H13.2v.532h.641a5.908,5.908,0,0,1-.059-.927V-6.072c0-.246,0-.325.01-.552.365.168.424.2,1.232.513A2.112,2.112,0,0,1,15.37-6.7,9.286,9.286,0,0,1,11.584-8.6h2.425a6.911,6.911,0,0,1,1,.059v-.641a5.4,5.4,0,0,1-1,.059H12.826a9.516,9.516,0,0,0,.759-1.262l-.6-.227A6.964,6.964,0,0,1,12.2-9.119H11.013v-1.489c.808-.089,2.09-.276,2.81-.424.1-.02.168-.03.207-.039l.187-.03-.444-.562a21.211,21.211,0,0,1-5.787.68c-.207,0-.414,0-.808-.01a1.926,1.926,0,0,1,.266.572c1-.01,2-.059,2.977-.128ZM8.578-6.851H8.272a7.494,7.494,0,0,0,2.189-1.686,2.716,2.716,0,0,0-.039.384v.345a4.63,4.63,0,0,1-.039.67h.66a5.807,5.807,0,0,1-.03-.67v-.355c0-.049-.01-.089-.02-.227-.01-.069-.01-.1-.02-.158a8.247,8.247,0,0,0,2.346,1.7H8.578Zm-.187.513h2.041v1.006H8.39Zm0,1.508h2.041v1.084H8.39ZM11-6.339h2.2v1.006H11Zm.01,1.508h2.179v1.084H11.013ZM18.7-10.617a1.089,1.089,0,0,1,.01.158,7.819,7.819,0,0,1-.1.927A11.416,11.416,0,0,1,17.6-6.112,6.337,6.337,0,0,1,16.168-4.16a2.158,2.158,0,0,1,.631.513A10.581,10.581,0,0,0,19.4-9.8a3.579,3.579,0,0,1,.128-.67Zm2.829.148a4.285,4.285,0,0,1,.128.651,11.844,11.844,0,0,0,2.681,6.191,2.132,2.132,0,0,1,.611-.552,8.7,8.7,0,0,1-2.238-4.071,11.913,11.913,0,0,1-.453-2.366Zm1.282-.424a7.436,7.436,0,0,1,.976,1.587l.5-.286a7.3,7.3,0,0,0-.986-1.548Zm1.134-.5a7.726,7.726,0,0,1,.976,1.567l.493-.266a7.556,7.556,0,0,0-.986-1.558ZM34.465-3.983A24.516,24.516,0,0,0,31.182-6.94,11.921,11.921,0,0,0,32.809-9.7a1.84,1.84,0,0,1,.276-.483l-.414-.424a1.838,1.838,0,0,1-.631.079l-3.519.039h-.256a4.633,4.633,0,0,1-.779-.049l.02.8a6.633,6.633,0,0,1,1.015-.079l3.293-.049a1.675,1.675,0,0,0,.237-.01.209.209,0,0,1-.03.069c-.02.049-.03.059-.049.118a10.685,10.685,0,0,1-3.519,4.446,7.935,7.935,0,0,1-2,1.134,2.194,2.194,0,0,1,.483.651,12.7,12.7,0,0,0,1.932-1.183,10.7,10.7,0,0,0,1.883-1.765A18.335,18.335,0,0,1,33.9-3.361Zm6.713-6.773H39.473a6.328,6.328,0,0,1-.956-.059v.641a6.658,6.658,0,0,1,.927-.049h4.328a6.719,6.719,0,0,1,.937.049v-.641a6.524,6.524,0,0,1-.976.059H41.8v-.207a4.02,4.02,0,0,1,.049-.66h-.729a3.151,3.151,0,0,1,.059.66Zm.168,5.412v1.686c0,.2-.079.246-.414.246a7.17,7.17,0,0,1-1.144-.108,2.254,2.254,0,0,1,.138.631c.375.03.621.039,1.055.039.779,0,.986-.148.986-.72V-5.343h.966a7.612,7.612,0,0,1,.986.049v-.631a5.728,5.728,0,0,1-.966.049H40.035a6.981,6.981,0,0,1-.956-.049v.631a7.369,7.369,0,0,1,.966-.049ZM37-3.845a9.807,9.807,0,0,1-.059,1.183h.72a9.843,9.843,0,0,1-.049-1.153V-9.158c.335-.858.394-1.015.522-1.41.177-.572.177-.572.3-.9l-.68-.177a8.581,8.581,0,0,1-.7,2.2,9.025,9.025,0,0,1-1.39,2.189,1.975,1.975,0,0,1,.384.532,8.931,8.931,0,0,0,1-1.528c-.03.493-.039.828-.039,1.213Zm2.2-4.594a5,5,0,0,1-.039.67,7.79,7.79,0,0,1,.927-.039h2.888a7.456,7.456,0,0,1,.937.039,4.289,4.289,0,0,1-.039-.621V-9.04a4.9,4.9,0,0,1,.039-.67A7.712,7.712,0,0,1,43-9.661H40.074a7.767,7.767,0,0,1-.917-.049,5.5,5.5,0,0,1,.039.69Zm.582-.73h3.509V-8.3H39.779ZM38.26-6.26a3.643,3.643,0,0,1-.039.591h.631V-6.674h5.294v1.015H44.8a3.643,3.643,0,0,1-.039-.591v-.335a6.229,6.229,0,0,1,.03-.66,10.222,10.222,0,0,1-1.134.049H39.167c-.444,0-.66-.01-.937-.03a5.835,5.835,0,0,1,.03.641Z" transform="translate(35.007 13.957)" fill="#0b2257"/>
    </g>
    <g id="Group_2666" data-name="Group 2666" transform="translate(-20007.303 -12739.034)">
      <g id="Group_2665" data-name="Group 2665" transform="translate(0 103.313)">
        <path id="Path_701" data-name="Path 701" d="M10.434-3.726a28.9,28.9,0,0,0-2.76-4.2l-1.1.62A16.806,16.806,0,0,1,8-5.3a34.842,34.842,0,0,1-4.078.372A35.536,35.536,0,0,0,6.028-9.269c.113-.27.158-.361.225-.5l-1.487-.383A9.067,9.067,0,0,1,4.113-8.21,29.652,29.652,0,0,1,2.457-4.875c-.315.011-.383.011-.642.011-.315,0-.575-.011-.822-.034l.225,1.442A8.408,8.408,0,0,1,2.536-3.58a58.65,58.65,0,0,0,6.1-.62c.2.383.3.575.586,1.183Zm-6.67-9.419a4.234,4.234,0,0,1-.6,1.4A8.974,8.974,0,0,1,.384-8.841,5.244,5.244,0,0,1,1.24-7.669,11.76,11.76,0,0,0,2.975-9.292a13.117,13.117,0,0,0,1.87-2.76,1.738,1.738,0,0,1,.146-.293.99.99,0,0,0,.056-.113,1.647,1.647,0,0,1,.1-.169Zm2.569.518.09.18a1.981,1.981,0,0,1,.113.225c.056.124.1.2.124.259a11.677,11.677,0,0,0,1.037,1.7,12.035,12.035,0,0,0,2.6,2.6A5.683,5.683,0,0,1,11.132-8.9a10.987,10.987,0,0,1-1.07-.766,9.334,9.334,0,0,1-1.239-1.273,7.28,7.28,0,0,1-1.251-2.219Zm10.016,2.084v.462H14.512a4.67,4.67,0,0,1-.9-.056v.98a5.237,5.237,0,0,1,.879-.056h5.07a4.883,4.883,0,0,1,.856.056v-.98a4.482,4.482,0,0,1-.879.056H17.52v-.462h1.589a6.419,6.419,0,0,1,.9.045v-.935a4.814,4.814,0,0,1-.9.056H17.52a2.951,2.951,0,0,1,.045-.451H16.3c.023.146.034.27.045.451H15a4.985,4.985,0,0,1-.946-.056v.935a7.291,7.291,0,0,1,.935-.045Zm5.566,7.571a10.9,10.9,0,0,1-.068-1.465v-7.323a11.516,11.516,0,0,1,.056-1.352,10.79,10.79,0,0,1-1.318.056H13.431a10.678,10.678,0,0,1-1.318-.056,12.466,12.466,0,0,1,.068,1.352v7.312a12.993,12.993,0,0,1-.068,1.476h1.251v-.462h7.3v.462Zm-8.551-9.081h7.289v7.627H13.363V-5.6a3.107,3.107,0,0,1,.71.834,8.588,8.588,0,0,0,2.073-1.363c0,.09-.011.293-.011.361v.484a3.661,3.661,0,0,1-.045.642h1.217a3.5,3.5,0,0,1-.045-.642v-.484c0-.192,0-.192-.011-.394A7.676,7.676,0,0,0,19.774-4.6a8,8,0,0,1,.721-.924,8.162,8.162,0,0,1-1.138-.361,6.326,6.326,0,0,0,.665-.518,2.194,2.194,0,0,1,.2-.192l-.473-.27a3.942,3.942,0,0,1-.023-.6v-.822a4.372,4.372,0,0,1,.023-.608,6.278,6.278,0,0,1-.744.023H15.019a6.382,6.382,0,0,1-.744-.023,3.411,3.411,0,0,1,.034.608v.822a4.689,4.689,0,0,1-.034.608c.237-.011.237-.011.744-.023h.653a6.208,6.208,0,0,1-1.3.834c-.2.1-.541.237-1.014.417Zm5.644,5.171h.225a5.486,5.486,0,0,1-.665.6,5.694,5.694,0,0,1-.868-.6ZM15.436-8.075h3.155v.394H15.436Zm10.658-1.5V-6.9a18.486,18.486,0,0,1-2.05.935,4.58,4.58,0,0,1-.958.293L23.5-4.334c.113-.056.3-.146.5-.225.8-.361,1.42-.653,2.1-1.037V-4.4a10.534,10.534,0,0,1-.068,1.363h1.408a8.325,8.325,0,0,1-.068-1.352V-12a7.81,7.81,0,0,1,.068-1.284H26.026A9.547,9.547,0,0,1,26.094-12v1.239H24.4a5.009,5.009,0,0,1-1.059-.068v1.318A5.4,5.4,0,0,1,24.4-9.573Zm3.921,1.194c.8-.439.8-.439,1.262-.721.518-.327,1.465-.98,1.791-1.239.18-.146.248-.2.361-.282l-.89-1.059a10.323,10.323,0,0,1-2.524,1.927v-2.231a8.213,8.213,0,0,1,.068-1.3H28.7a9.169,9.169,0,0,1,.068,1.3V-4.5c0,.53.135.822.473.98a3.682,3.682,0,0,0,1.634.18,8.935,8.935,0,0,0,1.149-.045,1.68,1.68,0,0,0,.822-.327c.383-.338.586-1.16.653-2.681a6.124,6.124,0,0,1-1.194-.5,6.711,6.711,0,0,1-.2,2.073c-.135.259-.383.327-1.172.327-.766,0-.913-.056-.913-.338Z" transform="translate(-0.385 13.28)" fill="#0b2257"/>
        <path id="Path_702" data-name="Path 702" d="M5.811-4.042a2.735,2.735,0,0,1-1.528-1.39c.059-.227.089-.375.128-.562a7.741,7.741,0,0,1,.217-.976L3.948-7.1A5.176,5.176,0,0,1,3.8-5.984,6.164,6.164,0,0,1,2.43-3.1a1.677,1.677,0,0,1,.522.414,6.815,6.815,0,0,0,1.124-2.11C4.9-3.529,6.1-3.066,8.572-3.066c.168,0,.434,0,.779-.01a2.648,2.648,0,0,1,.207-.68c-.651.03-.966.039-1.321.039a9.563,9.563,0,0,1-1.814-.138V-5.806H7.97a8.34,8.34,0,0,1,.9.049v-.66a6.223,6.223,0,0,1-.9.049H6.423v-1.42h2.1a9.273,9.273,0,0,1,.937.049v-.651a8.678,8.678,0,0,1-.937.049H6.432V-9.779H7.941a5.941,5.941,0,0,1,.917.049v-.651a5.7,5.7,0,0,1-.927.049h-1.5v-.246a4.853,4.853,0,0,1,.059-1.006H5.752a4.149,4.149,0,0,1,.079,1.015v.237H4.461a5.444,5.444,0,0,1-.9-.049v.651a5.743,5.743,0,0,1,.9-.049h1.37V-8.34H3.988a8.485,8.485,0,0,1-.927-.049v.651c.306-.03.6-.049.927-.049H5.811Zm-3.273-7.62a4.115,4.115,0,0,1-.917,1.134A6.966,6.966,0,0,1,.409-9.6a2.042,2.042,0,0,1,.4.493A9.234,9.234,0,0,0,2.8-10.932c.217-.256.217-.266.3-.345ZM1.651-3.835a8.788,8.788,0,0,1-.059,1.144h.72a8.9,8.9,0,0,1-.049-1.134V-7.778c.286-.365.463-.611.621-.858a2.867,2.867,0,0,1,.276-.424L2.588-9.4a3.751,3.751,0,0,1-.463.848A7.341,7.341,0,0,1,.35-6.713,1.664,1.664,0,0,1,.7-6.161a5.305,5.305,0,0,0,.976-1.015c-.03.513-.03.779-.03,1.183ZM15.3-8.586V-9.9h2.2a5.7,5.7,0,0,1,.927.049v-.66a5.908,5.908,0,0,1-.927.059H15.3v-.286a4.577,4.577,0,0,1,.059-.9h-.739a5.858,5.858,0,0,1,.059.917v2.129H12.87v-1.39a4.785,4.785,0,0,1,.059-.877H12.2a5.757,5.757,0,0,1,.059.877v1.39h-.651a7.791,7.791,0,0,1-1.065-.059v.69a7.892,7.892,0,0,1,1.065-.059h3.056v2.248c0,.168-.079.207-.4.207a5.941,5.941,0,0,1-1.1-.108,2.279,2.279,0,0,1,.158.631c.355.03.71.039,1,.039.71,0,1-.187,1-.66V-8.014h2.938a7.311,7.311,0,0,1,1.015.059v-.69a7.021,7.021,0,0,1-1.015.059ZM16.5-7.275a10.467,10.467,0,0,0,2.445,2.021,3.243,3.243,0,0,1,.453-.513A7.374,7.374,0,0,1,17.02-7.6Zm-3.7-.315a5.548,5.548,0,0,1-2.356,2.2,2.794,2.794,0,0,1,.483.483,7.7,7.7,0,0,0,2.425-2.356ZM17.06-6.112a4.55,4.55,0,0,1-1.6,1.5A8.553,8.553,0,0,1,10.987-3.4a2.256,2.256,0,0,1,.315.66,9.007,9.007,0,0,0,5.343-1.981,12.811,12.811,0,0,0,1-.956ZM24.946-3.45H20.293v-.72l1.843-1.863q.522-.532.892-.946a3.471,3.471,0,0,0,.557-.808,2.019,2.019,0,0,0,.187-.877,1.107,1.107,0,0,0-.345-.882,1.316,1.316,0,0,0-.9-.3,2.147,2.147,0,0,0-.907.177,4.061,4.061,0,0,0-.789.493l-.463-.582a4.1,4.1,0,0,1,.951-.587,2.914,2.914,0,0,1,1.208-.242,2.276,2.276,0,0,1,1.558.5,1.731,1.731,0,0,1,.572,1.37,2.406,2.406,0,0,1-.227,1.035,4.287,4.287,0,0,1-.631.956q-.4.473-.946,1L21.387-4.278v.039h3.559Zm4.377-4.062a4.773,4.773,0,0,1-.532,2.031,5.023,5.023,0,0,1-2.484,2.159,2.06,2.06,0,0,1,.434.552,5.785,5.785,0,0,0,2.484-2.149,5.614,5.614,0,0,0,.769-2.593h2.3a14.033,14.033,0,0,1-.325,3.648c-.069.187-.177.246-.493.246a7.6,7.6,0,0,1-1.39-.168,2.732,2.732,0,0,1,.158.7c.621.059.966.079,1.291.079.572,0,.808-.1.976-.394a12.53,12.53,0,0,0,.444-4.042,4.355,4.355,0,0,1,.039-.7,7.459,7.459,0,0,1-1.035.049H28.712a7.566,7.566,0,0,1-1.025-.059v.7A7.939,7.939,0,0,1,28.7-7.512Zm-.4-4.091a3.171,3.171,0,0,1-.424,1.035,8.123,8.123,0,0,1-2.7,2.888,2.17,2.17,0,0,1,.483.532,9.785,9.785,0,0,0,3.105-3.7,2.69,2.69,0,0,1,.276-.5Zm2.189.276c.049.079.108.187.158.276a9.987,9.987,0,0,0,3.322,3.963,2.432,2.432,0,0,1,.463-.6,8.221,8.221,0,0,1-2.908-3.066,3.991,3.991,0,0,1-.375-.828Z" transform="translate(41.169 12.801)" fill="#0b2257"/>
      </g>
      <g id="Group_2664" data-name="Group 2664" transform="translate(0)">
        <path id="Path_703" data-name="Path 703" d="M0,0H52.107V13.379H0Z" fill="#becbd9"/>
        <path id="Path_704" data-name="Path 704" d="M4.07-8.1a5.874,5.874,0,0,1,.966-.049h.72a6.2,6.2,0,0,1-.394.818H4.721a5.719,5.719,0,0,1-.976-.049v.591a5.719,5.719,0,0,1,.976-.049h.325a4.734,4.734,0,0,1-1.508,1.36,1.509,1.509,0,0,1,.4.424A5.925,5.925,0,0,0,5.657-6.839H7.442A6.012,6.012,0,0,0,9.236-5.114a2.642,2.642,0,0,1,.375-.473A4.892,4.892,0,0,1,8.043-6.839h.414c.453,0,.71.01.966.03v-.572a5.584,5.584,0,0,1-.966.049H7.688a3.976,3.976,0,0,1-.414-.818H8.2c.453,0,.71.01.966.03v-.552a5.444,5.444,0,0,1-.966.049H7.885a6.613,6.613,0,0,0,.582-.946l-.532-.207A4.07,4.07,0,0,1,7.3-8.624H6.466c.079-.276.108-.375.138-.5.128-.552.128-.552.168-.71l-.66-.03a4.564,4.564,0,0,1-.2,1.242H5.519A6.959,6.959,0,0,0,4.9-9.8l-.473.207a4.909,4.909,0,0,1,.582.966,4.792,4.792,0,0,1-.937-.049ZM6.751-8.15a6.113,6.113,0,0,0,.384.818h-1.2A7.231,7.231,0,0,0,6.3-8.15Zm-3.49-2.79H1.724a7.007,7.007,0,0,1-1-.059v.651a7.2,7.2,0,0,1,1-.059H3.262a5.094,5.094,0,0,1-.039.631h.67a3.549,3.549,0,0,1-.039-.631H6.19a2.946,2.946,0,0,1-.039.365h.68a2.559,2.559,0,0,1-.039-.365H8.447a7.2,7.2,0,0,1,1,.059V-11a7.007,7.007,0,0,1-1,.059H6.791v-.108a3.5,3.5,0,0,1,.039-.621H6.15a3.948,3.948,0,0,1,.039.621v.108H3.853v-.108a3.641,3.641,0,0,1,.039-.621h-.67a5.337,5.337,0,0,1,.039.621Zm-.286,5.5v1.666c0,.237-.069.3-.306.3a3.95,3.95,0,0,1-.779-.1,1.919,1.919,0,0,1,.118.611,5.414,5.414,0,0,0,.69.049c.641,0,.828-.177.828-.779v-4.83a8.142,8.142,0,0,1,.039-1,4,4,0,0,1-.818.049h-.71a4.916,4.916,0,0,1-.868-.049,12.392,12.392,0,0,1,.049,1.39A19.212,19.212,0,0,1,.965-4.513a3.763,3.763,0,0,1-.5,1.262,1.586,1.586,0,0,1,.5.453,6.055,6.055,0,0,0,.7-2.642ZM1.7-5.942c.03-.4.049-.749.059-1.282H2.976v1.282Zm.069-1.784V-8.959h1.2v1.232ZM4.809-5.587a3.477,3.477,0,0,1,.72.808l.394-.315a4.193,4.193,0,0,0-.72-.779Zm1.025.858a6.33,6.33,0,0,1-2.021.9l.315.542A4.075,4.075,0,0,1,4.573-3.5a9.981,9.981,0,0,0,1.439-.779Zm1.153.4a8.1,8.1,0,0,0,1.8,1.134,2.221,2.221,0,0,1,.365-.483A6.125,6.125,0,0,1,7.343-4.7Zm.789-1.627a3,3,0,0,1-.71.858l.375.325a6.8,6.8,0,0,0,.769-.877Zm-1.015.158a3.254,3.254,0,0,1,.049-.641H6.15a3.484,3.484,0,0,1,.049.651v2.06c0,.246-.039.3-.256.3A3.749,3.749,0,0,1,5.1-3.537a1.764,1.764,0,0,1,.118.6,6.151,6.151,0,0,0,.71.049c.7,0,.838-.128.838-.808ZM14.855-8.88a1.568,1.568,0,0,1-.4,1.129,1.979,1.979,0,0,1-1.06.557v.039a2.016,2.016,0,0,1,1.257.532,1.563,1.563,0,0,1,.419,1.134,2.074,2.074,0,0,1-.286,1.094,1.891,1.891,0,0,1-.882.739,3.785,3.785,0,0,1-1.533.266,5.887,5.887,0,0,1-1.025-.084,3.308,3.308,0,0,1-.907-.3v-.808a4.135,4.135,0,0,0,.956.345,4.382,4.382,0,0,0,.986.118,2.044,2.044,0,0,0,1.365-.37,1.29,1.29,0,0,0,.419-1.02,1.007,1.007,0,0,0-.518-.951,3,3,0,0,0-1.454-.291h-.68V-7.49h.69a2.046,2.046,0,0,0,1.316-.365,1.183,1.183,0,0,0,.449-.966.965.965,0,0,0-.345-.794,1.44,1.44,0,0,0-.937-.281,2.546,2.546,0,0,0-.976.168,4.933,4.933,0,0,0-.8.424L10.478-9.9a3.608,3.608,0,0,1,.932-.513,3.471,3.471,0,0,1,1.267-.217,2.362,2.362,0,0,1,1.641.493A1.625,1.625,0,0,1,14.855-8.88Zm6.22,3.8H20.05v1.6h-.838v-1.6H15.841v-.739l3.312-4.742h.9v4.7h1.025Zm-1.863-.779V-8.081q0-.513.015-.872t.035-.685h-.039a4.491,4.491,0,0,1-.2.4,3.272,3.272,0,0,1-.227.365l-2.11,3.007ZM22.2-6.189a2.251,2.251,0,0,1,.473-.049c.207-.01.434-.02.67-.02.394-.01.394-.01,1.459-.059l1.015-.039v2.6a4.648,4.648,0,0,1-.059.956h.759a4.649,4.649,0,0,1-.059-.956V-6.4c1.479-.069,1.656-.089,3.046-.217.266.345.365.493.67.937l.513-.4a19.247,19.247,0,0,0-1.952-2.267l-.473.325a11.867,11.867,0,0,1,.838.9c-1.153.108-1.153.108-3.2.187.522-.483,1.469-1.449,1.853-1.9a7.09,7.09,0,0,1,.739-.838l-.621-.365a3.9,3.9,0,0,1-.582.8c-.306.365-.828.937-1.36,1.489a13.089,13.089,0,0,0-1.075-.907,14.4,14.4,0,0,0,1.617-1.972c.769-.089,1.912-.286,2.465-.414a6.757,6.757,0,0,1,.66-.148l-.453-.591c-.207.089-.335.138-.375.148a13.443,13.443,0,0,1-2.041.424,33.376,33.376,0,0,1-4.367.3,2.105,2.105,0,0,1,.266.591c1.311-.059,1.656-.079,3.026-.207a11.418,11.418,0,0,1-1.242,1.528c-.217-.168-.345-.266-.828-.6l-.453.4a18.653,18.653,0,0,1,2.4,1.853c-.2.2-.355.335-.453.434-.3.01-.582.01-.73.02-.375,0-.621.01-.73.01-.246.01-.394.01-.473.01A9.043,9.043,0,0,1,22.1-6.938Zm1.952.355a6.444,6.444,0,0,1-2.277,2.149,2.1,2.1,0,0,1,.473.532A8.275,8.275,0,0,0,24.683-5.5Zm3.46.187a9.661,9.661,0,0,0,2.405,2.455,2.6,2.6,0,0,1,.463-.532,8.518,8.518,0,0,1-2.356-2.218ZM31.732-6.79c.128-.03.582-.079,1.479-.158v3.214a7,7,0,0,1-.059.976h.7a7.1,7.1,0,0,1-.059-.976V-7.007c.522-.069.66-.089.9-.128.069.207.1.3.177.591l.483-.227a8.165,8.165,0,0,0-.818-1.824l-.424.217a5.442,5.442,0,0,1,.4.789,13.4,13.4,0,0,1-1.528.148A27.475,27.475,0,0,0,34.66-9.994a1.9,1.9,0,0,1,.227-.345l-.582-.325A9.357,9.357,0,0,1,33.3-8.811c-.2-.266-.3-.384-.552-.68a13.305,13.305,0,0,0,.808-1.331,6.469,6.469,0,0,1,.375-.67l-.6-.3a7.553,7.553,0,0,1-.937,1.9c-.187-.207-.207-.217-.424-.444l-.325.453a10.81,10.81,0,0,1,1.341,1.558c-.237.365-.237.365-.631.917-.138,0-.315.01-.414.01a1.446,1.446,0,0,1-.306-.02Zm7.827-3.056a8.3,8.3,0,0,1,.887.049v-.651a5.771,5.771,0,0,1-.917.059H37.844v-.444a4.471,4.471,0,0,1,.059-.838h-.71a5.4,5.4,0,0,1,.059.838v.444H35.991a5.685,5.685,0,0,1-.917-.059V-9.8a5.241,5.241,0,0,1,.887-.049h.858a10.612,10.612,0,0,1-.946,1.725c-.168.01-.227.01-.3.01-.168,0-.266-.01-.444-.02l.118.641a6.377,6.377,0,0,1,.641-.069c1.794-.118,2.327-.158,3.6-.325.187.246.286.375.532.749l.483-.394a14.094,14.094,0,0,0-1.824-2.05l-.444.325a10.009,10.009,0,0,1,.858.887c-.789.1-1.607.168-2.563.217a11.713,11.713,0,0,0,.907-1.7Zm-7.394,3.48a7.979,7.979,0,0,1-.542,2.741l.522.266a9.118,9.118,0,0,0,.562-2.9Zm2.06.1a9.215,9.215,0,0,1,.444,2.021l.522-.207a13.13,13.13,0,0,0-.473-1.991Zm3.726-.907A5.874,5.874,0,0,1,38-6.208v2.573c0,.532.187.651,1.075.651.66,0,.956-.079,1.114-.3a4,4,0,0,0,.335-1.873,1.751,1.751,0,0,1-.6-.266,6.014,6.014,0,0,1-.148,1.656c-.059.158-.246.217-.729.217-.375,0-.434-.039-.434-.286V-6.208a5.949,5.949,0,0,1,.049-.966Zm-1.666.02a3.093,3.093,0,0,1,.049.631,4.18,4.18,0,0,1-.424,2,3.066,3.066,0,0,1-1.36,1.232,1.774,1.774,0,0,1,.5.483A3.71,3.71,0,0,0,36.4-4.138a4.589,4.589,0,0,0,.532-2.248,4.221,4.221,0,0,1,.049-.769Z" transform="translate(5.497 14.05)" fill="#0b2257"/>
        <path id="Path_705" data-name="Path 705" d="M4.319-3.051c.138-.108.138-.108.779-.562a2.252,2.252,0,0,1,.158.828c.306.03.542.039.72.039.868,0,1.075-.187,1.075-1.025v-2a3.386,3.386,0,0,1,.039-.552H6.083a3.429,3.429,0,0,1,.039.562v1.873c0,.227-.039.266-.256.266a4.032,4.032,0,0,1-.66-.069,6.721,6.721,0,0,0,.779-.621L5.61-4.924l.4-.325a9.133,9.133,0,0,0-.611-.7,5.453,5.453,0,0,0,.473-.67H7.454a6.17,6.17,0,0,0,.424.572,3.454,3.454,0,0,1-.739.73l.434.483-.424.375A6.323,6.323,0,0,0,8.784-2.992a5.15,5.15,0,0,1,.68-.739A4.569,4.569,0,0,1,7.927-4.895a6.908,6.908,0,0,0,.542-.532,3.575,3.575,0,0,0,.69.542,3.27,3.27,0,0,1,.591-.808A4.143,4.143,0,0,1,8.5-6.62h.079c.444,0,.68.01.937.03V-7.5a7.456,7.456,0,0,1-.937.039H7.9a3.66,3.66,0,0,1-.276-.572h.72c.444,0,.68.01.927.03v-.868a7.3,7.3,0,0,1-.966.039A6.359,6.359,0,0,0,8.755-9.6l-.868-.286a4.171,4.171,0,0,1-.513,1.055H6.823l.049-.2a6.786,6.786,0,0,1,.168-.7L6.024-9.765a3.207,3.207,0,0,1-.138.937H5.659a6.958,6.958,0,0,0-.522-1.055l-.769.306a3.954,3.954,0,0,1,.444.749,5.459,5.459,0,0,1-.651-.039v.877a7.18,7.18,0,0,1,.927-.039H5.63a5.946,5.946,0,0,1-.256.572H4.851A7.456,7.456,0,0,1,3.914-7.5v.917a6.356,6.356,0,0,1,.917-.039,4.322,4.322,0,0,1-1.094.976v-3c0-.444.01-.69.03-.927a5.371,5.371,0,0,1-.828.039H1.953a8,8,0,0,1-.966-.039,15.228,15.228,0,0,1,.049,1.528c0,2.455-.2,3.707-.7,4.584a3.53,3.53,0,0,1,.808.769A5.858,5.858,0,0,0,1.834-5.2h1v1.242c0,.2-.059.256-.276.256a3.756,3.756,0,0,1-.68-.089,2.818,2.818,0,0,1,.187,1c.365.03.5.039.621.039.838,0,1.055-.2,1.055-.956V-5.358a3.15,3.15,0,0,1,.434.532,5.387,5.387,0,0,0,.66-.532,4.23,4.23,0,0,1,.453.572,6.176,6.176,0,0,1-1.528.9ZM6.3-7.458l.237-.572h.246c.1.266.148.4.227.572ZM1.894-6.018c.02-.365.02-.444.039-.927h.9v.927Zm.049-1.745v-.887H2.83v.887Zm.986-3.371H1.677a8.426,8.426,0,0,1-1.084-.059v1.025a8.87,8.87,0,0,1,1.084-.059H2.929c-.01.177-.02.286-.039.434H3.984c-.02-.158-.02-.237-.03-.434h2.07A2.427,2.427,0,0,1,6-9.972H7.1a1.674,1.674,0,0,1-.03-.256H8.41a8.534,8.534,0,0,1,1.084.059v-1.025a8.215,8.215,0,0,1-1.084.059H7.059V-11.2a2.9,2.9,0,0,1,.039-.542H6a4.863,4.863,0,0,1,.03.542v.069H3.954V-11.2a4.493,4.493,0,0,1,.03-.542H2.889a3.115,3.115,0,0,1,.039.542Zm14.994,3.7a9.043,9.043,0,0,1,.986.039,7.685,7.685,0,0,1-.049-1.055v-1.824a8.682,8.682,0,0,1,.049-1.065,7.582,7.582,0,0,1-1.065.049H14.778a8.642,8.642,0,0,1-1.124-.049c.039.493.049.907.049,1.617a16.678,16.678,0,0,1-.384,4.407,4.8,4.8,0,0,1-.946,1.834,2.724,2.724,0,0,1,.907.789,6.492,6.492,0,0,0,1.252-2.957,11.331,11.331,0,0,0,.2-1.784h1.252a7.528,7.528,0,0,0,.71,2.248,6.926,6.926,0,0,0,1.991,2.435,4.014,4.014,0,0,1,.729-1.015,5.113,5.113,0,0,1-1.794-1.922,5.637,5.637,0,0,1-.6-1.745Zm-3.174-.976c.03-.72.03-.917.03-1.38v-.522h3.017v1.9Zm-3.933-2.465a8.724,8.724,0,0,1,1.725,1.4l.69-.9a9.964,9.964,0,0,0-1.735-1.3Zm-.424,2.435a8.506,8.506,0,0,1,1.774,1.351L12.8-8.02a9.7,9.7,0,0,0-1.774-1.242ZM11.86-6.531a8.278,8.278,0,0,1-1.429,2.948l.937.818c.108-.177.207-.365.394-.749a12.694,12.694,0,0,0,.966-2.4ZM23.276-7.783H23.6a5.361,5.361,0,0,1,.749.039v-.877a4.93,4.93,0,0,1-.749.039h-.325v-.552H23.6a5.361,5.361,0,0,1,.749.039v-.868a4.929,4.929,0,0,1-.749.039h-.325v-.591h.444a5.116,5.116,0,0,1,.828.049v-.986a8.464,8.464,0,0,1-1.075.049H21.728a7.783,7.783,0,0,1-1.1-.049c.03.315.039.611.039,1.193v3.036a7.8,7.8,0,0,1-.039.966c.256-.02.5-.03.877-.03h2.07a8.9,8.9,0,0,1-.2,2.238c-.079.315-.168.384-.493.384a3.526,3.526,0,0,1-.631-.059,2.046,2.046,0,0,1,.187.887v.118H22.7a1.866,1.866,0,0,0,1.015-.168c.286-.168.424-.453.532-1.084a20.579,20.579,0,0,0,.227-2.839,2.034,2.034,0,0,1,.02-.375,5.555,5.555,0,0,1-.818.039h-.4Zm-.907,0v.641H21.62v-.641Zm0-.8H21.62v-.552h.749Zm0-1.341H21.62v-.591h.749Zm5.767,2.317c.384,0,.68.01.868.03a9.7,9.7,0,0,1-.039-1.075v-1.656A8.123,8.123,0,0,1,29-11.371a7.233,7.233,0,0,1-1.075.049h-1.8A8.015,8.015,0,0,1,25-11.371a11.666,11.666,0,0,1,.049,1.38c0,4.288-.168,5.54-.9,6.743a2.776,2.776,0,0,1,.907.611,7.3,7.3,0,0,0,.749-2.238,17.041,17.041,0,0,0,.217-2.731h.818a9.388,9.388,0,0,0,.552,2.77,7.028,7.028,0,0,0,1.262,2.208,2.786,2.786,0,0,1,.789-.976A4.545,4.545,0,0,1,28.363-5.22,7.375,7.375,0,0,1,27.8-7.606Zm-2.09-.937v-.266c0-.03,0-.158.01-.365v-1.213h1.893v1.843ZM20.565-6.018a8.1,8.1,0,0,1-.473,2.6l.769.355a11.3,11.3,0,0,0,.434-2.819Zm.858.148c.039.591.049.808.049,1.459,0,.345,0,.513-.02.917l.631-.089a14.562,14.562,0,0,0-.148-2.366Zm.68-.01A9.239,9.239,0,0,1,22.339-3.9l.542-.177A10.869,10.869,0,0,0,22.566-6Zm.651-.069a6.918,6.918,0,0,1,.286,1.39l.463-.207a5.7,5.7,0,0,0-.345-1.311ZM32.69-8.414v2.336a16.175,16.175,0,0,1-1.794.818A4.008,4.008,0,0,1,30.058-5l.365,1.173c.1-.049.266-.128.434-.2.7-.315,1.242-.572,1.834-.907v1.045A9.217,9.217,0,0,1,32.631-2.7h1.232A7.284,7.284,0,0,1,33.8-3.879v-6.654a6.834,6.834,0,0,1,.059-1.124H32.631a8.354,8.354,0,0,1,.059,1.124v1.084H31.212a4.383,4.383,0,0,1-.927-.059v1.153a4.728,4.728,0,0,1,.927-.059Zm3.431,1.045c.7-.384.7-.384,1.1-.631.453-.286,1.282-.858,1.567-1.084.158-.128.217-.177.315-.246l-.779-.927a9.033,9.033,0,0,1-2.208,1.686v-1.952a7.186,7.186,0,0,1,.059-1.134H34.968a8.023,8.023,0,0,1,.059,1.134v6.546c0,.463.118.72.414.858a3.222,3.222,0,0,0,1.429.158A7.818,7.818,0,0,0,37.876-3a1.47,1.47,0,0,0,.72-.286c.335-.3.513-1.015.572-2.346a5.358,5.358,0,0,1-1.045-.434,5.872,5.872,0,0,1-.177,1.814c-.118.227-.335.286-1.025.286-.67,0-.8-.049-.8-.3Zm5.688,4.357v-.72h5.323v.72h1.232a11.093,11.093,0,0,1-.059-1.252V-9.922a8.631,8.631,0,0,1,.049-1.084,9.066,9.066,0,0,1-1.1.049h-5.57a8.8,8.8,0,0,1-1.094-.049c.03.345.049.651.049,1.084v5.659a8.619,8.619,0,0,1-.069,1.252Zm0-6.832h5.323v4.988H41.809Z" transform="translate(0.606 54.878)" fill="#0b2257"/>
        <path id="Path_706" data-name="Path 706" d="M7.272-8v4.269c0,.2-.079.237-.414.237a9.884,9.884,0,0,1-1.39-.118,2.373,2.373,0,0,1,.158.68c.424.03.887.049,1.2.049.868,0,1.1-.168,1.1-.8V-8h.562a7.557,7.557,0,0,1,1.075.059v-.69a6.979,6.979,0,0,1-1.084.059H5.025A7.49,7.49,0,0,1,3.93-8.631v.69A7.583,7.583,0,0,1,5.025-8ZM2.984-11.648a3.855,3.855,0,0,1-.9,1.2A6.781,6.781,0,0,1,.786-9.4a1.906,1.906,0,0,1,.444.483,9.616,9.616,0,0,0,2.189-2.139,1.614,1.614,0,0,1,.177-.217Zm1.351,1.232a7.774,7.774,0,0,1,1.025-.059H8.12a7.616,7.616,0,0,1,1.015.059v-.69a6.927,6.927,0,0,1-1.015.059H5.36a6.983,6.983,0,0,1-1.025-.059Zm-2.1,6.487a7.476,7.476,0,0,1-.069,1.2h.779a7.4,7.4,0,0,1-.069-1.2V-7.912a6.667,6.667,0,0,0,.66-.887,4.211,4.211,0,0,1,.3-.424l-.611-.345a3.389,3.389,0,0,1-.473.848A8.08,8.08,0,0,1,.756-6.778a1.879,1.879,0,0,1,.384.562,5.69,5.69,0,0,0,1.124-1.1c-.02.473-.03.759-.03,1.183Z" transform="translate(56.814 54.849)" fill="#0b2257"/>
        <path id="Path_707" data-name="Path 707" d="M9.571-8.1a11.9,11.9,0,0,1-1.5.069H2.236A12.712,12.712,0,0,1,.728-8.1v1.3c.444-.039.956-.069,1.508-.069H8.072a13.441,13.441,0,0,1,1.5.069Zm6.556-1.124c.207-.227.542-.631.848-1.015a4.192,4.192,0,0,1,.394-.473l-.651-.532a3.537,3.537,0,0,1-.966.059H14.125a2.3,2.3,0,0,0,.128-.217c.118-.2.148-.237.217-.335l-1.2-.217a3.426,3.426,0,0,1-.641,1.114A6.867,6.867,0,0,1,10.35-8.88a2.618,2.618,0,0,1,.591.937,7.717,7.717,0,0,0,.641-.434v4.259c0,.591.148.818.621.956a15.192,15.192,0,0,0,3.273.2,9.691,9.691,0,0,0,3.164-.266c.483-.2.631-.591.73-1.912a3.834,3.834,0,0,1-1.134-.375c-.01.848-.079,1.232-.246,1.351a6.971,6.971,0,0,1-2.543.207,18.218,18.218,0,0,1-2.4-.079c-.3-.049-.375-.128-.375-.4V-6.012h5.185c.266,0,.522.01.868.039a5.774,5.774,0,0,1-.039-.739V-8.535a5.483,5.483,0,0,1,.039-.739,6.165,6.165,0,0,1-.887.049Zm-3.559,0A6.238,6.238,0,0,0,13.5-10.27h2.208a7.506,7.506,0,0,1-.927,1.045Zm2.977.956h2.07v1.311h-2.07ZM14.539-6.958H12.676V-8.269h1.863Zm10.647-.858H27.5a10.293,10.293,0,0,1,1.144.059V-8.93A10.041,10.041,0,0,1,27.5-8.87H25.186v-1.686a7.955,7.955,0,0,1,.069-1.134H23.964a8.439,8.439,0,0,1,.069,1.134v6.368H21.785a13.008,13.008,0,0,1-1.36-.059v1.183a12.323,12.323,0,0,1,1.36-.069h6.26a10.757,10.757,0,0,1,1.311.069V-4.247a12.66,12.66,0,0,1-1.331.059H25.186Zm8.2,1.252-.522-.818a9.786,9.786,0,0,1-2.652,1.834l.552,1.055c.138-.1.207-.148.463-.315a15.438,15.438,0,0,0,2.159-1.705v2.307c0,.2-.089.266-.345.266a9.032,9.032,0,0,1-1.38-.118,3.516,3.516,0,0,1,.315,1.134c.444.02.631.03.828.03,1.3,0,1.646-.217,1.646-1.006v-6.427a8.421,8.421,0,0,1,.049-1.094,9.486,9.486,0,0,1-1.124.039H31.466a6.5,6.5,0,0,1-1.084-.069v1.134a7.634,7.634,0,0,1,1.055-.059h1.952ZM37.726-6.6l-.483-.818A13.061,13.061,0,0,1,35.8-6.307a6.149,6.149,0,0,1-1.163.641l.552,1.045a4.845,4.845,0,0,1,.552-.384,15.187,15.187,0,0,0,1.981-1.538v2.336c0,.2-.079.246-.375.246a10.4,10.4,0,0,1-1.282-.089,3.311,3.311,0,0,1,.306,1.134c.315.01.444.01.641.01,1.439,0,1.774-.187,1.774-1v-6.427a8.059,8.059,0,0,1,.049-1.094,9.287,9.287,0,0,1-1.114.039H35.843a6.5,6.5,0,0,1-1.084-.069v1.134a7.792,7.792,0,0,1,1.065-.059h1.9ZM30.608-9.344A9.637,9.637,0,0,1,31.87-7.411l.877-.641a12.377,12.377,0,0,0-1.3-1.863Zm4.347,0a10.022,10.022,0,0,1,1.262,1.932l.877-.641A11.417,11.417,0,0,0,35.8-9.906Zm7.187-1.686a6.587,6.587,0,0,1-.848-.039,8.043,8.043,0,0,1,.039.887v3.855a9.41,9.41,0,0,1-.039,1.015c.315-.02.463-.02.789-.02h5.629a7.4,7.4,0,0,1-.158,1.1c-.089.375-.187.463-.542.463-.168,0-.513-.02-.779-.049l.739-.306a8.256,8.256,0,0,0-.562-1.144l-.779.276A9.9,9.9,0,0,1,46.1-3.833l-.158-.02a4.132,4.132,0,0,1,.237,1.015c.187.02.483.03.769.03.858,0,1.193-.158,1.429-.68a7.891,7.891,0,0,0,.394-2.248c.02-.177.039-.335.069-.493a4.564,4.564,0,0,1-.729.039H42.369V-6.6h5.668a6.844,6.844,0,0,1,.956.049V-7.52a6.222,6.222,0,0,1-.937.049H42.369v-.384h4.367c.306,0,.532.01.828.03a5.987,5.987,0,0,1-.039-.789v-1.7a5.423,5.423,0,0,1,.039-.759,6.491,6.491,0,0,1-.848.039H44.478c.089-.138.286-.5.414-.769l-1.163-.108a4.849,4.849,0,0,1-.384.877Zm.227,1.222v-.384H46.5v.384Zm0,.73H46.5v.414H42.369Zm-1.41,3.8a5.164,5.164,0,0,1-.946,1.922l.9.611a7.265,7.265,0,0,0,.966-2.159Zm1.341.345a16.2,16.2,0,0,1,.2,1.991l1.045-.118a16.949,16.949,0,0,0-.306-1.972Zm1.646-.02a10.587,10.587,0,0,1,.463,1.735l.927-.217a9.659,9.659,0,0,0-.552-1.686Zm6.1-1.7a3.03,3.03,0,0,1,.631-.069c.365-.02.365-.02.828-.059v3.026a6.147,6.147,0,0,1-.059,1.045h1.084a5.954,5.954,0,0,1-.059-1.035V-6.859c.237-.02.335-.039.66-.079.039.138.069.246.118.483L54-6.83a13.01,13.01,0,0,0-.8-2.06l-.651.325c.168.384.217.513.315.8-.315.03-.591.059-1.065.079.345-.444.907-1.232,1.213-1.725.493-.769.493-.769.591-.907l-.868-.513a9.419,9.419,0,0,1-.946,1.705c-.138-.177-.177-.217-.355-.444a11.565,11.565,0,0,0,.739-1.272c.276-.532.276-.532.365-.68l-1-.4A7.233,7.233,0,0,1,50.8-10.27l-.384-.384-.513.838a9.721,9.721,0,0,1,1.341,1.528c-.207.286-.315.434-.473.631-.118.01-.325.01-.345.01a3.382,3.382,0,0,1-.493-.03Zm6.635.325v-.2a5.823,5.823,0,0,1,.049-.946H55.608a5.183,5.183,0,0,1,.049.946v.2H55a6.305,6.305,0,0,1-.986-.049v1.035c.315-.03.611-.039.986-.039h.66v1.36H54.5a6.127,6.127,0,0,1-.946-.049V-3a8.534,8.534,0,0,1,1.084-.059h3.233A8.215,8.215,0,0,1,58.96-3V-4.069A7.082,7.082,0,0,1,57.9-4.02H56.683v-1.36h.887a9.28,9.28,0,0,1,.956.039V-6.386a6.01,6.01,0,0,1-.946.059Zm1.341-5.156a4.974,4.974,0,0,1-.769.039H54.682a8.889,8.889,0,0,1-1.084-.049v1.065a3.506,3.506,0,0,1,.532-.049,5.892,5.892,0,0,0,1.232,1.715,7.107,7.107,0,0,1-1.656.72,3.566,3.566,0,0,1,.641.927A8.249,8.249,0,0,0,56.18-8.1a9.021,9.021,0,0,0,2.474,1.124,3.544,3.544,0,0,1,.463-1.075,7.068,7.068,0,0,1-2.11-.73,7.561,7.561,0,0,0,.848-.956c.1-.128.444-.631.789-1.153Zm-.868,1.006A4.92,4.92,0,0,1,56.15-9.344a3.717,3.717,0,0,1-.956-1.134Zm-6.822,4.16a9.088,9.088,0,0,1-.394,2.77l.907.365a14.723,14.723,0,0,0,.345-2.977Zm2.425.138a10.981,10.981,0,0,1,.207,2.129l.838-.237a11.306,11.306,0,0,0-.306-2.09Zm12.027-3.933v-.71a6.288,6.288,0,0,1,.069-1.025H63.613a6.576,6.576,0,0,1,.069,1.015v.72H61.257a7.844,7.844,0,0,1-1.065-.049c.03.315.049.6.049.946v5.284a12.093,12.093,0,0,1-.059,1.222h1.094v-.483H67.3v.483h1.1c-.039-.4-.059-.818-.059-1.213V-9.166c0-.384.02-.68.049-1a8.945,8.945,0,0,1-1.114.049Zm0,5.935v-2.09H67.3v2.09Zm0-3.036V-9.137H67.3v1.922Zm-1.1-1.922v1.922H61.277V-9.137Zm0,2.869v2.09H61.277v-2.09Z" transform="translate(0.49 35.928)" fill="#0b2257"/>
        <path id="Path_708" data-name="Path 708" d="M.78-6.736a3.571,3.571,0,0,1,.6-.069c.375-.03.375-.03,1.1-.1v3.174a7.311,7.311,0,0,1-.059,1.015h.72a7.158,7.158,0,0,1-.059-1.006V-6.962c.375-.039.6-.069.68-.079a1.586,1.586,0,0,0,.246-.03c.1.256.128.345.227.66l.5-.227A10.679,10.679,0,0,0,3.876-8.51l-.453.177a8.288,8.288,0,0,1,.394.779c-.68.089-.858.1-1.6.148A21.587,21.587,0,0,0,4.043-9.9c.138-.2.2-.286.286-.4l-.582-.345A10.1,10.1,0,0,1,2.614-8.786c-.207-.246-.365-.424-.66-.72a15.113,15.113,0,0,0,.976-1.548,3.577,3.577,0,0,1,.227-.375L2.545-11.7A7.334,7.334,0,0,1,1.569-9.88c-.158-.158-.207-.2-.424-.4L.78-9.821a9.777,9.777,0,0,1,1.5,1.508c-.286.384-.384.513-.749.946-.158.01-.453.02-.5.02a2.247,2.247,0,0,1-.355-.03Zm7.877-2.7a27.609,27.609,0,0,1-.424,5.156c-.138.631-.246.749-.71.749A7.779,7.779,0,0,1,6.212-3.66a2.371,2.371,0,0,1,.168.68c.394.039.759.059,1.045.059.946,0,1.193-.207,1.42-1.153A24.691,24.691,0,0,0,9.268-8.54a14.839,14.839,0,0,1,.049-1.518,5.336,5.336,0,0,1-.8.039H6.055c.128-.315.207-.513.286-.73.177-.493.177-.493.256-.68l-.67-.168a6.172,6.172,0,0,1-.552,1.627,6.4,6.4,0,0,1-1.1,1.686,1.794,1.794,0,0,1,.513.384A7.668,7.668,0,0,0,5.788-9.437ZM1.342-6.262A7.294,7.294,0,0,1,.692-3.62l.542.256a8.73,8.73,0,0,0,.651-2.79Zm2.287.1a13,13,0,0,1,.5,2.376L4.7-3.975a15.691,15.691,0,0,0-.582-2.346ZM7.4-5.819A11.817,11.817,0,0,0,6-8.224l-.513.3A9.548,9.548,0,0,1,6.833-5.484Zm7.788-1.676A8.359,8.359,0,0,1,15.05-6a4.024,4.024,0,0,1-.483,1.331,2.567,2.567,0,0,1-.986.951,3.324,3.324,0,0,1-1.632.355q-.2,0-.463-.025a2.132,2.132,0,0,1-.424-.074V-4.2a2.736,2.736,0,0,0,.868.128A2.517,2.517,0,0,0,13.069-4.3a1.867,1.867,0,0,0,.715-.616,2.627,2.627,0,0,0,.384-.907,5.773,5.773,0,0,0,.138-1.089h-.059a1.955,1.955,0,0,1-.631.577,2.016,2.016,0,0,1-1.045.242,1.979,1.979,0,0,1-1.464-.557,2.126,2.126,0,0,1-.557-1.572A2.731,2.731,0,0,1,10.826-9.5a1.942,1.942,0,0,1,.784-.818A2.381,2.381,0,0,1,12.8-10.6a2.235,2.235,0,0,1,1.213.34,2.305,2.305,0,0,1,.858,1.025A4.171,4.171,0,0,1,15.183-7.495ZM12.8-9.87a1.328,1.328,0,0,0-1,.4,1.717,1.717,0,0,0-.389,1.232,1.6,1.6,0,0,0,.33,1.07,1.264,1.264,0,0,0,1.02.389,1.655,1.655,0,0,0,.818-.192,1.49,1.49,0,0,0,.537-.488,1.107,1.107,0,0,0,.192-.611,2.216,2.216,0,0,0-.168-.838,1.709,1.709,0,0,0-.5-.69A1.274,1.274,0,0,0,12.8-9.87ZM19.56-7.524a4.773,4.773,0,0,1-.532,2.031,5.023,5.023,0,0,1-2.484,2.159,2.06,2.06,0,0,1,.434.552,5.785,5.785,0,0,0,2.484-2.149,5.614,5.614,0,0,0,.769-2.593h2.3A14.033,14.033,0,0,1,22.2-3.877c-.069.187-.177.246-.493.246a7.6,7.6,0,0,1-1.39-.168,2.733,2.733,0,0,1,.158.7c.621.059.966.079,1.291.079.572,0,.808-.1.976-.394a12.53,12.53,0,0,0,.444-4.042,4.355,4.355,0,0,1,.039-.7,7.459,7.459,0,0,1-1.035.049H18.949a7.567,7.567,0,0,1-1.025-.059v.7a7.939,7.939,0,0,1,1.015-.059Zm-.4-4.091a3.171,3.171,0,0,1-.424,1.035,8.123,8.123,0,0,1-2.7,2.888,2.17,2.17,0,0,1,.483.532,9.785,9.785,0,0,0,3.105-3.7,2.69,2.69,0,0,1,.276-.5Zm2.189.276c.049.079.108.187.158.276A9.987,9.987,0,0,0,24.824-7.1a2.432,2.432,0,0,1,.463-.6,8.221,8.221,0,0,1-2.908-3.066A3.991,3.991,0,0,1,22-11.6Z" transform="translate(77.963 55.57)" fill="#0b2257"/>
      </g>
      <path id="Path_679" data-name="Path 679" d="M-19064-10609.105l13.191,10.553,13.193-10.553" transform="translate(19102.344 10685.784)" fill="none" stroke="#545e67" stroke-width="1"/>
      <path id="Path_681" data-name="Path 681" d="M-19064-10609.105l13.191,10.553,13.193-10.553" transform="translate(19102.344 10739.457)" fill="none" stroke="#545e67" stroke-width="1"/>
    </g>
  </g>
</svg>
