<svg xmlns="http://www.w3.org/2000/svg" width="508.025" height="413.606" viewBox="0 0 508.025 413.606">
  <g id="Group_2898" data-name="Group 2898" transform="translate(-743 -1815)">
    <g id="Group_2466" data-name="Group 2466" transform="translate(199 -5)">
      <path id="Path_689" data-name="Path 689" d="M5.454-10.034H2.108A8.417,8.417,0,0,1,.8-10.116v.842a9.34,9.34,0,0,1,1.3-.07H9.911a8.4,8.4,0,0,1,1.322.07v-.842a8.154,8.154,0,0,1-1.334.082H6.226v-.714a4.942,4.942,0,0,1,.082-.994H5.372a5.761,5.761,0,0,1,.082.994Zm0,2.3H2.974a10.214,10.214,0,0,1-1.123-.047,8.1,8.1,0,0,1,.047.959v3.275a9.611,9.611,0,0,1-.07,1.263h.924a9.128,9.128,0,0,1-.07-1.263V-7.063H5.454v4.656a9.216,9.216,0,0,1-.082,1.275H6.3a8.548,8.548,0,0,1-.082-1.275V-7.063H9.279v3.521c0,.257-.094.328-.468.328a9.231,9.231,0,0,1-1.369-.117,2.576,2.576,0,0,1,.2.784c.538.035.737.047,1.217.047.959,0,1.193-.2,1.193-.959V-6.829a7.531,7.531,0,0,1,.047-.948,10.259,10.259,0,0,1-1.111.047H6.214V-8.1a5.927,5.927,0,0,1,.058-.936H5.4a5.583,5.583,0,0,1,.058.924Zm8.656-2.433c-.585,0-.9-.012-1.287-.047a8.65,8.65,0,0,1,.047.983v.971a6.456,6.456,0,0,1-.058.831H13.6V-9.531h8.165v2.106h.8a4.682,4.682,0,0,1-.058-.842v-.959a7.2,7.2,0,0,1,.047-.983,12.568,12.568,0,0,1-1.3.047H20.3a12.453,12.453,0,0,0,.936-1.392l-.749-.269a7.667,7.667,0,0,1-1.006,1.661H18.251a13.911,13.911,0,0,0-.831-1.673l-.725.164a7.082,7.082,0,0,1,.784,1.509H15.842a8.953,8.953,0,0,0-.971-1.509l-.7.2a6.328,6.328,0,0,1,.889,1.31Zm2.96,4.3a6.968,6.968,0,0,1-.562,1.146H14.73a9.556,9.556,0,0,1-1.123-.047,7.123,7.123,0,0,1,.058,1.1v1.345a8.507,8.507,0,0,1-.07,1.123h.8v-.468h6.551v.48h.8a6.387,6.387,0,0,1-.07-1.135V-3.659a6.851,6.851,0,0,1,.058-1.1,9.336,9.336,0,0,1-1.111.047H17.269a11.576,11.576,0,0,0,.562-1.146h1.755c.585,0,.831.012,1.252.047a6.056,6.056,0,0,1-.047-.936V-7.753a7.648,7.648,0,0,1,.035-.889A10.49,10.49,0,0,1,19.7-8.6H15.643a10.724,10.724,0,0,1-1.135-.047,5.583,5.583,0,0,1,.047.877v1.018a6.772,6.772,0,0,1-.047.936,10.14,10.14,0,0,1,1.252-.047Zm-1.8-2.129h4.808v1.521H15.268Zm-.877,3.919h6.551v1.755H14.391ZM29.166-7.11l1.673-.562V-4.7a7.618,7.618,0,0,1-.07,1.135h.866a7.668,7.668,0,0,1-.07-1.123V-7.917l1.942-.667a23.578,23.578,0,0,1-.187,2.96c-.058.339-.117.4-.386.4a4.184,4.184,0,0,1-.9-.105,2.724,2.724,0,0,1,.175.737c.269.023.409.035.515.035a1.6,1.6,0,0,0,.842-.164c.3-.175.456-.667.538-1.708.094-1.146.14-1.965.187-3.135a8.453,8.453,0,0,1-.924.363l-1.8.6v-1.918a7.783,7.783,0,0,1,.07-1.1h-.866a7.382,7.382,0,0,1,.07,1.088v2.164l-1.673.562V-9.45a8.308,8.308,0,0,1,.07-1.158h-.877a8.494,8.494,0,0,1,.07,1.193v1.837l-.421.14A4.508,4.508,0,0,1,26.99-7.2l.211.8a6.449,6.449,0,0,1,.971-.374l.257-.082v4.293c0,.912.48,1.088,2.9,1.088,3.041,0,3.252-.14,3.392-2.3a2.145,2.145,0,0,1-.749-.3,3.41,3.41,0,0,1-.246,1.579c-.187.269-.678.339-2.328.339a8.5,8.5,0,0,1-1.883-.105c-.281-.07-.351-.164-.351-.445Zm-3.58-1.439h-.433a4.317,4.317,0,0,1-.983-.07v.8a4.44,4.44,0,0,1,.983-.07h.433v4a6.589,6.589,0,0,1-1.568.526l.2.807c.129-.058.3-.14.468-.2A22.581,22.581,0,0,0,27.7-4.186l-.07-.714c-.608.339-.819.445-1.322.678V-7.894h.316a7.3,7.3,0,0,1,.948.047v-.76a4.421,4.421,0,0,1-.936.058h-.328v-1.743a9.767,9.767,0,0,1,.07-1.31h-.866a9.575,9.575,0,0,1,.07,1.3Zm14.8-1.755v7.686a8.6,8.6,0,0,1-.082,1.38h.971a8.507,8.507,0,0,1-.082-1.38v-5.51a13.064,13.064,0,0,1,1.217.643,17.526,17.526,0,0,1,2.48,1.638l.456-.725a25.241,25.241,0,0,0-4.153-2.4V-10.3h3.673a11.484,11.484,0,0,1,1.357.07V-11.1a11.073,11.073,0,0,1-1.357.07h-7.58a10.884,10.884,0,0,1-1.369-.07v.866a11.417,11.417,0,0,1,1.369-.07Zm9.358,2.188v1.287h-.948a8.851,8.851,0,0,1-1.1-.058v.737a7.143,7.143,0,0,1,1.088-.058h.959v3.474a9.309,9.309,0,0,1-2.188.5l.2.807c.351-.117.456-.152.749-.234a33.629,33.629,0,0,0,3.591-1.217l-.023-.667c-.807.328-1.1.433-1.649.608V-6.209h.491a6.565,6.565,0,0,1,1.053.058v-.737a6.477,6.477,0,0,1-1.053.058h-.491V-8.116h.363a4.935,4.935,0,0,1,.784.047v-.678A4.6,4.6,0,0,1,50.8-8.7H49.356a6.47,6.47,0,0,1-.737-.035,7.6,7.6,0,0,0,1.544-2.117,7.284,7.284,0,0,0,1.755,2.094,2.376,2.376,0,0,1,.421-.632,5.408,5.408,0,0,1-1.8-2.059h-.819a6.264,6.264,0,0,1-2.293,2.772,1.511,1.511,0,0,1,.445.6,7.5,7.5,0,0,0,.7-.608v.62a5.369,5.369,0,0,1,.772-.047Zm4.925-.632a19.731,19.731,0,0,1-.152,2.176H53.5a7.914,7.914,0,0,1-1.17-.07v.8a8.089,8.089,0,0,1,1.181-.07h.9A5.63,5.63,0,0,1,53.252-3.4,5.631,5.631,0,0,1,51.3-1.893a1.888,1.888,0,0,1,.538.643,6.454,6.454,0,0,0,3.1-3.966,7.267,7.267,0,0,0,2.948,3.977,2.267,2.267,0,0,1,.515-.69,6.134,6.134,0,0,1-2.164-2.024,7.29,7.29,0,0,1-.889-1.965h1.4a9.965,9.965,0,0,1,1.2.07v-.8a8.07,8.07,0,0,1-1.217.07H55.229c.07-.6.105-1.1.14-2.176h1.146a9.438,9.438,0,0,1,1.181.07v-.784a7.1,7.1,0,0,1-1.2.07H55.381a12.385,12.385,0,0,1,.07-2.223h-.819a10.539,10.539,0,0,1,.058,1.544v.678H53.5c.094-.292.14-.515.211-.831s.07-.339.14-.62l-.725-.164a3.16,3.16,0,0,1-.082.7A7.52,7.52,0,0,1,51.93-7.5a1.964,1.964,0,0,1,.62.409,9.016,9.016,0,0,0,.737-1.661Zm-5.486,5.58a13.5,13.5,0,0,0-.6-2.375l-.585.2a11.972,11.972,0,0,1,.562,2.41Zm2.223-.3a12.124,12.124,0,0,0,.585-1.989l-.6-.234a7.952,7.952,0,0,1-.515,2.012ZM68.167-9.684l.433-.257a8.594,8.594,0,0,0-1.263-1.872l-.585.3a8.134,8.134,0,0,1,1.1,1.591c-.292.012-.445.012-.69.012H61.51a8.293,8.293,0,0,1-1.322-.07v.936a8.637,8.637,0,0,1,1.31-.07h5.954a9.48,9.48,0,0,1-2.047,4.164A9.394,9.394,0,0,1,61.124-2.29a2.315,2.315,0,0,1,.573.807,10.755,10.755,0,0,0,3.673-2.2,9.719,9.719,0,0,0,2.866-4.855,2.145,2.145,0,0,1,.246-.725Zm.105-2.223a8.674,8.674,0,0,1,1.2,1.837l.6-.351a10.189,10.189,0,0,0-1.228-1.8Zm4.492.983a5.2,5.2,0,0,1,.047.831,15.959,15.959,0,0,1-.526,5.018,5.787,5.787,0,0,1-1.977,2.691,2.161,2.161,0,0,1,.7.632,7.151,7.151,0,0,0,2.024-2.889c.445-1.181.538-2.047.632-5.217a5.827,5.827,0,0,1,.07-1.006Zm2.913-.082a4.694,4.694,0,0,1,.047,1.041l-.07,6.843a1.971,1.971,0,0,1-.082.8l.468.538a1.948,1.948,0,0,1,.269-.129c.164-.058.164-.058.374-.14a7.711,7.711,0,0,0,1.673-.854,6.647,6.647,0,0,0,2.351-3.006,3.271,3.271,0,0,1-.655-.678,5.785,5.785,0,0,1-1.38,2.34A5.406,5.406,0,0,1,76.5-2.9l.07-7.066a4.536,4.536,0,0,1,.07-1.029Zm6.656,4.983a12.779,12.779,0,0,1,1.451-.047h6.785A13.382,13.382,0,0,1,92-6.022V-6.97a9.226,9.226,0,0,1-1.415.058h-6.8a8.275,8.275,0,0,1-1.451-.07Zm13.3-3.942a7.8,7.8,0,0,1,1.217-.058h3.931A7.8,7.8,0,0,1,102-9.964v-.9a5.368,5.368,0,0,1-1.228.082H96.862a5.368,5.368,0,0,1-1.228-.082ZM94.627-7.274a10.768,10.768,0,0,1,1.357-.058h6.106a7.207,7.207,0,0,1-1.9,3.065,8.03,8.03,0,0,1-3.474,1.778,2.545,2.545,0,0,1,.5.807c3.03-1.018,4.644-2.515,5.638-5.241a3.393,3.393,0,0,1,.328-.737l-.433-.5a1.975,1.975,0,0,1-.76.082H96a8.417,8.417,0,0,1-1.369-.07ZM113.87-11.3a9.819,9.819,0,0,1-2.234,2.211,16.471,16.471,0,0,1-6.071,3.03,2.708,2.708,0,0,1,.456.784,18.287,18.287,0,0,0,4.515-2.047v4.445a6.1,6.1,0,0,1-.07,1.217h1.018a7.771,7.771,0,0,1-.058-1.24V-7.882a20.6,20.6,0,0,0,2.737-2.351,2.648,2.648,0,0,1,.515-.491Zm4.363,1.649a12.918,12.918,0,0,1,2.784,2.293l.608-.725a15.239,15.239,0,0,0-2.819-2.2Zm.082,7.6a6.147,6.147,0,0,1,.7-.187,11.794,11.794,0,0,0,4.363-1.743,10.26,10.26,0,0,0,3.568-4.469,2.343,2.343,0,0,1-.714-.69,8.839,8.839,0,0,1-4.773,5.206,10.182,10.182,0,0,1-3.4.9Z" transform="translate(648.315 1850.419)" fill="#0b2257"/>
      <path id="Path_690" data-name="Path 690" d="M5.457-11.519a8.2,8.2,0,0,1,.07,1.181v7.978c0,.234-.105.292-.526.292a9.293,9.293,0,0,1-1.731-.2A2.761,2.761,0,0,1,3.48-1.4c.667.058,1.135.082,1.614.082.971,0,1.24-.211,1.24-.959v-8.048a7.936,7.936,0,0,1,.07-1.193ZM8.194-8.735c.035.094.035.094.082.234.374,1.181.55,1.778.562,1.79a12.3,12.3,0,0,0,1.989,3.72,3.021,3.021,0,0,1,.667-.585A10.6,10.6,0,0,1,9.75-6.547a9.711,9.711,0,0,1-.725-2.421ZM2.626-8.9a9.215,9.215,0,0,1-.351,1.755A9.765,9.765,0,0,1,.462-3.506a2.728,2.728,0,0,1,.714.48A12.144,12.144,0,0,0,3.153-7.4c.246-.959.281-1.1.339-1.287ZM22.3-1.236a11.346,11.346,0,0,1-.07-1.357V-9.858a8.767,8.767,0,0,1,.058-1.17,11.913,11.913,0,0,1-1.334.058H14.312a12,12,0,0,1-1.345-.058c.035.374.058.737.058,1.17v7.264a11.625,11.625,0,0,1-.07,1.357h.819V-1.95h7.709v.714ZM13.774-10.29h3.357v3.357H13.774Zm4.094,0h3.615v3.357H17.869ZM13.774-6.266h3.357v3.638H13.774Zm4.094,0h3.615v3.638H17.869ZM30.28-8.945a8.721,8.721,0,0,0,.655-.842c.152-.211.456-.62.55-.725l-.363-.421a5.4,5.4,0,0,1-.994.058H28.046c.386-.562.386-.562.526-.772l-.842-.211A6.612,6.612,0,0,1,26.5-9.951,9.568,9.568,0,0,1,24.209-8.1a2.28,2.28,0,0,1,.515.538,10.418,10.418,0,0,0,1.591-1.252v.538a7.575,7.575,0,0,1,.936-.047H32.4v1.006h-5.6a7.423,7.423,0,0,1-.983-.047v.714a6.822,6.822,0,0,1,.983-.058h5.6v1.076h-5.79a7.423,7.423,0,0,1-.983-.047v.725a7.027,7.027,0,0,1,.983-.058h5.767c.246,0,.468.012.772.035a5.883,5.883,0,0,1-.035-.69V-8.3a5.957,5.957,0,0,1,.035-.678c-.257.023-.5.035-.807.035Zm-3.03,0a7.074,7.074,0,0,1-.76-.035,8.9,8.9,0,0,0,1.135-1.287h2.843a7.685,7.685,0,0,1-1.029,1.322Zm-2.48,7.44a6.92,6.92,0,0,0,1.38-2.644l-.667-.246a5.673,5.673,0,0,1-.562,1.4,4.816,4.816,0,0,1-.784,1.053Zm3.041-2.071a4.732,4.732,0,0,1,.07-1.018h-.866a6.619,6.619,0,0,1,.07,1.018v1.2c0,.55.105.76.433.889a5.9,5.9,0,0,0,1.755.152c2.6,0,2.749-.094,3.006-1.8a2.182,2.182,0,0,1-.737-.281A2.289,2.289,0,0,1,31.3-2.254c-.152.211-.491.257-2,.257a6.2,6.2,0,0,1-1.2-.07c-.222-.058-.281-.152-.281-.445Zm2.913.211a9,9,0,0,0-1.638-1.38l-.526.421a7.843,7.843,0,0,1,1.661,1.462Zm1.486-.749a9.6,9.6,0,0,1,1.731,2.433l.643-.491a15.266,15.266,0,0,0-1.778-2.34Zm9.744,1.462H39.814a8.967,8.967,0,0,1-1.275-.07v.877a8.2,8.2,0,0,1,1.287-.082h5.182a8.238,8.238,0,0,1,1.275.082v-.877a8.743,8.743,0,0,1-1.275.07H42.773v-7.37h1.9a10.078,10.078,0,0,1,1.228.07v-.866a7.613,7.613,0,0,1-1.228.082h-4.2a8.577,8.577,0,0,1-1.228-.07v.842a11.827,11.827,0,0,1,1.228-.058h1.486ZM36.3-10.934a9.534,9.534,0,0,1,2.2,1.72l.5-.62a12.072,12.072,0,0,0-2.188-1.626ZM35.7-8.068a9.047,9.047,0,0,1,2.258,1.6l.48-.69a14.5,14.5,0,0,0-2.269-1.521Zm2.293,2.644a12.591,12.591,0,0,1-.877,1.685,8.164,8.164,0,0,1-.866,1.24,2.364,2.364,0,0,1-.433.468l.678.643a4.654,4.654,0,0,1,.351-.5,21.2,21.2,0,0,0,1.766-3.041Zm17.5-5.475A11.042,11.042,0,0,1,54.261-7.9a11.219,11.219,0,0,1-5.767,5.042,2.765,2.765,0,0,1,.6.819,13.544,13.544,0,0,0,4.41-3.24,14.726,14.726,0,0,0,2.667-4.609,4.86,4.86,0,0,1,.292-.678Zm7.194,8.072H60.625v-.526a3.616,3.616,0,0,1,.035-.655h-.807a3.276,3.276,0,0,1,.058.7l.012.737a5.811,5.811,0,0,1-.07.924h.772v-.538h4.855c.105,0,.328,0,.409.012.3.012.3.012.433.012a5.088,5.088,0,0,1-.023-.608v-.585a4.418,4.418,0,0,1,.047-.7h-.784a3.748,3.748,0,0,1,.047.655v.573h-2.2V-4.36H68.3a12.9,12.9,0,0,1-.351,2.082c-.094.3-.234.386-.62.386A7.426,7.426,0,0,1,66.181-2a2.416,2.416,0,0,1,.175.737c.374.023.562.035.889.035.69,0,1.006-.117,1.228-.445a8.444,8.444,0,0,0,.55-2.691c.047-.363.07-.55.082-.655a6.587,6.587,0,0,1-.924.047h-6.7V-5.81H68.3a10.7,10.7,0,0,1,1.123.058V-6.5a7.01,7.01,0,0,1-1.1.07H61.479v-.784h5.159c.316,0,.562.012.912.035-.023-.246-.035-.491-.035-.8V-9.916a4.27,4.27,0,0,1,.035-.737,6.823,6.823,0,0,1-.959.047H63.725a11.051,11.051,0,0,0,.562-1.018l-.772-.152a5.736,5.736,0,0,1-.561,1.17h-1.31a6.559,6.559,0,0,1-.936-.047c.023.281.047.562.047.912v4.352a8.759,8.759,0,0,1-.047,1.053c.328-.023.456-.023.971-.023h1.006Zm-1.2-6.387v-.8h5.3v.8Zm0,.573h5.3V-7.8h-5.3ZM71.012-5.9a2.988,2.988,0,0,1,.48-.058c.983-.07.983-.07,1.357-.094v3.8a8.608,8.608,0,0,1-.07,1.17H73.6a6.5,6.5,0,0,1-.07-1.17V-6.126c.445-.047.538-.058,1.053-.129.058.2.082.292.152.573l.573-.281a12.217,12.217,0,0,0-.819-2.082L73.96-7.8a6.413,6.413,0,0,1,.421.971c-.714.094-.737.094-1.79.164.632-.819,1.135-1.532,1.521-2.129q.456-.719.772-1.193l-.678-.363a11.193,11.193,0,0,1-1.17,2.071c-.316-.374-.421-.491-.714-.807A17.314,17.314,0,0,0,73.469-11a4.047,4.047,0,0,1,.281-.48l-.725-.3A7.874,7.874,0,0,1,71.89-9.542c-.187-.187-.292-.281-.562-.538l-.421.55a14.362,14.362,0,0,1,1.755,1.8c-.2.269-.468.643-.819,1.111-.222.012-.409.012-.491.012a2.78,2.78,0,0,1-.456-.035Zm5.615-4.82a8.875,8.875,0,0,1-1.1-.047,9.538,9.538,0,0,1,.047,1.088V-7.8a9.279,9.279,0,0,1-.047,1.088,9.336,9.336,0,0,1,1.111-.047h1.1v4.551c0,.187-.094.246-.4.246a7.542,7.542,0,0,1-1.123-.105,2.034,2.034,0,0,1,.211.749c.222.012.655.035.877.035.854,0,1.135-.2,1.135-.831V-3.588c0-.538-.035-1.123-.117-2.176a7.22,7.22,0,0,0,1.4,2.772,7,7,0,0,0,1.451,1.427,2,2,0,0,1,.491-.655,7.479,7.479,0,0,1-2.094-2.106A17.188,17.188,0,0,0,81.213-5.9L80.687-6.4a10.344,10.344,0,0,1-1.451,1.544,6.191,6.191,0,0,1-.8-1.907h1.181a9.37,9.37,0,0,1,1.1.047,8.7,8.7,0,0,1-.047-1.076V-9.67a9.121,9.121,0,0,1,.047-1.1,9.089,9.089,0,0,1-1.111.047H78.125c.2-.421.269-.562.421-.924l-.807-.152a5,5,0,0,1-.363,1.076Zm-.4.6h3.778v1.065H76.23Zm0,1.673h3.778v1.1H76.23ZM71.562-5.3a10.415,10.415,0,0,1-.632,3.229l.632.316a12.427,12.427,0,0,0,.655-3.416ZM74-5.143a13.983,13.983,0,0,1,.445,2.293l.6-.222a14.616,14.616,0,0,0-.491-2.246ZM77.107-5.7a2.58,2.58,0,0,1-.608.047h-.6a3.792,3.792,0,0,1-.807-.058v.737a3.874,3.874,0,0,1,.8-.058h.76a5.954,5.954,0,0,1-2.293,2.854,1.82,1.82,0,0,1,.5.538,9.007,9.007,0,0,0,1.217-1.17,8.058,8.058,0,0,0,1.029-1.731,8.016,8.016,0,0,1,.351-.772Z" transform="translate(648.37 1873.755)" fill="#0b2257"/>
      <path id="Path_682" data-name="Path 682" d="M18.435-27.016a14,14,0,0,1,2.3.144v-2.3a14.765,14.765,0,0,1-2.335.144H16.387v-3.377a22.188,22.188,0,0,1,.18-3.557H14.087a23.219,23.219,0,0,1,.18,3.629v3.306H11.86a19.869,19.869,0,0,1-2.731-.144v2.3a20.684,20.684,0,0,1,2.695-.144h2.12A36.921,36.921,0,0,1,8.087-13.147a9.288,9.288,0,0,1,1.581,1.9c2.3-3.737,3.162-5.928,4.85-12.539-.108,2.335-.252,5.5-.252,6.144V-7.4a27.983,27.983,0,0,1-.216,3.988H16.6A26.962,26.962,0,0,1,16.387-7.4V-18.249c0-1.437,0-1.437-.144-5.713A29.145,29.145,0,0,0,19.728-16.2a8.738,8.738,0,0,1,1.258-2.048,25.963,25.963,0,0,1-4.527-8.767ZM2.913-33.735a22.351,22.351,0,0,1,5.1,4.6L9.56-30.788a25.8,25.8,0,0,0-5.138-4.527ZM1.548-24.788A25,25,0,0,1,7.081-20.4l1.437-1.9a35.241,35.241,0,0,0-5.6-4.132Zm4.743,7.976A36.078,36.078,0,0,1,3.237-8.476,7.353,7.353,0,0,1,1.584-5.925l2.12,1.8c.18-.4.287-.611.719-1.473a49.113,49.113,0,0,0,3.737-9.845ZM22.028-7.434a21.786,21.786,0,0,1-.216,3.485h2.3V-5.494h6.9v1.653h2.335a28.53,28.53,0,0,1-.216-3.773V-30.9a26.954,26.954,0,0,1,.144-3.521,24.435,24.435,0,0,1-3.377.144H25.405c-1.581,0-2.551-.036-3.521-.108a31.657,31.657,0,0,1,.144,3.485Zm2.12-24.791H31.01v6.5H24.148Zm0,8.479H31.01v6.611H24.148Zm0,8.587H31.01v7.617H24.148Zm27.306-4.1a19.1,19.1,0,0,1-3.234-.18v2.3a18.729,18.729,0,0,1,3.126-.18H56.2v3.844H51.921a20.06,20.06,0,0,1-3.306-.18v2.264a21.214,21.214,0,0,1,3.27-.18H56.2V-8.4a30.958,30.958,0,0,1-.18,4.024h2.551a30.229,30.229,0,0,1-.18-4.06v-3.126h5.318a19.468,19.468,0,0,1,3.162.18V-13.65a18.678,18.678,0,0,1-3.162.18H58.388v-3.844h5.6a20.013,20.013,0,0,1,3.162.18v-2.3a18.421,18.421,0,0,1-3.162.18H61.263a30.426,30.426,0,0,0,2.695-4.276L61.8-24.177a19.275,19.275,0,0,1-2.838,4.922ZM45.562-32.549A22.581,22.581,0,0,1,41.9-32.8v2.551a26.09,26.09,0,0,1,3.665-.216H56.3v3.7H47.43a27.179,27.179,0,0,1-3.27-.144,26.253,26.253,0,0,1,.144,3.09V-7.111A24.883,24.883,0,0,1,44.088-3.3h2.695A21.248,21.248,0,0,1,46.6-7V-24.752H69.059V-6.859c0,.755-.359.934-1.725.934a23.081,23.081,0,0,1-4.276-.4,6.264,6.264,0,0,1,.611,2.335c1.4.108,2.587.18,3.737.18,3.126,0,3.952-.611,3.952-2.874V-23.89a24.228,24.228,0,0,1,.144-3.018,25.787,25.787,0,0,1-3.234.144h-9.7v-3.7H69.994a28.143,28.143,0,0,1,3.7.216V-32.8a18.774,18.774,0,0,1-3.7.252H58.568a17.983,17.983,0,0,1,.252-3.485H56.053a17.269,17.269,0,0,1,.252,3.485Zm5.6,9.126a20.935,20.935,0,0,1,2.371,3.952l1.832-.79a36.763,36.763,0,0,0-2.335-3.988Zm34.349-.683-.862.036a21.469,21.469,0,0,1-2.767-.18l.5,2.659a15.944,15.944,0,0,1,1.689-.144c1.114-.036,2.12-.072,2.982-.108,2.838-.072,4.671-.144,8.192-.359,6.108-.359,7.8-.5,12.719-1.042,1.078,1.293,1.545,1.868,2.946,3.773l2.012-1.581a86.243,86.243,0,0,0-10.491-10.815l-1.976,1.258a40.384,40.384,0,0,1,5.892,5.533c-6.072.575-6.863.611-16.456.9a80.652,80.652,0,0,0,6.288-9.845c.287-.539.287-.539.4-.755l-2.623-.97c-.826,2.767-3.413,7.186-6.791,11.641ZM88.21-3.482V-5.674h18.108v2.192h2.515a24.486,24.486,0,0,1-.216-3.341v-8.587a17.336,17.336,0,0,1,.18-2.874,20.233,20.233,0,0,1-2.838.144H88.605a19.909,19.909,0,0,1-2.838-.144,24.191,24.191,0,0,1,.18,2.874v8.587a26.943,26.943,0,0,1-.216,3.341Zm0-12.539h18.108v8.228H88.21Zm42.145-6.324h1.365a19.259,19.259,0,0,1,3.126.18v-2.12a18.212,18.212,0,0,1-3.126.18h-1.365v-3.234h1.365a19.259,19.259,0,0,1,3.126.18v-2.12a18.213,18.213,0,0,1-3.126.18h-1.365v-3.306h1.9a23.338,23.338,0,0,1,3.377.18v-2.228a26.129,26.129,0,0,1-3.665.18h-5.641a26.92,26.92,0,0,1-3.952-.18,36.458,36.458,0,0,1,.144,4.168v9.845c0,2.012-.036,2.91-.108,3.7,1.006-.072,1.868-.108,3.306-.108h7.653a64.07,64.07,0,0,1-.719,8.192c-.467,2.623-.755,3.09-1.868,3.09A16.794,16.794,0,0,1,127.624-6a6.049,6.049,0,0,1,.4,2.012V-3.7c1.186.108,1.94.144,2.623.144,2.012,0,2.838-.5,3.377-2.048.647-1.94,1.258-7.114,1.4-11.785.036-.755.036-1.042.072-1.437a22.843,22.843,0,0,1-3.341.144h-1.8Zm-1.9,0v3.665h-3.916v-3.665Zm0-1.761h-3.916v-3.234h3.916Zm0-4.994h-3.916v-3.306h3.916Zm19.9,7.509a25.335,25.335,0,0,1,3.449.144,30.707,30.707,0,0,1-.144-3.88v-4.886a29.913,29.913,0,0,1,.144-3.916,25.516,25.516,0,0,1-3.88.18H141.96a27.53,27.53,0,0,1-3.952-.18,38.322,38.322,0,0,1,.144,4.276c0,15.054-.79,20.588-3.665,25.222a7.087,7.087,0,0,1,2.048,1.258c2.479-4.779,3.341-9.162,3.629-18.216h4.1a35.667,35.667,0,0,0,2.228,9.809,25.183,25.183,0,0,0,5.282,8.587,8.152,8.152,0,0,1,1.761-2.048,18.142,18.142,0,0,1-4.815-6.791,31.173,31.173,0,0,1-2.371-9.557Zm-8.12-1.976c.036-3.413.072-5.6.072-6.611v-1.8h9.2v8.407Zm-17.821,8.192c-.323,4.491-.719,6.18-2.084,9.126l1.761.9c1.222-2.91,1.653-4.886,2.048-9.665Zm2.587.5a51.179,51.179,0,0,1,.323,6.467c0,.323,0,.826-.036,1.473l1.8-.252a57.177,57.177,0,0,0-.611-7.9Zm2.371,0a33.737,33.737,0,0,1,1.078,6.611l1.581-.5a37.766,37.766,0,0,0-1.258-6.431Zm2.335-.287a21.188,21.188,0,0,1,1.329,4.994l1.365-.575a23.288,23.288,0,0,0-1.437-4.815Z" transform="translate(793.58 1875.224)" fill="#0b2257"/>
      <g id="Path_683" data-name="Path 683" transform="translate(544 1820)" fill="none">
        <path d="M0,0H508.025V71.023H0Z" stroke="none"/>
        <path d="M 1 1.000015258789062 L 1 70.02326965332031 L 507.025390625 70.02326965332031 L 507.025390625 1.000015258789062 L 1 1.000015258789062 M 0 1.52587890625e-05 L 508.025390625 1.52587890625e-05 L 508.025390625 71.02326965332031 L 0 71.02326965332031 L 0 1.52587890625e-05 Z" stroke="none" fill="#0b2257"/>
      </g>
      <g id="Path_684" data-name="Path 684" transform="translate(544 1890.188)" fill="none">
        <path d="M0,0H508.025V60.161H0Z" stroke="none"/>
        <path d="M 1 1.000011444091797 L 1 59.160888671875 L 507.025390625 59.160888671875 L 507.025390625 1.000011444091797 L 1 1.000011444091797 M 0 1.1444091796875e-05 L 508.025390625 1.1444091796875e-05 L 508.025390625 60.160888671875 L 0 60.160888671875 L 0 1.1444091796875e-05 Z" stroke="none" fill="#0b2257"/>
      </g>
      <g id="Path_685" data-name="Path 685" transform="translate(544 1949.513)" fill="none">
        <path d="M0,0H508.025V223.932H0Z" stroke="none"/>
        <path d="M 1 1 L 1 222.9322357177734 L 507.025390625 222.9322357177734 L 507.025390625 1 L 1 1 M 0 0 L 508.025390625 0 L 508.025390625 223.9322357177734 L 0 223.9322357177734 L 0 0 Z" stroke="none" fill="#0b2257"/>
      </g>
      <path id="Path_686" data-name="Path 686" d="M0,0V282.422" transform="translate(879.063 1891.441)" fill="none" stroke="#0b2257" stroke-width="1"/>
      <g id="Path_687" data-name="Path 687" transform="translate(544 2162.583)" fill="#0b2257">
        <path d="M 507.525390625 70.52326965332031 L 0.5000078082084656 70.52326965332031 L 0.5000078082084656 0.5000174641609192 L 507.525390625 0.5000174641609192 L 507.525390625 70.52326965332031 Z" stroke="none"/>
        <path d="M 1 1.000015258789062 L 1 70.02326965332031 L 507.025390625 70.02326965332031 L 507.025390625 1.000015258789062 L 1 1.000015258789062 M 0 1.52587890625e-05 L 508.025390625 1.52587890625e-05 L 508.025390625 71.02326965332031 L 0 71.02326965332031 L 0 1.52587890625e-05 Z" stroke="none" fill="#0b2257"/>
      </g>
      <path id="Path_688" data-name="Path 688" d="M12.188-12.07v.12l.08,7.38v.441a11.853,11.853,0,0,1-.08,1.584h1.624a18.209,18.209,0,0,1-.1-2.045l-.14-9.766H16.56a16.408,16.408,0,0,1,1.664.06V-15.76a10.134,10.134,0,0,1-2.005.12H13.572l-.04-2.005v-.481a7.7,7.7,0,0,1,.08-1.1h-1.6a9.556,9.556,0,0,1,.1,1.624l.02,1.965-7.3.04a11.332,11.332,0,0,1-2.266-.14v1.5a15.757,15.757,0,0,1,2.226-.08l6.578-.04a19.33,19.33,0,0,1-2.888,3.65,22.765,22.765,0,0,1-6.8,4.793,3.233,3.233,0,0,1,1,1.2A30.849,30.849,0,0,0,5.992-6.776a23.4,23.4,0,0,0,4.753-4.432,12.489,12.489,0,0,0,1.5-2.246c-.04.862-.06,1.163-.06,1.3ZM24.8-17.505a21.088,21.088,0,0,1,4.933,2.647l.822-1.344a29.652,29.652,0,0,0-4.973-2.527Zm-1.584,4.793a22.266,22.266,0,0,1,5.114,2.747l.782-1.344a30.59,30.59,0,0,0-5.094-2.627ZM23.9-3.107a4.707,4.707,0,0,1,.782-.221c.4-.08.762-.16,1.083-.221a22.906,22.906,0,0,0,5.074-1.725,15.719,15.719,0,0,0,7.721-8.643,6.047,6.047,0,0,1-1.243-1.063,14.933,14.933,0,0,1-2.406,4.492,13.208,13.208,0,0,1-6.016,4.472A17.342,17.342,0,0,1,23.5-4.771ZM48.906-15.319l-4.091.642a15.023,15.023,0,0,1-2.086.2l.281,1.524a16.517,16.517,0,0,1,2.005-.441l4.131-.642.722,4.051-5.334.862a10.553,10.553,0,0,1-1.985.18l.261,1.524a10.619,10.619,0,0,1,1.925-.4l5.374-.862.822,4.492a15.984,15.984,0,0,1,.241,1.925l1.6-.3a10.881,10.881,0,0,1-.441-1.905L51.513-8.9l5.033-.8c.14-.02.241-.04.461-.08.341-.06.541-.1.622-.1a5.926,5.926,0,0,1,.882-.1l-.281-1.484a12.323,12.323,0,0,1-1.985.461l-4.973.8-.762-4.051,4.552-.7c1.243-.2,1.243-.2,1.785-.261l-.281-1.444a9.419,9.419,0,0,1-1.765.4l-4.532.7-.4-2.206a10.334,10.334,0,0,1-.221-1.7l-1.584.261a6.838,6.838,0,0,1,.441,1.7ZM65.15-18.788a11.794,11.794,0,0,1,.08,1.685v5.354a12.159,12.159,0,0,1-.08,1.685h1.664a10.62,10.62,0,0,1-.08-1.664v-5.394a10.955,10.955,0,0,1,.08-1.664Zm8.864,0a11.151,11.151,0,0,1,.08,1.765v2.266a24.934,24.934,0,0,1-.281,5.114A5.982,5.982,0,0,1,70.6-5.413a11.676,11.676,0,0,1-3.81,1.364,3.835,3.835,0,0,1,.842,1.384,15.788,15.788,0,0,0,3.65-1.444A7.62,7.62,0,0,0,75.1-8.561a22.6,22.6,0,0,0,.5-6.116v-2.366a8.951,8.951,0,0,1,.1-1.745Zm20.395,3.57a21.93,21.93,0,0,1-3.269,4.753A18.3,18.3,0,0,1,86.447-6.4a3.783,3.783,0,0,1,.943,1.183A21.454,21.454,0,0,0,91.2-8.581a18.746,18.746,0,0,0,3.79-5.8c-.06,1.083-.08,1.845-.08,2.587v4.552H92.944a12.079,12.079,0,0,1-1.985-.1v1.4a11.255,11.255,0,0,1,2.025-.12h1.925v1.885a15.914,15.914,0,0,1-.14,2.326h1.584a14.919,14.919,0,0,1-.14-2.306V-6.054h2.146a11.034,11.034,0,0,1,1.985.12v-1.4a11.822,11.822,0,0,1-1.945.1H96.213V-11.79c0-.662-.02-1.4-.08-2.607a19.086,19.086,0,0,0,3.75,5.635,22.759,22.759,0,0,0,4.171,3.509,5.312,5.312,0,0,1,.922-1.3,20.848,20.848,0,0,1-8.262-8.663h5.414a21.642,21.642,0,0,1,2.246.12v-1.464a13.131,13.131,0,0,1-2.246.14H96.213v-1.725a10.779,10.779,0,0,1,.14-1.8H94.769a11.361,11.361,0,0,1,.14,1.825v1.7H89.294a14.933,14.933,0,0,1-2.206-.14V-15.1a19.784,19.784,0,0,1,2.206-.12Zm16.845,4.813a13.034,13.034,0,0,0,2.828,2.527,4.815,4.815,0,0,1,.682-1.1,12.16,12.16,0,0,1-3.229-2.727,17.283,17.283,0,0,0,2.206-3.409c.221-.421.341-.642.481-.862l-.622-.7a7.3,7.3,0,0,1-1.163.06h-1.163v-1.845a8.548,8.548,0,0,1,.12-1.564h-1.5a11.507,11.507,0,0,1,.1,1.544v1.865h-1.183a13.168,13.168,0,0,1-1.564-.08v1.324a13.86,13.86,0,0,1,1.6-.08h3.75a13.6,13.6,0,0,1-2.487,3.73,17.272,17.272,0,0,1-3.61,2.968,3.773,3.773,0,0,1,.742,1.123A20.56,20.56,0,0,0,110.01-10v6.237a13.648,13.648,0,0,1-.12,1.985h1.484a12.98,12.98,0,0,1-.12-1.965Zm6.959-3.409h-1.985a12.8,12.8,0,0,1-1.965-.12v1.4c.622-.06,1.283-.1,1.965-.1h1.985v8.563h-2.727a13.951,13.951,0,0,1-2.166-.12v1.5a13.248,13.248,0,0,1,2.146-.14h7.219a13.681,13.681,0,0,1,2.166.14v-1.5a13.951,13.951,0,0,1-2.166.12h-3.168v-8.563h2.627c.7,0,1.344.04,1.965.1v-1.4a12.979,12.979,0,0,1-1.965.12h-2.627v-4.332a9.449,9.449,0,0,1,.14-1.825h-1.584a11.9,11.9,0,0,1,.14,1.825Zm17.627,1.243a1.652,1.652,0,0,0-1.644,1.644,1.652,1.652,0,0,0,1.644,1.644,1.652,1.652,0,0,0,1.644-1.644A1.652,1.652,0,0,0,135.839-12.572Zm20.174-2.507A7.817,7.817,0,0,1,157.3-15v-1.283a8.241,8.241,0,0,1-1.3.08H154.87v-1.885a12.386,12.386,0,0,1,.1-1.985h-1.384a12.961,12.961,0,0,1,.1,2.025V-16.2h-1.344a11.09,11.09,0,0,1-1.524-.08V-15a11.545,11.545,0,0,1,1.5-.08h1.183a20.607,20.607,0,0,1-3.269,7.741,5.183,5.183,0,0,1,.882,1.063c1.283-2.086,1.765-3.309,2.707-7-.06,1.3-.14,3.068-.14,3.429v5.715a15.618,15.618,0,0,1-.12,2.226h1.424a15.048,15.048,0,0,1-.12-2.226v-6.056c0-.8,0-.8-.08-3.189a16.267,16.267,0,0,0,1.945,4.332,4.877,4.877,0,0,1,.7-1.143,14.491,14.491,0,0,1-2.527-4.893Zm-8.663-3.75a12.475,12.475,0,0,1,2.848,2.567l.862-.922a14.4,14.4,0,0,0-2.868-2.527Zm-.762,4.993a13.951,13.951,0,0,1,3.088,2.447l.8-1.063a19.669,19.669,0,0,0-3.128-2.306Zm2.647,4.452a20.137,20.137,0,0,1-1.7,4.652,4.1,4.1,0,0,1-.922,1.424l1.183,1c.1-.221.16-.341.4-.822a27.412,27.412,0,0,0,2.086-5.495Zm8.784,5.234A12.159,12.159,0,0,1,157.9-2.2h1.283v-.862h3.85v.922h1.3a15.921,15.921,0,0,1-.12-2.106V-17.244a15.044,15.044,0,0,1,.08-1.965,13.638,13.638,0,0,1-1.885.08H159.9c-.882,0-1.424-.02-1.965-.06a17.668,17.668,0,0,1,.08,1.945ZM159.2-17.986h3.83v3.63H159.2Zm0,4.733h3.83v3.69H159.2Zm0,4.793h3.83v4.251H159.2Zm13.235-2.286a10.661,10.661,0,0,1-1.8-.1v1.283a10.453,10.453,0,0,1,1.745-.1h2.707v2.146H172.7a11.2,11.2,0,0,1-1.845-.1v1.263a11.84,11.84,0,0,1,1.825-.1h2.406v1.765a17.278,17.278,0,0,1-.1,2.246h1.424a16.87,16.87,0,0,1-.1-2.266V-6.455h2.968a10.866,10.866,0,0,1,1.765.1V-7.619a10.425,10.425,0,0,1-1.765.1h-2.968V-9.664h3.128a11.17,11.17,0,0,1,1.765.1v-1.283a10.281,10.281,0,0,1-1.765.1h-1.524a16.982,16.982,0,0,0,1.5-2.386l-1.2-.361a10.758,10.758,0,0,1-1.584,2.747Zm-3.289-7.42a12.6,12.6,0,0,1-2.045-.14v1.424a14.562,14.562,0,0,1,2.045-.12h6v2.066h-4.953a15.17,15.17,0,0,1-1.825-.08,14.651,14.651,0,0,1,.08,1.725v9.325a13.888,13.888,0,0,1-.12,2.126h1.5a11.861,11.861,0,0,1-.1-2.066v-9.906h12.534v9.987c0,.421-.2.521-.963.521a12.882,12.882,0,0,1-2.386-.221,3.5,3.5,0,0,1,.341,1.3c.782.06,1.444.1,2.086.1,1.745,0,2.206-.341,2.206-1.6v-9.606a13.522,13.522,0,0,1,.08-1.685,14.393,14.393,0,0,1-1.8.08h-5.414V-17h6.377a15.708,15.708,0,0,1,2.066.12v-1.424a10.478,10.478,0,0,1-2.066.14h-6.377a10.039,10.039,0,0,1,.14-1.945H175a9.637,9.637,0,0,1,.14,1.945Zm3.128,5.094a11.684,11.684,0,0,1,1.324,2.206l1.023-.441a20.521,20.521,0,0,0-1.3-2.226Zm22.861-3.469V-5.092h-5.655a15.081,15.081,0,0,1-2.366-.14v1.564a15.484,15.484,0,0,1,2.346-.14h13.175a14.968,14.968,0,0,1,2.346.14V-5.232a14.968,14.968,0,0,1-2.346.14h-6.056V-16.542h4.833a19.328,19.328,0,0,1,2.306.12v-1.524a17.878,17.878,0,0,1-2.326.12H190.726a17.456,17.456,0,0,1-2.326-.12v1.524a19.092,19.092,0,0,1,2.306-.12Zm22.34,8.1A11.373,11.373,0,0,1,212.4-4.37a2.912,2.912,0,0,1,.862.943,13.822,13.822,0,0,0,5.515-5.013h1.985a9.779,9.779,0,0,1-1.644,2.627,12.73,12.73,0,0,1-3.931,3.048,3.424,3.424,0,0,1,.922.943,16.284,16.284,0,0,0,1.624-1.123A20.468,20.468,0,0,0,220.2-5.413a11.61,11.61,0,0,0,1.785-3.028h1.344a24.382,24.382,0,0,1-.441,3.85c-.261,1.2-.4,1.364-1.2,1.364a13.852,13.852,0,0,1-2.386-.221,3.4,3.4,0,0,1,.4,1.3c.622.04,1.283.08,1.745.08,1.364,0,1.865-.2,2.226-.922a20.012,20.012,0,0,0,.882-5.354,9.094,9.094,0,0,1,.1-1.183,15.65,15.65,0,0,1-1.965.08h-6.638a9.813,9.813,0,0,0,.922-1.464h6.136a17.091,17.091,0,0,1,1.985.08v-1.263a11.391,11.391,0,0,1-1.985.12h-8.563a9.874,9.874,0,0,1-1.845-.12v1.3a9.816,9.816,0,0,1,1.8-.12h1.223a9.627,9.627,0,0,1-4.652,4.231,3.565,3.565,0,0,1,.822.9,12.858,12.858,0,0,0,3.369-2.667Zm-7.841-6.377h-.822a11.209,11.209,0,0,1-1.745-.1v1.324a14.454,14.454,0,0,1,1.7-.1h.862v5.735a9.992,9.992,0,0,1-2.587.983l.381,1.4c.18-.1.742-.381,1.063-.521a36.959,36.959,0,0,0,4.171-2.266l-.08-1.2a17.339,17.339,0,0,1-1.7,1.023v-5.154h.481a15.665,15.665,0,0,1,1.664.08V-14.9a11.835,11.835,0,0,1-1.664.08h-.481v-2.767a13.675,13.675,0,0,1,.12-2.226h-1.484a15.885,15.885,0,0,1,.12,2.206Zm11.852,1.524c.782,0,1.4.02,1.845.06a11.806,11.806,0,0,1-.08-1.785v-2.507a14.652,14.652,0,0,1,.08-1.865,14.686,14.686,0,0,1-2.086.1h-5.234a12.947,12.947,0,0,1-1.925-.1,13.494,13.494,0,0,1,.08,1.765v2.607a15.45,15.45,0,0,1-.08,1.8,14.142,14.142,0,0,1,1.825-.08Zm-6.136-4.953h6.718v1.464h-6.718Zm0,2.447h6.718v1.524h-6.718Z" transform="translate(684.935 2209.34)" fill="#fff"/>
      <path id="Path_691" data-name="Path 691" d="M-32.548-13.695v.936H-35.84a11.715,11.715,0,0,1-1.822-.084,15.951,15.951,0,0,1,.067,1.721v3.075c-.017,1.153-.017,1.153-.017,1.22a2.177,2.177,0,0,0-.05.485,12.745,12.745,0,0,1,1.888-.084h1.8A9.919,9.919,0,0,1-36.358-4.7,13.992,13.992,0,0,1-39.5-3.468a7.141,7.141,0,0,1,.936,1.688,17.34,17.34,0,0,0,2.858-1.287,10.881,10.881,0,0,0,3.192-2.64c-.017.318-.033.936-.033,1.136v1.2a13.4,13.4,0,0,1-.117,1.905h2.056a10.235,10.235,0,0,1-.117-1.905v-1.2c0-.284-.017-.6-.033-1.153a10.834,10.834,0,0,0,2.924,2.406A17.5,17.5,0,0,0-24.41-1.8a11.047,11.047,0,0,1,.953-1.771,11.784,11.784,0,0,1-5.8-2.858h2.005a13.193,13.193,0,0,1,1.872.084,13.17,13.17,0,0,1-.067-1.7v-3.092c0-.635.017-1.187.067-1.688a16.178,16.178,0,0,1-1.855.067h-3.493v-.936h4.679a17.855,17.855,0,0,1,2.072.1v-1.838a14,14,0,0,1-2.189.117h-4.562a8.3,8.3,0,0,1,.1-1.5h-2.039a9.652,9.652,0,0,1,.117,1.5H-36.96a14.712,14.712,0,0,1-2.139-.117v1.838a14.29,14.29,0,0,1,2.022-.1Zm0,2.373V-10.3h-3.275v-1.019Zm1.822,0h3.509V-10.3h-3.509Zm-1.822,2.406v1.053h-3.275V-8.916Zm1.822,0h3.509v1.053h-3.509Zm11.38,6.935V-3.2h9.024v1.22h2.089a18.805,18.805,0,0,1-.1-2.122v-9.592a14.63,14.63,0,0,1,.084-1.838,15.37,15.37,0,0,1-1.872.084h-9.442a14.915,14.915,0,0,1-1.855-.084c.05.585.084,1.1.084,1.838V-4.1a14.61,14.61,0,0,1-.117,2.122Zm0-11.581h9.024v8.456h-9.024Z" transform="translate(705.075 1928.883)" fill="#0b2257"/>
      <path id="Path_692" data-name="Path 692" d="M6.506-3.813H5.289v1.9H4.295v-1.9h-4V-4.69l3.931-5.627H5.289v5.58H6.506ZM4.295-4.737V-7.369q0-.608.018-1.035t.041-.813H4.306a5.33,5.33,0,0,1-.234.48A3.883,3.883,0,0,1,3.8-8.3L1.3-4.737Zm7.849-3.907H10.775a9.425,9.425,0,0,0-.842-1.439l-.62.269a7.253,7.253,0,0,1,.725,1.17H8.717a7.658,7.658,0,0,1-1.181-.07v.76a8.2,8.2,0,0,1,1.181-.07h2.737A10.4,10.4,0,0,1,7.278-5.743a1.921,1.921,0,0,1,.421.655c.6-.234.831-.339,1.334-.585,0,.175.012.421.012.655V-2.1a7.382,7.382,0,0,1-.07,1.088h.76v-.632h5.709v.632h.76a7.01,7.01,0,0,1-.07-1.1V-5.029c0-.292,0-.386.012-.655.433.2.5.234,1.462.608a2.506,2.506,0,0,1,.409-.7,11.02,11.02,0,0,1-4.492-2.246H16.4a8.2,8.2,0,0,1,1.181.07v-.76a6.414,6.414,0,0,1-1.181.07H15a11.292,11.292,0,0,0,.9-1.5l-.714-.269a8.264,8.264,0,0,1-.936,1.766h-1.4V-10.41c.959-.105,2.48-.328,3.334-.5.117-.023.2-.035.246-.047L16.648-11l-.526-.667a25.169,25.169,0,0,1-6.867.807c-.246,0-.491,0-.959-.012a2.285,2.285,0,0,1,.316.678c1.181-.012,2.375-.07,3.533-.152ZM9.957-5.953H9.594a8.892,8.892,0,0,0,2.6-2,3.223,3.223,0,0,0-.047.456v.409a5.494,5.494,0,0,1-.047.8h.784a6.891,6.891,0,0,1-.035-.8v-.421c0-.058-.012-.105-.023-.269-.012-.082-.012-.117-.023-.187a9.787,9.787,0,0,0,2.784,2.012H9.957Zm-.222.608h2.421v1.193H9.734Zm0,1.79h2.421v1.287H9.734Zm3.1-1.79h2.609v1.193H12.834Zm.012,1.79h2.585v1.287H12.846Zm9.124-6.867a1.292,1.292,0,0,1,.012.187,9.278,9.278,0,0,1-.117,1.1,13.547,13.547,0,0,1-1.2,4.059,7.52,7.52,0,0,1-1.7,2.316,2.561,2.561,0,0,1,.749.608c1.649-1.72,2.6-3.966,3.088-7.3a4.247,4.247,0,0,1,.152-.8Zm3.357.175a5.085,5.085,0,0,1,.152.772,14.055,14.055,0,0,0,3.182,7.346,2.53,2.53,0,0,1,.725-.655,10.324,10.324,0,0,1-2.655-4.831,14.136,14.136,0,0,1-.538-2.808Zm1.521-.5a8.824,8.824,0,0,1,1.158,1.883l.6-.339a8.667,8.667,0,0,0-1.17-1.837Zm1.345-.6a9.167,9.167,0,0,1,1.158,1.86l.585-.316a8.966,8.966,0,0,0-1.17-1.848Zm12.482,8.8a29.092,29.092,0,0,0-3.9-3.509,14.146,14.146,0,0,0,1.93-3.275,2.183,2.183,0,0,1,.328-.573l-.491-.5a2.181,2.181,0,0,1-.749.094l-4.176.047h-.3a5.5,5.5,0,0,1-.924-.058l.023.948a7.871,7.871,0,0,1,1.2-.094l3.907-.058a1.987,1.987,0,0,0,.281-.012.248.248,0,0,1-.035.082c-.023.058-.035.07-.058.14A12.679,12.679,0,0,1,33.54-4.047,9.416,9.416,0,0,1,31.165-2.7a2.6,2.6,0,0,1,.573.772,15.064,15.064,0,0,0,2.293-1.4,12.7,12.7,0,0,0,2.234-2.094,21.757,21.757,0,0,1,3.743,3.615Zm7.966-8.036H46.618a7.509,7.509,0,0,1-1.135-.07v.76a7.9,7.9,0,0,1,1.1-.058h5.135A7.973,7.973,0,0,1,52.83-9.9v-.76a7.742,7.742,0,0,1-1.158.07H49.379v-.246a4.77,4.77,0,0,1,.058-.784h-.866a3.739,3.739,0,0,1,.07.784Zm.2,6.422v2c0,.234-.094.292-.491.292A8.508,8.508,0,0,1,46.992-2a2.675,2.675,0,0,1,.164.749c.445.035.737.047,1.252.047.924,0,1.17-.175,1.17-.854V-4.164h1.146a9.032,9.032,0,0,1,1.17.058v-.749a6.8,6.8,0,0,1-1.146.058H47.285a8.284,8.284,0,0,1-1.135-.058v.749A8.744,8.744,0,0,1,47.3-4.164ZM43.682-2.386a11.638,11.638,0,0,1-.07,1.4h.854a11.68,11.68,0,0,1-.058-1.369v-6.34c.4-1.018.468-1.2.62-1.673.211-.678.211-.678.351-1.065l-.807-.211A10.183,10.183,0,0,1,43.74-9.03a10.709,10.709,0,0,1-1.649,2.6,2.344,2.344,0,0,1,.456.632,10.6,10.6,0,0,0,1.181-1.813c-.035.585-.047.983-.047,1.439ZM46.29-7.837a5.932,5.932,0,0,1-.047.8,9.244,9.244,0,0,1,1.1-.047h3.428a8.847,8.847,0,0,1,1.111.047,5.089,5.089,0,0,1-.047-.737V-8.55a5.818,5.818,0,0,1,.047-.8,9.151,9.151,0,0,1-1.076.058H47.331a9.216,9.216,0,0,1-1.088-.058,6.53,6.53,0,0,1,.047.819Zm.69-.866h4.164v1.029H46.981Zm-1.8,3.451a4.323,4.323,0,0,1-.047.7h.749V-5.743h6.282v1.2h.772a4.323,4.323,0,0,1-.047-.7v-.4a7.391,7.391,0,0,1,.035-.784,12.129,12.129,0,0,1-1.345.058H46.255c-.526,0-.784-.012-1.111-.035a6.923,6.923,0,0,1,.035.76Z" transform="translate(707.723 1927.199)" fill="#0b2257"/>
      <path id="Path_693" data-name="Path 693" d="M3.906-9.774a6.566,6.566,0,0,1,.762.04v-1.39a4.376,4.376,0,0,1-.789.053H3.6v-1.056a9.563,9.563,0,0,1,.067-1.39H2.154a9.016,9.016,0,0,1,.067,1.39v1.056H1.673a6.389,6.389,0,0,1-.949-.053v1.4a6.355,6.355,0,0,1,.963-.053h.455a12.108,12.108,0,0,1-1.8,4.238,3.426,3.426,0,0,1,.842,1.083A11.017,11.017,0,0,0,2.3-7.167c-.027.388-.04.548-.04.842,0,.174-.013.294-.013.321,0,.307-.013.562-.013.588v2.674A11.131,11.131,0,0,1,2.141-1.1H3.678A13.264,13.264,0,0,1,3.6-2.741V-6.2c-.013-.281-.013-.575-.027-.882a8.414,8.414,0,0,0-.053-.842,10.158,10.158,0,0,0,.735,1.484,8.049,8.049,0,0,1,.615-1.136A7.033,7.033,0,0,1,3.652-9.774Zm8.529-1.671a11.973,11.973,0,0,1,.067-1.524,14.7,14.7,0,0,1-1.537.053H6.553a15.631,15.631,0,0,1-1.564-.053,12.908,12.908,0,0,1,.053,1.337v8.917a13,13,0,0,1-.08,1.6H6.446a10.607,10.607,0,0,1-.067-1.551v-8.957h4.706v8.77c0,.214-.134.281-.575.281a9.359,9.359,0,0,1-1.257-.107,3.741,3.741,0,0,1,.307,1.4c.294.013.789.027,1.043.027a2.831,2.831,0,0,0,1.364-.214,1.173,1.173,0,0,0,.468-1.07Zm-1.725.8a6.406,6.406,0,0,1-.989.053H7.756a6.406,6.406,0,0,1-.989-.053v1.324a7.187,7.187,0,0,1,1-.053H9.708a7.065,7.065,0,0,1,1,.053ZM10.47-7.514a5.559,5.559,0,0,1,.04-.842c-.254.013-.521.027-.9.027h-1.9c-.321,0-.495-.013-.749-.027.013.227.027.468.027.9V-4.2c0,.481-.013.8-.04,1.123h1.23v-.936H9.628a7.676,7.676,0,0,1,.882.04,6.77,6.77,0,0,1-.04-.842ZM8.184-7.14h1.1v1.912h-1.1Zm10.521-3.516a12.264,12.264,0,0,1-1.337-.053c.027.414.04.722.04,1.337v2.553c0,.575-.013.963-.04,1.337.414-.04.856-.053,1.337-.053h1.8v2.687c0,.214-.094.254-.508.254a9.91,9.91,0,0,1-1.578-.134,4.242,4.242,0,0,1,.321,1.43c.575.013.842.027,1.2.027,1.631,0,2.019-.254,2.019-1.324V-5.536h1.872c.495,0,.909.013,1.337.053a11.029,11.029,0,0,1-.053-1.3V-9.413a11.323,11.323,0,0,1,.053-1.3,11.584,11.584,0,0,1-1.364.053H21.566c.16-.361.254-.642.388-1.016H24.44a11.31,11.31,0,0,1,1.551.067v-1.444a11.247,11.247,0,0,1-1.631.08H16.767a16,16,0,0,1-1.711-.067,19.131,19.131,0,0,1,.08,2.406c0,4.492-.307,6.39-1.3,8.128a7.249,7.249,0,0,1,1.056,1.3,9.1,9.1,0,0,0,1-2.313,27.233,27.233,0,0,0,.668-7.059v-1.1h3.89a7.6,7.6,0,0,1-.374,1.016Zm.053,1.176h4.947V-8.7H18.759Zm0,1.925h4.947v.816H18.759ZM22.7-4.626A10.454,10.454,0,0,0,25.3-1.5a6.638,6.638,0,0,1,1.043-1.15,8.327,8.327,0,0,1-2.447-2.607Zm-4.586-.615A7.091,7.091,0,0,1,16-2.434a6.9,6.9,0,0,1,1.083.989,9.633,9.633,0,0,0,2.326-3.249ZM39.04-2.006a34.289,34.289,0,0,0-3.275-4.987l-1.31.735a19.942,19.942,0,0,1,1.7,2.38,41.345,41.345,0,0,1-4.84.441,42.169,42.169,0,0,0,2.5-5.147c.134-.321.187-.428.267-.588l-1.765-.455a10.759,10.759,0,0,1-.775,2.3A35.187,35.187,0,0,1,29.574-3.37c-.374.013-.455.013-.762.013-.374,0-.682-.013-.976-.04L28.1-1.685a9.977,9.977,0,0,1,1.564-.147A69.6,69.6,0,0,0,36.9-2.568c.241.455.361.682.7,1.4ZM31.125-13.183a5.024,5.024,0,0,1-.709,1.658,10.649,10.649,0,0,1-3.3,3.449,6.223,6.223,0,0,1,1.016,1.39A13.954,13.954,0,0,0,30.189-8.61a15.565,15.565,0,0,0,2.219-3.275,2.062,2.062,0,0,1,.174-.348,1.175,1.175,0,0,0,.067-.134,1.956,1.956,0,0,1,.12-.2Zm3.048.615.107.214a2.35,2.35,0,0,1,.134.267c.067.147.12.241.147.307a13.856,13.856,0,0,0,1.23,2.019,14.281,14.281,0,0,0,3.088,3.088,6.744,6.744,0,0,1,.989-1.471,13.038,13.038,0,0,1-1.27-.909,11.076,11.076,0,0,1-1.471-1.511A8.638,8.638,0,0,1,35.644-13.2Zm11.885,2.473v.548H43.879a5.541,5.541,0,0,1-1.07-.067V-8.45a6.214,6.214,0,0,1,1.043-.067h6.016a5.794,5.794,0,0,1,1.016.067V-9.613a5.318,5.318,0,0,1-1.043.067H47.449v-.548h1.885a7.617,7.617,0,0,1,1.07.053v-1.11a5.713,5.713,0,0,1-1.07.067H47.449a3.5,3.5,0,0,1,.053-.535H46c.027.174.04.321.053.535h-1.6a5.916,5.916,0,0,1-1.123-.067v1.11a8.652,8.652,0,0,1,1.11-.053Zm6.6,8.984a12.93,12.93,0,0,1-.08-1.738v-8.69a13.664,13.664,0,0,1,.067-1.6,12.8,12.8,0,0,1-1.564.067H42.6a12.671,12.671,0,0,1-1.564-.067,14.791,14.791,0,0,1,.08,1.6v8.677a15.417,15.417,0,0,1-.08,1.751h1.484v-.548h8.663v.548ZM42.515-11.886h8.65v9.051h-8.65v-1.39a3.687,3.687,0,0,1,.842.989,10.191,10.191,0,0,0,2.46-1.618c0,.107-.013.348-.013.428v.575a4.344,4.344,0,0,1-.053.762h1.444a4.154,4.154,0,0,1-.053-.762v-.575c0-.227,0-.227-.013-.468a9.108,9.108,0,0,0,2.995,1.845,9.492,9.492,0,0,1,.856-1.1,9.686,9.686,0,0,1-1.35-.428,7.507,7.507,0,0,0,.789-.615,2.6,2.6,0,0,1,.241-.227L50.1-5.736a4.678,4.678,0,0,1-.027-.709v-.976a5.188,5.188,0,0,1,.027-.722,7.45,7.45,0,0,1-.882.027H44.481a7.573,7.573,0,0,1-.882-.027,4.048,4.048,0,0,1,.04.722v.976a5.563,5.563,0,0,1-.04.722c.281-.013.281-.013.882-.027h.775a7.367,7.367,0,0,1-1.537.989c-.241.12-.642.281-1.2.495Zm6.7,6.136h.267a6.51,6.51,0,0,1-.789.709,6.757,6.757,0,0,1-1.029-.709ZM44.975-7.167h3.743V-6.7H44.975Zm10.709-4.612a8.99,8.99,0,0,1-1.43-.08v1.444a8.508,8.508,0,0,1,1.43-.08h9.078a8.14,8.14,0,0,1,1.43.08v-1.444a9.706,9.706,0,0,1-1.43.08H62.7a13.359,13.359,0,0,0,1.07-1.457l-1.511-.414a7.011,7.011,0,0,1-1.176,1.872h-1.8a11.307,11.307,0,0,0-1.243-1.885l-1.444.414a8.363,8.363,0,0,1,1.083,1.471Zm.7,7.767h2.193v1.136c0,.241-.067.294-.388.294a7.924,7.924,0,0,1-.936-.08,5.224,5.224,0,0,1,.321,1.31c.481.013.642.013.842.013,1.243,0,1.537-.254,1.537-1.283V-8.37c0-.709.013-1.016.04-1.337a7.755,7.755,0,0,1-1.19.053H56.205a11.464,11.464,0,0,1-1.257-.053c.027.334.04.548.04,1.2v5.762a11.846,11.846,0,0,1-.067,1.524h1.537a8.051,8.051,0,0,1-.08-1.43Zm0-1.257V-6.2h2.193v.936Zm0-2.193V-8.4h2.193v.936Zm4.773-2.005a8.036,8.036,0,0,1,.067,1.257v2.888a11.731,11.731,0,0,1-.053,1.43h1.511a11.425,11.425,0,0,1-.053-1.444V-8.2a7.613,7.613,0,0,1,.067-1.27Zm2.821-.361A8.61,8.61,0,0,1,64.04-8.45v5.428c0,.374-.067.428-.615.428a11.412,11.412,0,0,1-1.631-.147,4.746,4.746,0,0,1,.414,1.417c.842.04,1.123.053,1.444.053.856,0,1.217-.094,1.5-.361a1.559,1.559,0,0,0,.307-1.15V-8.41a7.884,7.884,0,0,1,.08-1.417Z" transform="translate(655.911 2111.353)" fill="#0b2257"/>
      <path id="Path_694" data-name="Path 694" d="M6.831-2.619A3.246,3.246,0,0,1,5.017-4.269c.07-.269.105-.445.152-.667a9.185,9.185,0,0,1,.257-1.158L4.62-6.246a6.142,6.142,0,0,1-.175,1.322A7.315,7.315,0,0,1,2.818-1.5a1.989,1.989,0,0,1,.62.491,8.087,8.087,0,0,0,1.334-2.5c.983,1.5,2.4,2.047,5.334,2.047.2,0,.515,0,.924-.012a3.142,3.142,0,0,1,.246-.807c-.772.035-1.146.047-1.568.047A11.348,11.348,0,0,1,7.556-2.4V-4.713H9.393a9.9,9.9,0,0,1,1.065.058v-.784a7.385,7.385,0,0,1-1.065.058H7.556V-7.065h2.492a11,11,0,0,1,1.111.058v-.772a10.3,10.3,0,0,1-1.111.058H7.568V-9.428h1.79a7.05,7.05,0,0,1,1.088.058v-.772a6.763,6.763,0,0,1-1.1.058H7.568v-.292a5.759,5.759,0,0,1,.07-1.193H6.76a4.923,4.923,0,0,1,.094,1.2v.281H5.228a6.46,6.46,0,0,1-1.065-.058v.772a6.815,6.815,0,0,1,1.065-.058H6.854V-7.72H4.667a10.069,10.069,0,0,1-1.1-.058v.772c.363-.035.714-.058,1.1-.058H6.831ZM2.947-11.662a4.882,4.882,0,0,1-1.088,1.345A8.266,8.266,0,0,1,.42-9.217a2.423,2.423,0,0,1,.48.585A10.957,10.957,0,0,0,3.263-10.8c.257-.3.257-.316.351-.409ZM1.894-2.374a10.428,10.428,0,0,1-.07,1.357h.854a10.566,10.566,0,0,1-.058-1.345V-7.053c.339-.433.55-.725.737-1.018a3.4,3.4,0,0,1,.328-.5l-.678-.409a4.452,4.452,0,0,1-.55,1.006A8.712,8.712,0,0,1,.35-5.79a1.974,1.974,0,0,1,.421.655,6.3,6.3,0,0,0,1.158-1.2c-.035.608-.035.924-.035,1.4ZM18.1-8.012V-9.568H20.7a6.763,6.763,0,0,1,1.1.058v-.784a7.01,7.01,0,0,1-1.1.07H18.1v-.339a5.431,5.431,0,0,1,.07-1.065h-.877a6.951,6.951,0,0,1,.07,1.088v2.527H15.206V-9.662a5.677,5.677,0,0,1,.07-1.041h-.866a6.832,6.832,0,0,1,.07,1.041v1.649h-.772a9.246,9.246,0,0,1-1.263-.07v.819a9.365,9.365,0,0,1,1.263-.07h3.626v2.667c0,.2-.094.246-.48.246a7.05,7.05,0,0,1-1.31-.129,2.7,2.7,0,0,1,.187.749c.421.035.842.047,1.181.047.842,0,1.181-.222,1.181-.784v-2.8h3.486a8.676,8.676,0,0,1,1.2.07v-.819a8.331,8.331,0,0,1-1.2.07Zm1.415,1.556a12.421,12.421,0,0,0,2.9,2.4,3.848,3.848,0,0,1,.538-.608,8.751,8.751,0,0,1-2.819-2.176Zm-4.387-.374a6.583,6.583,0,0,1-2.8,2.609,3.316,3.316,0,0,1,.573.573,9.138,9.138,0,0,0,2.878-2.8Zm5.054,1.755a5.4,5.4,0,0,1-1.9,1.778,10.149,10.149,0,0,1-5.311,1.439,2.677,2.677,0,0,1,.374.784,10.688,10.688,0,0,0,6.34-2.351,15.2,15.2,0,0,0,1.181-1.135Zm7.428,3.158H26.6V-7.755q0-.5.012-.807t.035-.632a4.659,4.659,0,0,1-.345.316q-.158.129-.38.328l-.889.725-.538-.69,2.258-1.755h.854Zm7.124-4.82a5.664,5.664,0,0,1-.632,2.41,5.96,5.96,0,0,1-2.948,2.562,2.445,2.445,0,0,1,.515.655,6.865,6.865,0,0,0,2.948-2.55,6.662,6.662,0,0,0,.912-3.077h2.726a16.652,16.652,0,0,1-.386,4.328c-.082.222-.211.292-.585.292a9.012,9.012,0,0,1-1.649-.2,3.243,3.243,0,0,1,.187.831c.737.07,1.146.094,1.532.094.678,0,.959-.117,1.158-.468a14.869,14.869,0,0,0,.526-4.8,5.169,5.169,0,0,1,.047-.831,8.851,8.851,0,0,1-1.228.058H34.005a8.979,8.979,0,0,1-1.217-.07v.831a9.42,9.42,0,0,1,1.2-.07Zm-.48-4.855a3.762,3.762,0,0,1-.5,1.228,9.639,9.639,0,0,1-3.205,3.428,2.575,2.575,0,0,1,.573.632A11.612,11.612,0,0,0,34.8-10.691a3.192,3.192,0,0,1,.328-.6Zm2.6.328c.058.094.129.222.187.328a11.851,11.851,0,0,0,3.942,4.7,2.886,2.886,0,0,1,.55-.714,9.756,9.756,0,0,1-3.451-3.638,4.736,4.736,0,0,1-.445-.983Z" transform="translate(731.945 2110.188)" fill="#0b2257"/>
      <path id="Path_695" data-name="Path 695" d="M0,0H61.832V15.876H0Z" transform="translate(571.574 1974.58)" fill="#becbd9"/>
      <path id="Path_696" data-name="Path 696" d="M6-8.805a4.56,4.56,0,0,1,.749.047v-.749a4.807,4.807,0,0,1-.76.047H5.335v-1.1a7.224,7.224,0,0,1,.058-1.158H4.587a7.56,7.56,0,0,1,.058,1.181V-9.46H3.861a6.469,6.469,0,0,1-.889-.047v.749a6.734,6.734,0,0,1,.877-.047h.69A12.021,12.021,0,0,1,2.633-4.29a3.024,3.024,0,0,1,.515.62A12.082,12.082,0,0,0,4.727-7.752c-.035.76-.082,1.79-.082,2v3.334a9.111,9.111,0,0,1-.07,1.3h.831a8.778,8.778,0,0,1-.07-1.3V-5.951c0-.468,0-.468-.047-1.86A9.489,9.489,0,0,0,6.423-5.284a2.845,2.845,0,0,1,.409-.667A8.453,8.453,0,0,1,5.359-8.805ZM.949-10.993A7.277,7.277,0,0,1,2.61-9.5l.5-.538A8.4,8.4,0,0,0,1.44-11.507ZM.5-8.08a8.138,8.138,0,0,1,1.8,1.427l.468-.62A11.474,11.474,0,0,0,.949-8.618Zm1.544,2.6a11.746,11.746,0,0,1-.994,2.714,2.394,2.394,0,0,1-.538.831l.69.585c.058-.129.094-.2.234-.48A15.99,15.99,0,0,0,2.656-5.038ZM7.172-2.43A7.093,7.093,0,0,1,7.1-1.295H7.85v-.5H10.1v.538h.76a9.289,9.289,0,0,1-.07-1.228v-7.58a8.776,8.776,0,0,1,.047-1.146,7.956,7.956,0,0,1-1.1.047H8.271c-.515,0-.831-.012-1.146-.035a10.307,10.307,0,0,1,.047,1.135Zm.69-8.072H10.1v2.117H7.862Zm0,2.761H10.1v2.152H7.862Zm0,2.8H10.1v2.48H7.862Zm8.072,3.006H14.928V-7.776q0-.5.012-.807t.035-.632a4.659,4.659,0,0,1-.345.316q-.158.129-.38.328l-.889.725-.538-.69,2.258-1.755h.854Zm8.306-6.4A1.861,1.861,0,0,1,23.765-7a2.348,2.348,0,0,1-1.258.661v.047A2.393,2.393,0,0,1,24-5.658a1.855,1.855,0,0,1,.5,1.345,2.461,2.461,0,0,1-.339,1.3,2.244,2.244,0,0,1-1.047.877,4.492,4.492,0,0,1-1.819.316,6.985,6.985,0,0,1-1.217-.1A3.925,3.925,0,0,1,19-2.278v-.959a4.906,4.906,0,0,0,1.135.409,5.2,5.2,0,0,0,1.17.14,2.425,2.425,0,0,0,1.62-.439,1.531,1.531,0,0,0,.5-1.211,1.2,1.2,0,0,0-.614-1.129,3.557,3.557,0,0,0-1.725-.345h-.807v-.877h.819a2.428,2.428,0,0,0,1.562-.433,1.4,1.4,0,0,0,.532-1.146,1.146,1.146,0,0,0-.409-.942,1.709,1.709,0,0,0-1.111-.333,3.021,3.021,0,0,0-1.158.2,5.854,5.854,0,0,0-.948.5l-.515-.7a4.282,4.282,0,0,1,1.105-.608,4.119,4.119,0,0,1,1.5-.257,2.8,2.8,0,0,1,1.948.585A1.928,1.928,0,0,1,24.239-8.337Zm2.024,3.194a2.671,2.671,0,0,1,.562-.058c.246-.012.515-.023.8-.023.468-.012.468-.012,1.731-.07l1.2-.047v3.088a5.516,5.516,0,0,1-.07,1.135h.9a5.516,5.516,0,0,1-.07-1.135V-5.389c1.755-.082,1.965-.105,3.615-.257.316.409.433.585.8,1.111l.608-.48a22.839,22.839,0,0,0-2.316-2.691l-.562.386a14.081,14.081,0,0,1,.994,1.065c-1.369.129-1.369.129-3.8.222.62-.573,1.743-1.72,2.2-2.258a8.413,8.413,0,0,1,.877-.994l-.737-.433a4.626,4.626,0,0,1-.69.948c-.363.433-.983,1.111-1.614,1.766A15.532,15.532,0,0,0,29.41-8.08a17.089,17.089,0,0,0,1.918-2.34c.912-.105,2.269-.339,2.924-.491a8.018,8.018,0,0,1,.784-.175l-.538-.7c-.246.105-.4.164-.445.175a15.952,15.952,0,0,1-2.421.5,39.6,39.6,0,0,1-5.182.351,2.5,2.5,0,0,1,.316.7c1.556-.07,1.965-.094,3.591-.246a13.549,13.549,0,0,1-1.474,1.813c-.257-.2-.409-.316-.983-.714l-.538.48a22.134,22.134,0,0,1,2.843,2.2c-.234.234-.421.4-.538.515-.351.012-.69.012-.866.023-.445,0-.737.012-.866.012-.292.012-.468.012-.561.012a10.731,10.731,0,0,1-1.228-.07Zm2.316.421a7.647,7.647,0,0,1-2.7,2.55,2.488,2.488,0,0,1,.562.632,9.82,9.82,0,0,0,2.772-2.784Zm4.106.222a11.464,11.464,0,0,0,2.854,2.913,3.09,3.09,0,0,1,.55-.632,10.108,10.108,0,0,1-2.8-2.632Zm4.89-1.357c.152-.035.69-.094,1.755-.187v3.814a8.307,8.307,0,0,1-.07,1.158h.831a8.427,8.427,0,0,1-.07-1.158V-6.114c.62-.082.784-.105,1.065-.152.082.246.117.351.211.7l.573-.269A9.689,9.689,0,0,0,40.9-8l-.5.257a6.458,6.458,0,0,1,.48.936,15.9,15.9,0,0,1-1.813.175,32.6,32.6,0,0,0,1.989-3.03,2.25,2.25,0,0,1,.269-.409l-.69-.386a11.1,11.1,0,0,1-1.193,2.2c-.234-.316-.351-.456-.655-.807a15.789,15.789,0,0,0,.959-1.579,7.677,7.677,0,0,1,.445-.8l-.714-.351A8.962,8.962,0,0,1,38.359-9.53c-.222-.246-.246-.257-.5-.526l-.386.538A12.828,12.828,0,0,1,39.06-7.67c-.281.433-.281.433-.749,1.088-.164,0-.374.012-.491.012a1.716,1.716,0,0,1-.363-.023Zm9.288-3.626a9.844,9.844,0,0,1,1.053.058V-10.2a6.848,6.848,0,0,1-1.088.07h-2v-.526a5.305,5.305,0,0,1,.07-.994h-.842a6.41,6.41,0,0,1,.07.994v.526h-1.5a6.747,6.747,0,0,1-1.088-.07v.772a6.219,6.219,0,0,1,1.053-.058h1.018a12.593,12.593,0,0,1-1.123,2.047c-.2.012-.269.012-.351.012-.2,0-.316-.012-.526-.023l.14.76a7.568,7.568,0,0,1,.76-.082c2.129-.14,2.761-.187,4.27-.386.222.292.339.445.632.889l.573-.468a16.725,16.725,0,0,0-2.164-2.433l-.526.386a11.877,11.877,0,0,1,1.018,1.053c-.936.117-1.907.2-3.041.257a13.9,13.9,0,0,0,1.076-2.012ZM38.09-5.354A9.468,9.468,0,0,1,37.446-2.1l.62.316a10.82,10.82,0,0,0,.667-3.439Zm2.445.117a10.935,10.935,0,0,1,.526,2.4l.62-.246a15.581,15.581,0,0,0-.562-2.363Zm4.422-1.076a6.971,6.971,0,0,1,.058,1.146v3.053c0,.632.222.772,1.275.772.784,0,1.135-.094,1.322-.351a4.745,4.745,0,0,0,.4-2.223,2.077,2.077,0,0,1-.714-.316,7.136,7.136,0,0,1-.175,1.965c-.07.187-.292.257-.866.257-.445,0-.515-.047-.515-.339V-5.167A7.059,7.059,0,0,1,45.8-6.313Zm-1.977.023a3.67,3.67,0,0,1,.058.749,4.96,4.96,0,0,1-.5,2.375A3.638,3.638,0,0,1,40.92-1.7a2.1,2.1,0,0,1,.6.573,4.4,4.4,0,0,0,1.6-1.579,5.445,5.445,0,0,0,.632-2.667,5.009,5.009,0,0,1,.058-.912Z" transform="translate(578.175 1989.052)" fill="#0b2257"/>
      <g id="Group_2441" data-name="Group 2441" transform="translate(569.067 2002.989)">
        <text id="湘南台駅東口" transform="translate(-0.039 10.012)" fill="#0b2257" font-size="11" font-family="PingFangSC-Semibold, PingFang SC" font-weight="600"><tspan x="0" y="0">湘南台駅東口</tspan></text>
        <text id="行" transform="translate(75.961 11.012)" fill="#0b2257" font-size="12" font-family="PingFangSC-Regular, PingFang SC"><tspan x="0" y="0">行</tspan></text>
      </g>
      <g id="Group_2442" data-name="Group 2442" transform="translate(569.067 2027.221)">
        <text id="湘南台駅西口" transform="translate(-0.039 9.779)" fill="#0b2257" font-size="11" font-family="PingFangSC-Semibold, PingFang SC" font-weight="600"><tspan x="0" y="0">湘南台駅西口</tspan></text>
        <text id="行-2" data-name="行" transform="translate(75.961 10.779)" fill="#0b2257" font-size="12" font-family="PingFangSC-Regular, PingFang SC"><tspan x="0" y="0">行</tspan></text>
      </g>
      <path id="Path_697" data-name="Path 697" d="M.8-5.808a4.237,4.237,0,0,1,.714-.082c.445-.035.445-.035,1.31-.117V-2.24a8.676,8.676,0,0,1-.07,1.2h.854a8.494,8.494,0,0,1-.07-1.193V-6.077c.445-.047.714-.082.807-.094a1.882,1.882,0,0,0,.292-.035c.117.3.152.409.269.784l.6-.269A12.672,12.672,0,0,0,4.474-7.914L3.936-7.7a9.834,9.834,0,0,1,.468.924c-.807.105-1.018.117-1.9.175a25.615,25.615,0,0,0,2.164-2.96c.164-.234.234-.339.339-.48l-.69-.409A11.982,11.982,0,0,1,2.976-8.241c-.246-.292-.433-.5-.784-.854a17.934,17.934,0,0,0,1.158-1.837,4.244,4.244,0,0,1,.269-.445L2.895-11.7A8.7,8.7,0,0,1,1.737-9.54c-.187-.187-.246-.234-.5-.48L.8-9.47A11.6,11.6,0,0,1,2.579-7.68c-.339.456-.456.608-.889,1.123-.187.012-.538.023-.6.023a2.667,2.667,0,0,1-.421-.035Zm9.347-3.205a32.762,32.762,0,0,1-.5,6.118c-.164.749-.292.889-.842.889a9.231,9.231,0,0,1-1.556-.152,2.814,2.814,0,0,1,.2.807c.468.047.9.07,1.24.07,1.123,0,1.415-.246,1.685-1.369a29.3,29.3,0,0,0,.5-5.3,17.608,17.608,0,0,1,.058-1.8,6.331,6.331,0,0,1-.948.047H7.059c.152-.374.246-.608.339-.866.211-.585.211-.585.3-.807l-.8-.2a7.324,7.324,0,0,1-.655,1.93,7.594,7.594,0,0,1-1.31,2,2.129,2.129,0,0,1,.608.456A9.1,9.1,0,0,0,6.743-9.013ZM1.467-5.247A8.655,8.655,0,0,1,.7-2.112l.643.3a10.359,10.359,0,0,0,.772-3.311Zm2.714.117a15.429,15.429,0,0,1,.6,2.819l.678-.222a18.62,18.62,0,0,0-.69-2.784ZM8.65-4.72A14.022,14.022,0,0,0,6.989-7.575l-.608.351a11.33,11.33,0,0,1,1.6,2.9Zm6.492-5.674a2.969,2.969,0,0,1,1.8.515,1.729,1.729,0,0,1,.7,1.486,1.722,1.722,0,0,1-.216.877,2.321,2.321,0,0,1-.579.661,4.856,4.856,0,0,1-.8.509,6.753,6.753,0,0,1,.936.562,2.481,2.481,0,0,1,.673.714,1.841,1.841,0,0,1,.252.983,2.042,2.042,0,0,1-.749,1.667,3.038,3.038,0,0,1-1.989.614A3.2,3.2,0,0,1,13.1-2.4a2.022,2.022,0,0,1-.719-1.655,1.984,1.984,0,0,1,.24-.988,2.38,2.38,0,0,1,.638-.731,4.519,4.519,0,0,1,.854-.515,3.8,3.8,0,0,1-1.041-.848,1.9,1.9,0,0,1-.421-1.269,1.764,1.764,0,0,1,.328-1.076,2.059,2.059,0,0,1,.889-.678A3.289,3.289,0,0,1,15.142-10.394Zm-.012.831a1.716,1.716,0,0,0-1.065.31,1.054,1.054,0,0,0-.409.895,1.234,1.234,0,0,0,.2.725,1.725,1.725,0,0,0,.556.5,7.9,7.9,0,0,0,.772.392,3.783,3.783,0,0,0,1.024-.62,1.251,1.251,0,0,0,.415-.994,1.054,1.054,0,0,0-.409-.895A1.757,1.757,0,0,0,15.131-9.563ZM13.388-4.042a1.325,1.325,0,0,0,.433,1.012,1.9,1.9,0,0,0,1.334.4,1.893,1.893,0,0,0,1.3-.4,1.34,1.34,0,0,0,.45-1.047,1.268,1.268,0,0,0-.48-1.012A4.43,4.43,0,0,0,15.154-5.8l-.187-.07a3.647,3.647,0,0,0-1.176.76A1.477,1.477,0,0,0,13.388-4.042Zm9.7-2.7a5.664,5.664,0,0,1-.632,2.41,5.96,5.96,0,0,1-2.948,2.562,2.445,2.445,0,0,1,.515.655,6.865,6.865,0,0,0,2.948-2.55,6.662,6.662,0,0,0,.912-3.077h2.726a16.652,16.652,0,0,1-.386,4.328c-.082.222-.211.292-.585.292a9.012,9.012,0,0,1-1.649-.2,3.243,3.243,0,0,1,.187.831c.737.07,1.146.094,1.532.094.678,0,.959-.117,1.158-.468a14.869,14.869,0,0,0,.526-4.8,5.168,5.168,0,0,1,.047-.831,8.851,8.851,0,0,1-1.228.058H22.36a8.979,8.979,0,0,1-1.217-.07v.831a9.42,9.42,0,0,1,1.2-.07Zm-.48-4.855a3.762,3.762,0,0,1-.5,1.228A9.639,9.639,0,0,1,18.9-6.943a2.575,2.575,0,0,1,.573.632A11.612,11.612,0,0,0,23.155-10.7a3.192,3.192,0,0,1,.328-.6Zm2.6.328c.058.094.129.222.187.328a11.851,11.851,0,0,0,3.942,4.7,2.886,2.886,0,0,1,.55-.714,9.756,9.756,0,0,1-3.451-3.638,4.736,4.736,0,0,1-.445-.983Z" transform="translate(666.718 2039.172)" fill="#0b2257"/>
      <path id="Path_698" data-name="Path 698" d="M0,0H61.832V15.876H0Z" transform="translate(726.154 1974.58)" fill="#becbd9"/>
      <path id="Path_699" data-name="Path 699" d="M6-8.805a4.56,4.56,0,0,1,.749.047v-.749a4.807,4.807,0,0,1-.76.047H5.335v-1.1a7.224,7.224,0,0,1,.058-1.158H4.587a7.56,7.56,0,0,1,.058,1.181V-9.46H3.861a6.469,6.469,0,0,1-.889-.047v.749a6.734,6.734,0,0,1,.877-.047h.69A12.021,12.021,0,0,1,2.633-4.29a3.024,3.024,0,0,1,.515.62A12.082,12.082,0,0,0,4.727-7.752c-.035.76-.082,1.79-.082,2v3.334a9.111,9.111,0,0,1-.07,1.3h.831a8.778,8.778,0,0,1-.07-1.3V-5.951c0-.468,0-.468-.047-1.86A9.489,9.489,0,0,0,6.423-5.284a2.845,2.845,0,0,1,.409-.667A8.453,8.453,0,0,1,5.359-8.805ZM.949-10.993A7.277,7.277,0,0,1,2.61-9.5l.5-.538A8.4,8.4,0,0,0,1.44-11.507ZM.5-8.08a8.138,8.138,0,0,1,1.8,1.427l.468-.62A11.474,11.474,0,0,0,.949-8.618Zm1.544,2.6a11.746,11.746,0,0,1-.994,2.714,2.394,2.394,0,0,1-.538.831l.69.585c.058-.129.094-.2.234-.48A15.99,15.99,0,0,0,2.656-5.038ZM7.172-2.43A7.093,7.093,0,0,1,7.1-1.295H7.85v-.5H10.1v.538h.76a9.289,9.289,0,0,1-.07-1.228v-7.58a8.776,8.776,0,0,1,.047-1.146,7.956,7.956,0,0,1-1.1.047H8.271c-.515,0-.831-.012-1.146-.035a10.307,10.307,0,0,1,.047,1.135Zm.69-8.072H10.1v2.117H7.862Zm0,2.761H10.1v2.152H7.862Zm0,2.8H10.1v2.48H7.862Zm8.072,3.006H14.928V-7.776q0-.5.012-.807t.035-.632a4.659,4.659,0,0,1-.345.316q-.158.129-.38.328l-.889.725-.538-.69,2.258-1.755h.854Zm5.755-5.124a3.071,3.071,0,0,1,2.041.643A2.237,2.237,0,0,1,24.5-4.605a2.608,2.608,0,0,1-.825,2.041,3.313,3.313,0,0,1-2.3.743,5.965,5.965,0,0,1-1.217-.117,3.207,3.207,0,0,1-.948-.339v-.971a3.572,3.572,0,0,0,1.024.4,4.885,4.885,0,0,0,1.152.146,2.372,2.372,0,0,0,1.491-.439A1.614,1.614,0,0,0,23.444-4.5a1.579,1.579,0,0,0-.5-1.258A2.386,2.386,0,0,0,21.35-6.2a5.509,5.509,0,0,0-.749.058q-.421.058-.678.117l-.515-.328.316-3.942h4.188v.936H20.6l-.2,2.421q.2-.035.538-.082A5.5,5.5,0,0,1,21.689-7.062Zm4.574,1.918a2.671,2.671,0,0,1,.562-.058c.246-.012.515-.023.8-.023.468-.012.468-.012,1.731-.07l1.2-.047v3.088a5.516,5.516,0,0,1-.07,1.135h.9a5.516,5.516,0,0,1-.07-1.135V-5.389c1.755-.082,1.965-.105,3.615-.257.316.409.433.585.8,1.111l.608-.48a22.839,22.839,0,0,0-2.316-2.691l-.562.386a14.081,14.081,0,0,1,.994,1.065c-1.369.129-1.369.129-3.8.222.62-.573,1.743-1.72,2.2-2.258a8.413,8.413,0,0,1,.877-.994l-.737-.433a4.626,4.626,0,0,1-.69.948c-.363.433-.983,1.111-1.614,1.766A15.532,15.532,0,0,0,29.41-8.08a17.089,17.089,0,0,0,1.918-2.34c.912-.105,2.269-.339,2.924-.491a8.018,8.018,0,0,1,.784-.175l-.538-.7c-.246.105-.4.164-.445.175a15.952,15.952,0,0,1-2.421.5,39.6,39.6,0,0,1-5.182.351,2.5,2.5,0,0,1,.316.7c1.556-.07,1.965-.094,3.591-.246a13.549,13.549,0,0,1-1.474,1.813c-.257-.2-.409-.316-.983-.714l-.538.48a22.134,22.134,0,0,1,2.843,2.2c-.234.234-.421.4-.538.515-.351.012-.69.012-.866.023-.445,0-.737.012-.866.012-.292.012-.468.012-.561.012a10.731,10.731,0,0,1-1.228-.07Zm2.316.421a7.647,7.647,0,0,1-2.7,2.55,2.488,2.488,0,0,1,.562.632,9.82,9.82,0,0,0,2.772-2.784Zm4.106.222a11.464,11.464,0,0,0,2.854,2.913,3.09,3.09,0,0,1,.55-.632,10.108,10.108,0,0,1-2.8-2.632Zm4.89-1.357c.152-.035.69-.094,1.755-.187v3.814a8.307,8.307,0,0,1-.07,1.158h.831a8.427,8.427,0,0,1-.07-1.158V-6.114c.62-.082.784-.105,1.065-.152.082.246.117.351.211.7l.573-.269A9.689,9.689,0,0,0,40.9-8l-.5.257a6.458,6.458,0,0,1,.48.936,15.9,15.9,0,0,1-1.813.175,32.6,32.6,0,0,0,1.989-3.03,2.25,2.25,0,0,1,.269-.409l-.69-.386a11.1,11.1,0,0,1-1.193,2.2c-.234-.316-.351-.456-.655-.807a15.789,15.789,0,0,0,.959-1.579,7.677,7.677,0,0,1,.445-.8l-.714-.351A8.962,8.962,0,0,1,38.359-9.53c-.222-.246-.246-.257-.5-.526l-.386.538A12.828,12.828,0,0,1,39.06-7.67c-.281.433-.281.433-.749,1.088-.164,0-.374.012-.491.012a1.716,1.716,0,0,1-.363-.023Zm9.288-3.626a9.844,9.844,0,0,1,1.053.058V-10.2a6.848,6.848,0,0,1-1.088.07h-2v-.526a5.305,5.305,0,0,1,.07-.994h-.842a6.41,6.41,0,0,1,.07.994v.526h-1.5a6.747,6.747,0,0,1-1.088-.07v.772a6.219,6.219,0,0,1,1.053-.058h1.018a12.593,12.593,0,0,1-1.123,2.047c-.2.012-.269.012-.351.012-.2,0-.316-.012-.526-.023l.14.76a7.568,7.568,0,0,1,.76-.082c2.129-.14,2.761-.187,4.27-.386.222.292.339.445.632.889l.573-.468a16.725,16.725,0,0,0-2.164-2.433l-.526.386a11.877,11.877,0,0,1,1.018,1.053c-.936.117-1.907.2-3.041.257a13.9,13.9,0,0,0,1.076-2.012ZM38.09-5.354A9.468,9.468,0,0,1,37.446-2.1l.62.316a10.82,10.82,0,0,0,.667-3.439Zm2.445.117a10.935,10.935,0,0,1,.526,2.4l.62-.246a15.581,15.581,0,0,0-.562-2.363Zm4.422-1.076a6.971,6.971,0,0,1,.058,1.146v3.053c0,.632.222.772,1.275.772.784,0,1.135-.094,1.322-.351a4.745,4.745,0,0,0,.4-2.223,2.077,2.077,0,0,1-.714-.316,7.136,7.136,0,0,1-.175,1.965c-.07.187-.292.257-.866.257-.445,0-.515-.047-.515-.339V-5.167A7.059,7.059,0,0,1,45.8-6.313Zm-1.977.023a3.67,3.67,0,0,1,.058.749,4.96,4.96,0,0,1-.5,2.375A3.638,3.638,0,0,1,40.92-1.7a2.1,2.1,0,0,1,.6.573,4.4,4.4,0,0,0,1.6-1.579,5.445,5.445,0,0,0,.632-2.667,5.009,5.009,0,0,1,.058-.912Z" transform="translate(732.755 1989.052)" fill="#0b2257"/>
      <g id="Group_2444" data-name="Group 2444" transform="translate(726.154 2002.989)">
        <text id="文化体育館前" transform="translate(-0.129 10.012)" fill="#0b2257" font-size="11" font-family="PingFangSC-Semibold, PingFang SC" font-weight="600"><tspan x="0" y="0">文化体育館前</tspan></text>
        <text id="行-3" data-name="行" transform="translate(75.871 11.012)" fill="#0b2257" font-size="12" font-family="PingFangSC-Regular, PingFang SC"><tspan x="0" y="0">行</tspan></text>
      </g>
      <g id="Group_2443" data-name="Group 2443" transform="translate(726.154 2027.221)">
        <text id="文化体育館前-2" data-name="文化体育館前" transform="translate(-0.129 9.779)" fill="#0b2257" font-size="11" font-family="PingFangSC-Semibold, PingFang SC" font-weight="600"><tspan x="0" y="0">文化体育館前</tspan></text>
        <text id="行-4" data-name="行" transform="translate(75.871 10.779)" fill="#0b2257" font-size="12" font-family="PingFangSC-Regular, PingFang SC"><tspan x="0" y="0">行</tspan></text>
      </g>
      <path id="Path_700" data-name="Path 700" d="M.8-5.808a4.237,4.237,0,0,1,.714-.082c.445-.035.445-.035,1.31-.117V-2.24a8.676,8.676,0,0,1-.07,1.2h.854a8.494,8.494,0,0,1-.07-1.193V-6.077c.445-.047.714-.082.807-.094a1.882,1.882,0,0,0,.292-.035c.117.3.152.409.269.784l.6-.269A12.672,12.672,0,0,0,4.474-7.914L3.936-7.7a9.834,9.834,0,0,1,.468.924c-.807.105-1.018.117-1.9.175a25.615,25.615,0,0,0,2.164-2.96c.164-.234.234-.339.339-.48l-.69-.409A11.982,11.982,0,0,1,2.976-8.241c-.246-.292-.433-.5-.784-.854a17.934,17.934,0,0,0,1.158-1.837,4.244,4.244,0,0,1,.269-.445L2.895-11.7A8.7,8.7,0,0,1,1.737-9.54c-.187-.187-.246-.234-.5-.48L.8-9.47A11.6,11.6,0,0,1,2.579-7.68c-.339.456-.456.608-.889,1.123-.187.012-.538.023-.6.023a2.667,2.667,0,0,1-.421-.035Zm9.347-3.205a32.762,32.762,0,0,1-.5,6.118c-.164.749-.292.889-.842.889a9.231,9.231,0,0,1-1.556-.152,2.814,2.814,0,0,1,.2.807c.468.047.9.07,1.24.07,1.123,0,1.415-.246,1.685-1.369a29.3,29.3,0,0,0,.5-5.3,17.608,17.608,0,0,1,.058-1.8,6.331,6.331,0,0,1-.948.047H7.059c.152-.374.246-.608.339-.866.211-.585.211-.585.3-.807l-.8-.2a7.324,7.324,0,0,1-.655,1.93,7.594,7.594,0,0,1-1.31,2,2.129,2.129,0,0,1,.608.456A9.1,9.1,0,0,0,6.743-9.013ZM1.467-5.247A8.655,8.655,0,0,1,.7-2.112l.643.3a10.359,10.359,0,0,0,.772-3.311Zm2.714.117a15.429,15.429,0,0,1,.6,2.819l.678-.222a18.62,18.62,0,0,0-.69-2.784ZM8.65-4.72A14.022,14.022,0,0,0,6.989-7.575l-.608.351a11.33,11.33,0,0,1,1.6,2.9Zm9.241-1.989a9.92,9.92,0,0,1-.158,1.772,4.775,4.775,0,0,1-.573,1.579,3.046,3.046,0,0,1-1.17,1.129,3.945,3.945,0,0,1-1.936.421q-.234,0-.55-.029a2.53,2.53,0,0,1-.5-.088V-2.8a3.246,3.246,0,0,0,1.029.152,2.987,2.987,0,0,0,1.351-.269,2.216,2.216,0,0,0,.848-.731,3.117,3.117,0,0,0,.456-1.076,6.851,6.851,0,0,0,.164-1.293h-.07a2.32,2.32,0,0,1-.749.684,2.392,2.392,0,0,1-1.24.287,2.349,2.349,0,0,1-1.737-.661,2.523,2.523,0,0,1-.661-1.866,3.24,3.24,0,0,1,.328-1.509,2.3,2.3,0,0,1,.93-.971,2.825,2.825,0,0,1,1.41-.339,2.652,2.652,0,0,1,1.439.4,2.735,2.735,0,0,1,1.018,1.217A4.949,4.949,0,0,1,17.891-6.709ZM15.06-9.528a1.576,1.576,0,0,0-1.187.48,2.037,2.037,0,0,0-.462,1.462A1.9,1.9,0,0,0,13.8-6.317a1.5,1.5,0,0,0,1.211.462,1.964,1.964,0,0,0,.971-.228,1.768,1.768,0,0,0,.638-.579,1.314,1.314,0,0,0,.228-.725,2.63,2.63,0,0,0-.2-.994,2.028,2.028,0,0,0-.6-.819A1.512,1.512,0,0,0,15.06-9.528Zm8.025,2.784a5.664,5.664,0,0,1-.632,2.41,5.96,5.96,0,0,1-2.948,2.562,2.445,2.445,0,0,1,.515.655,6.865,6.865,0,0,0,2.948-2.55,6.662,6.662,0,0,0,.912-3.077h2.726a16.652,16.652,0,0,1-.386,4.328c-.082.222-.211.292-.585.292a9.012,9.012,0,0,1-1.649-.2,3.243,3.243,0,0,1,.187.831c.737.07,1.146.094,1.532.094.678,0,.959-.117,1.158-.468a14.869,14.869,0,0,0,.526-4.8,5.168,5.168,0,0,1,.047-.831,8.851,8.851,0,0,1-1.228.058H22.36a8.979,8.979,0,0,1-1.217-.07v.831a9.42,9.42,0,0,1,1.2-.07Zm-.48-4.855a3.762,3.762,0,0,1-.5,1.228A9.639,9.639,0,0,1,18.9-6.943a2.575,2.575,0,0,1,.573.632A11.612,11.612,0,0,0,23.155-10.7a3.192,3.192,0,0,1,.328-.6Zm2.6.328c.058.094.129.222.187.328a11.851,11.851,0,0,0,3.942,4.7,2.886,2.886,0,0,1,.55-.714,9.756,9.756,0,0,1-3.451-3.638,4.736,4.736,0,0,1-.445-.983Z" transform="translate(823.805 2039.172)" fill="#0b2257"/>
      <path id="Path_678" data-name="Path 678" d="M-19064-10609.105l15.654,12.522,15.654-12.522" transform="translate(19762.998 12674.675)" fill="none" stroke="#545e67" stroke-width="1"/>
      <path id="Path_680" data-name="Path 680" d="M-19064-10609.105l15.654,12.522,15.654-12.522" transform="translate(19762.998 12738.365)" fill="none" stroke="#545e67" stroke-width="1"/>
      <path id="Path_703" data-name="Path 703" d="M0,0H61.832V15.876H0Z" transform="translate(904.13 1974.58)" fill="#becbd9"/>
      <path id="Path_704" data-name="Path 704" d="M4.743-7.413A6.971,6.971,0,0,1,5.89-7.471h.854a7.357,7.357,0,0,1-.468.971h-.76a6.786,6.786,0,0,1-1.158-.058v.7a6.786,6.786,0,0,1,1.158-.058H5.9A5.617,5.617,0,0,1,4.112-4.3a1.791,1.791,0,0,1,.48.5A7.031,7.031,0,0,0,6.627-5.916H8.744a7.133,7.133,0,0,0,2.129,2.047,3.135,3.135,0,0,1,.445-.562,5.805,5.805,0,0,1-1.86-1.486h.491c.538,0,.842.012,1.146.035v-.678A6.627,6.627,0,0,1,9.949-6.5H9.037a4.718,4.718,0,0,1-.491-.971h1.1c.538,0,.842.012,1.146.035v-.655a6.459,6.459,0,0,1-1.146.058H9.271a7.847,7.847,0,0,0,.69-1.123L9.329-9.4A4.829,4.829,0,0,1,8.58-8.033H7.586c.094-.328.129-.445.164-.6.152-.655.152-.655.2-.842l-.784-.035a5.416,5.416,0,0,1-.234,1.474H6.463a8.257,8.257,0,0,0-.737-1.392l-.562.246a5.825,5.825,0,0,1,.69,1.146,5.686,5.686,0,0,1-1.111-.058Zm3.182-.058a7.254,7.254,0,0,0,.456.971H6.954a8.581,8.581,0,0,0,.433-.971ZM3.784-10.782H1.959a8.315,8.315,0,0,1-1.181-.07v.772a8.549,8.549,0,0,1,1.181-.07H3.784a6.045,6.045,0,0,1-.047.749h.8a4.211,4.211,0,0,1-.047-.749H7.259a3.5,3.5,0,0,1-.047.433h.807a3.037,3.037,0,0,1-.047-.433H9.937a8.549,8.549,0,0,1,1.181.07v-.772a8.315,8.315,0,0,1-1.181.07H7.972v-.129a4.149,4.149,0,0,1,.047-.737H7.212a4.685,4.685,0,0,1,.047.737v.129H4.486v-.129a4.32,4.32,0,0,1,.047-.737h-.8a6.333,6.333,0,0,1,.047.737ZM3.445-4.255v1.977c0,.281-.082.351-.363.351a4.687,4.687,0,0,1-.924-.117,2.277,2.277,0,0,1,.14.725,6.424,6.424,0,0,0,.819.058c.76,0,.983-.211.983-.924V-7.916A9.662,9.662,0,0,1,4.147-9.1a4.746,4.746,0,0,1-.971.058H2.334A5.833,5.833,0,0,1,1.3-9.1a14.7,14.7,0,0,1,.058,1.649,22.8,22.8,0,0,1-.3,4.293,4.465,4.465,0,0,1-.6,1.5,1.882,1.882,0,0,1,.6.538,7.185,7.185,0,0,0,.831-3.135Zm-1.509-.6c.035-.48.058-.889.07-1.521H3.445v1.521Zm.082-2.117V-8.431H3.445v1.462Zm3.6,2.538a4.126,4.126,0,0,1,.854.959l.468-.374a4.975,4.975,0,0,0-.854-.924ZM6.837-3.412a7.512,7.512,0,0,1-2.4,1.065l.374.643A4.835,4.835,0,0,1,5.34-1.95a11.844,11.844,0,0,0,1.708-.924Zm1.369.48a9.611,9.611,0,0,0,2.141,1.345,2.636,2.636,0,0,1,.433-.573A7.268,7.268,0,0,1,8.627-3.377Zm.936-1.93A3.557,3.557,0,0,1,8.3-3.845l.445.386A8.066,8.066,0,0,0,9.657-4.5Zm-1.2.187A3.861,3.861,0,0,1,8-5.436H7.212a4.134,4.134,0,0,1,.058.772v2.445c0,.292-.047.351-.3.351A4.449,4.449,0,0,1,5.96-2a2.093,2.093,0,0,1,.14.714,7.3,7.3,0,0,0,.842.058c.831,0,.994-.152.994-.959Zm9.6-3.661A1.861,1.861,0,0,1,17.067-7a2.348,2.348,0,0,1-1.258.661v.047a2.393,2.393,0,0,1,1.491.632,1.855,1.855,0,0,1,.5,1.345,2.461,2.461,0,0,1-.339,1.3,2.244,2.244,0,0,1-1.047.877,4.492,4.492,0,0,1-1.819.316,6.985,6.985,0,0,1-1.217-.1A3.925,3.925,0,0,1,12.3-2.278v-.959a4.906,4.906,0,0,0,1.135.409,5.2,5.2,0,0,0,1.17.14,2.425,2.425,0,0,0,1.62-.439,1.531,1.531,0,0,0,.5-1.211,1.2,1.2,0,0,0-.614-1.129,3.557,3.557,0,0,0-1.725-.345h-.807v-.877h.819a2.428,2.428,0,0,0,1.562-.433,1.4,1.4,0,0,0,.532-1.146,1.146,1.146,0,0,0-.409-.942,1.709,1.709,0,0,0-1.111-.333,3.021,3.021,0,0,0-1.158.2,5.854,5.854,0,0,0-.948.5l-.515-.7a4.282,4.282,0,0,1,1.105-.608,4.119,4.119,0,0,1,1.5-.257,2.8,2.8,0,0,1,1.948.585A1.928,1.928,0,0,1,17.541-8.337Zm7.381,4.5H23.706v1.9h-.994v-1.9h-4v-.877l3.931-5.627h1.065v5.58h1.217Zm-2.211-.924V-7.39q0-.608.018-1.035t.041-.813h-.047a5.329,5.329,0,0,1-.234.48,3.883,3.883,0,0,1-.269.433l-2.5,3.568Zm3.544-.386a2.671,2.671,0,0,1,.562-.058c.246-.012.515-.023.8-.023.468-.012.468-.012,1.731-.07l1.2-.047v3.088a5.516,5.516,0,0,1-.07,1.135h.9a5.516,5.516,0,0,1-.07-1.135V-5.389c1.755-.082,1.965-.105,3.615-.257.316.409.433.585.8,1.111l.608-.48a22.839,22.839,0,0,0-2.316-2.691l-.562.386a14.081,14.081,0,0,1,.994,1.065c-1.369.129-1.369.129-3.8.222.62-.573,1.743-1.72,2.2-2.258a8.413,8.413,0,0,1,.877-.994l-.737-.433a4.626,4.626,0,0,1-.69.948c-.363.433-.983,1.111-1.614,1.766A15.532,15.532,0,0,0,29.4-8.08a17.089,17.089,0,0,0,1.918-2.34c.912-.105,2.269-.339,2.924-.491a8.018,8.018,0,0,1,.784-.175l-.538-.7c-.246.105-.4.164-.445.175a15.952,15.952,0,0,1-2.421.5,39.6,39.6,0,0,1-5.182.351,2.5,2.5,0,0,1,.316.7c1.556-.07,1.965-.094,3.591-.246a13.549,13.549,0,0,1-1.474,1.813c-.257-.2-.409-.316-.983-.714l-.538.48a22.134,22.134,0,0,1,2.843,2.2c-.234.234-.421.4-.538.515-.351.012-.69.012-.866.023-.445,0-.737.012-.866.012-.292.012-.468.012-.561.012a10.731,10.731,0,0,1-1.228-.07Zm2.316.421a7.647,7.647,0,0,1-2.7,2.55,2.488,2.488,0,0,1,.562.632A9.82,9.82,0,0,0,29.2-4.325Zm4.106.222a11.464,11.464,0,0,0,2.854,2.913,3.09,3.09,0,0,1,.55-.632,10.108,10.108,0,0,1-2.8-2.632Zm4.89-1.357c.152-.035.69-.094,1.755-.187v3.814a8.307,8.307,0,0,1-.07,1.158h.831a8.427,8.427,0,0,1-.07-1.158V-6.114c.62-.082.784-.105,1.065-.152.082.246.117.351.211.7l.573-.269A9.689,9.689,0,0,0,40.89-8l-.5.257a6.458,6.458,0,0,1,.48.936,15.9,15.9,0,0,1-1.813.175,32.6,32.6,0,0,0,1.989-3.03,2.25,2.25,0,0,1,.269-.409l-.69-.386a11.1,11.1,0,0,1-1.193,2.2c-.234-.316-.351-.456-.655-.807a15.789,15.789,0,0,0,.959-1.579,7.677,7.677,0,0,1,.445-.8l-.714-.351A8.962,8.962,0,0,1,38.352-9.53c-.222-.246-.246-.257-.5-.526l-.386.538A12.828,12.828,0,0,1,39.054-7.67c-.281.433-.281.433-.749,1.088-.164,0-.374.012-.491.012a1.716,1.716,0,0,1-.363-.023Zm9.288-3.626a9.844,9.844,0,0,1,1.053.058V-10.2a6.848,6.848,0,0,1-1.088.07h-2v-.526a5.305,5.305,0,0,1,.07-.994h-.842a6.41,6.41,0,0,1,.07.994v.526h-1.5a6.747,6.747,0,0,1-1.088-.07v.772a6.219,6.219,0,0,1,1.053-.058H43.6a12.593,12.593,0,0,1-1.123,2.047c-.2.012-.269.012-.351.012-.2,0-.316-.012-.526-.023l.14.76a7.568,7.568,0,0,1,.76-.082c2.129-.14,2.761-.187,4.27-.386.222.292.339.445.632.889l.573-.468a16.725,16.725,0,0,0-2.164-2.433l-.526.386a11.877,11.877,0,0,1,1.018,1.053c-.936.117-1.907.2-3.041.257a13.9,13.9,0,0,0,1.076-2.012ZM38.083-5.354A9.468,9.468,0,0,1,37.439-2.1l.62.316a10.82,10.82,0,0,0,.667-3.439Zm2.445.117a10.935,10.935,0,0,1,.526,2.4l.62-.246a15.581,15.581,0,0,0-.562-2.363Zm4.422-1.076a6.971,6.971,0,0,1,.058,1.146v3.053c0,.632.222.772,1.275.772.784,0,1.135-.094,1.322-.351A4.745,4.745,0,0,0,48-3.915a2.077,2.077,0,0,1-.714-.316,7.136,7.136,0,0,1-.175,1.965c-.07.187-.292.257-.866.257-.445,0-.515-.047-.515-.339V-5.167a7.059,7.059,0,0,1,.058-1.146Zm-1.977.023a3.67,3.67,0,0,1,.058.749,4.96,4.96,0,0,1-.5,2.375A3.638,3.638,0,0,1,40.914-1.7a2.1,2.1,0,0,1,.6.573,4.4,4.4,0,0,0,1.6-1.579,5.445,5.445,0,0,0,.632-2.667A5.009,5.009,0,0,1,43.8-6.29Z" transform="translate(910.738 1989.052)" fill="#0b2257"/>
      <path id="Path_705" data-name="Path 705" d="M5.062-1.428c.164-.129.164-.129.924-.667a2.672,2.672,0,0,1,.187.983c.363.035.643.047.854.047,1.029,0,1.275-.222,1.275-1.217V-4.657a4.018,4.018,0,0,1,.047-.655H7.156a4.069,4.069,0,0,1,.047.667v2.223c0,.269-.047.316-.3.316a4.784,4.784,0,0,1-.784-.082,7.975,7.975,0,0,0,.924-.737l-.445-.725.48-.386a10.838,10.838,0,0,0-.725-.831,6.47,6.47,0,0,0,.562-.8H8.782a7.321,7.321,0,0,0,.5.678,4.1,4.1,0,0,1-.877.866l.515.573-.5.445a7.5,7.5,0,0,0,1.942,1.743,6.112,6.112,0,0,1,.807-.877,5.421,5.421,0,0,1-1.825-1.38,8.2,8.2,0,0,0,.643-.632,4.242,4.242,0,0,0,.819.643,3.88,3.88,0,0,1,.7-.959,4.916,4.916,0,0,1-1.486-1.1h.094c.526,0,.807.012,1.111.035V-6.7a8.847,8.847,0,0,1-1.111.047H9.308a4.343,4.343,0,0,1-.328-.678h.854c.526,0,.807.012,1.1.035V-8.33a8.661,8.661,0,0,1-1.146.047,7.546,7.546,0,0,0,.538-.912L9.3-9.535a4.949,4.949,0,0,1-.608,1.252H8.033l.058-.234a8.052,8.052,0,0,1,.2-.831l-1.2-.047a3.805,3.805,0,0,1-.164,1.111H6.653a8.257,8.257,0,0,0-.62-1.252l-.912.363a4.692,4.692,0,0,1,.526.889,6.478,6.478,0,0,1-.772-.047v1.041a8.52,8.52,0,0,1,1.1-.047h.643a7.056,7.056,0,0,1-.3.678h-.62A8.847,8.847,0,0,1,4.582-6.7v1.088A7.543,7.543,0,0,1,5.67-5.663,5.128,5.128,0,0,1,4.372-4.5V-8.061c0-.526.012-.819.035-1.1a6.373,6.373,0,0,1-.983.047H2.254a9.495,9.495,0,0,1-1.146-.047,18.07,18.07,0,0,1,.058,1.813c0,2.913-.234,4.4-.831,5.44A4.188,4.188,0,0,1,1.3-1a6.952,6.952,0,0,0,.819-2.983H3.3V-2.5c0,.234-.07.3-.328.3a4.457,4.457,0,0,1-.807-.105,3.344,3.344,0,0,1,.222,1.181c.433.035.6.047.737.047.994,0,1.252-.234,1.252-1.135V-4.166a3.738,3.738,0,0,1,.515.632,6.393,6.393,0,0,0,.784-.632,5.02,5.02,0,0,1,.538.678A7.329,7.329,0,0,1,4.4-2.423ZM7.413-6.657l.281-.678h.292c.117.316.175.48.269.678ZM2.184-4.949c.023-.433.023-.526.047-1.1H3.3v1.1ZM2.243-7.02V-8.073H3.3V-7.02Zm1.17-4H1.927a10,10,0,0,1-1.287-.07v1.217a10.525,10.525,0,0,1,1.287-.07H3.413c-.012.211-.023.339-.047.515h1.3c-.023-.187-.023-.281-.035-.515H7.086a2.88,2.88,0,0,1-.023.3h1.3a1.987,1.987,0,0,1-.035-.3H9.917a10.127,10.127,0,0,1,1.287.07v-1.217a9.748,9.748,0,0,1-1.287.07h-1.6V-11.1a3.446,3.446,0,0,1,.047-.643h-1.3A5.77,5.77,0,0,1,7.1-11.1v.082H4.629V-11.1a5.331,5.331,0,0,1,.035-.643h-1.3a3.7,3.7,0,0,1,.047.643ZM21.205-6.634a10.731,10.731,0,0,1,1.17.047,9.119,9.119,0,0,1-.058-1.252V-10a10.3,10.3,0,0,1,.058-1.263,9,9,0,0,1-1.263.058H17.474a10.255,10.255,0,0,1-1.334-.058c.047.585.058,1.076.058,1.918a19.79,19.79,0,0,1-.456,5.229,5.693,5.693,0,0,1-1.123,2.176,3.232,3.232,0,0,1,1.076.936,7.7,7.7,0,0,0,1.486-3.509,13.446,13.446,0,0,0,.234-2.117H18.9a8.933,8.933,0,0,0,.842,2.667,8.218,8.218,0,0,0,2.363,2.889,4.763,4.763,0,0,1,.866-1.2,6.067,6.067,0,0,1-2.129-2.281,6.689,6.689,0,0,1-.714-2.071ZM17.438-7.792c.035-.854.035-1.088.035-1.638v-.62h3.58v2.258Zm-4.667-2.924a10.352,10.352,0,0,1,2.047,1.661l.819-1.065a11.824,11.824,0,0,0-2.059-1.544Zm-.5,2.889a10.093,10.093,0,0,1,2.106,1.6l.749-1.1A11.507,11.507,0,0,0,13.017-8.8Zm1.743,2.269a9.823,9.823,0,0,1-1.7,3.5l1.111.971c.129-.211.246-.433.468-.889A15.063,15.063,0,0,0,15.04-4.821ZM27.557-7.043h.386A6.361,6.361,0,0,1,28.832-7V-8.038a5.849,5.849,0,0,1-.889.047h-.386v-.655h.386a6.361,6.361,0,0,1,.889.047V-9.629a5.85,5.85,0,0,1-.889.047h-.386v-.7h.526a6.071,6.071,0,0,1,.983.058V-11.4a10.043,10.043,0,0,1-1.275.058H25.721a9.235,9.235,0,0,1-1.31-.058c.035.374.047.725.047,1.415v3.6A9.25,9.25,0,0,1,24.41-5.23c.3-.023.6-.035,1.041-.035h2.457a10.556,10.556,0,0,1-.234,2.655c-.094.374-.2.456-.585.456a4.184,4.184,0,0,1-.749-.07,2.428,2.428,0,0,1,.222,1.053v.14h.316a2.215,2.215,0,0,0,1.2-.2c.339-.2.5-.538.632-1.287a24.421,24.421,0,0,0,.269-3.369,2.414,2.414,0,0,1,.023-.445,6.592,6.592,0,0,1-.971.047h-.48Zm-1.076,0v.76h-.889v-.76Zm0-.948h-.889v-.655h.889Zm0-1.591h-.889v-.7h.889Zm6.843,2.749c.456,0,.807.012,1.029.035a11.513,11.513,0,0,1-.047-1.275v-1.965a9.638,9.638,0,0,1,.047-1.263,8.583,8.583,0,0,1-1.275.058H30.938A9.511,9.511,0,0,1,29.6-11.3a13.843,13.843,0,0,1,.058,1.638c0,5.089-.2,6.574-1.065,8a3.294,3.294,0,0,1,1.076.725,8.658,8.658,0,0,0,.889-2.655,20.221,20.221,0,0,0,.257-3.24h.971a11.14,11.14,0,0,0,.655,3.287,8.339,8.339,0,0,0,1.5,2.62,3.306,3.306,0,0,1,.936-1.158A5.394,5.394,0,0,1,33.593-4a8.751,8.751,0,0,1-.667-2.831Zm-2.48-1.111V-8.26c0-.035,0-.187.012-.433v-1.439H33.1v2.188Zm-6.5,2.995a9.615,9.615,0,0,1-.562,3.088l.912.421a13.408,13.408,0,0,0,.515-3.346Zm1.018.175c.047.7.058.959.058,1.731,0,.409,0,.608-.023,1.088l.749-.105a17.28,17.28,0,0,0-.175-2.808Zm.807-.012a10.964,10.964,0,0,1,.281,2.351l.643-.211a12.9,12.9,0,0,0-.374-2.281Zm.772-.082a8.21,8.21,0,0,1,.339,1.649l.55-.246a6.763,6.763,0,0,0-.409-1.556ZM38.729-7.792V-5.02a19.194,19.194,0,0,1-2.129.971,4.756,4.756,0,0,1-.994.3l.433,1.392c.117-.058.316-.152.515-.234.831-.374,1.474-.678,2.176-1.076v1.24a10.937,10.937,0,0,1-.07,1.415h1.462a8.643,8.643,0,0,1-.07-1.4v-7.9a8.109,8.109,0,0,1,.07-1.334H38.658a9.913,9.913,0,0,1,.07,1.334V-9.02H36.974a5.2,5.2,0,0,1-1.1-.07v1.369a5.61,5.61,0,0,1,1.1-.07ZM42.8-6.552c.831-.456.831-.456,1.31-.749.538-.339,1.521-1.018,1.86-1.287.187-.152.257-.211.374-.292l-.924-1.1a10.719,10.719,0,0,1-2.62,2V-10.3a8.527,8.527,0,0,1,.07-1.345H41.431A9.52,9.52,0,0,1,41.5-10.3v7.767c0,.55.14.854.491,1.018a3.823,3.823,0,0,0,1.7.187,9.278,9.278,0,0,0,1.193-.047,1.744,1.744,0,0,0,.854-.339c.4-.351.608-1.2.678-2.784a6.358,6.358,0,0,1-1.24-.515,6.968,6.968,0,0,1-.211,2.152c-.14.269-.4.339-1.217.339-.8,0-.948-.058-.948-.351Zm6.75,5.17v-.854h6.317v.854h1.462a13.164,13.164,0,0,1-.07-1.486V-9.582a10.241,10.241,0,0,1,.058-1.287,10.759,10.759,0,0,1-1.31.058H49.4a10.441,10.441,0,0,1-1.3-.058c.035.409.058.772.058,1.287v6.715a10.228,10.228,0,0,1-.082,1.486Zm0-8.107h6.317v5.919H49.549Z" transform="translate(904.91 2037.508)" fill="#0b2257"/>
      <path id="Path_706" data-name="Path 706" d="M8.488-7.32v5.065c0,.234-.094.281-.491.281a11.728,11.728,0,0,1-1.649-.14,2.816,2.816,0,0,1,.187.807c.5.035,1.053.058,1.427.058,1.029,0,1.31-.2,1.31-.948V-7.32h.667a8.967,8.967,0,0,1,1.275.07v-.819A8.281,8.281,0,0,1,9.927-8H5.821a8.888,8.888,0,0,1-1.3-.07v.819a9,9,0,0,1,1.3-.07ZM3.4-11.648a4.575,4.575,0,0,1-1.065,1.427A8.047,8.047,0,0,1,.791-8.981a2.262,2.262,0,0,1,.526.573,11.411,11.411,0,0,0,2.6-2.538,1.915,1.915,0,0,1,.211-.257ZM5-10.186a9.225,9.225,0,0,1,1.217-.07H9.494a9.038,9.038,0,0,1,1.2.07V-11a8.22,8.22,0,0,1-1.2.07H6.219A8.287,8.287,0,0,1,5-11Zm-2.492,7.7a8.871,8.871,0,0,1-.082,1.427h.924a8.776,8.776,0,0,1-.082-1.427V-7.214a7.912,7.912,0,0,0,.784-1.053,5,5,0,0,1,.351-.5L3.68-9.18a4.021,4.021,0,0,1-.562,1.006,9.587,9.587,0,0,1-2.363,2.3,2.23,2.23,0,0,1,.456.667,6.752,6.752,0,0,0,1.334-1.31c-.023.562-.035.9-.035,1.4Z" transform="translate(971.687 2037.492)" fill="#0b2257"/>
      <path id="Path_707" data-name="Path 707" d="M11.221-7.382A14.115,14.115,0,0,1,9.443-7.3H2.518a15.085,15.085,0,0,1-1.79-.082v1.544c.526-.047,1.135-.082,1.79-.082H9.443a15.95,15.95,0,0,1,1.778.082ZM19-8.716c.246-.269.643-.749,1.006-1.2a4.975,4.975,0,0,1,.468-.562l-.772-.632a4.2,4.2,0,0,1-1.146.07h-1.93a2.733,2.733,0,0,0,.152-.257c.14-.234.175-.281.257-.4l-1.427-.257a4.065,4.065,0,0,1-.76,1.322,8.148,8.148,0,0,1-2.7,2.328,3.107,3.107,0,0,1,.7,1.111,9.157,9.157,0,0,0,.76-.515v5.054c0,.7.175.971.737,1.135a18.027,18.027,0,0,0,3.884.234A11.5,11.5,0,0,0,21.983-1.6c.573-.234.749-.7.866-2.269A4.55,4.55,0,0,1,21.5-4.317c-.012,1.006-.094,1.462-.292,1.6-.246.175-1.1.246-3.018.246a21.619,21.619,0,0,1-2.843-.094c-.351-.058-.445-.152-.445-.48V-4.9h6.153c.316,0,.62.012,1.029.047a6.852,6.852,0,0,1-.047-.877V-7.9a6.507,6.507,0,0,1,.047-.877,7.315,7.315,0,0,1-1.053.058Zm-4.223,0a7.4,7.4,0,0,0,1.111-1.24h2.62a8.907,8.907,0,0,1-1.1,1.24ZM18.31-7.581h2.457v1.556H18.31ZM17.117-6.025H14.906V-7.581h2.211ZM29.751-7.043H32.5a12.214,12.214,0,0,1,1.357.07V-8.365a11.915,11.915,0,0,1-1.357.07H29.751v-2a9.439,9.439,0,0,1,.082-1.345H28.3a10.014,10.014,0,0,1,.082,1.345v7.557H25.715a15.436,15.436,0,0,1-1.614-.07v1.4a14.622,14.622,0,0,1,1.614-.082h7.428A12.764,12.764,0,0,1,34.7-1.4v-1.4a15.023,15.023,0,0,1-1.579.07H29.751Zm9.733,1.486-.62-.971a11.613,11.613,0,0,1-3.147,2.176L36.372-3.1c.164-.117.246-.175.55-.374A18.32,18.32,0,0,0,39.483-5.5v2.737c0,.234-.105.316-.409.316a10.718,10.718,0,0,1-1.638-.14,4.173,4.173,0,0,1,.374,1.345c.526.023.749.035.983.035,1.544,0,1.954-.257,1.954-1.193v-7.627a9.992,9.992,0,0,1,.058-1.3,11.257,11.257,0,0,1-1.334.047H37.2a7.719,7.719,0,0,1-1.287-.082v1.345a9.059,9.059,0,0,1,1.252-.07h2.316ZM44.63-5.6l-.573-.971a15.5,15.5,0,0,1-1.708,1.322,7.3,7.3,0,0,1-1.38.76l.655,1.24a5.749,5.749,0,0,1,.655-.456A18.021,18.021,0,0,0,44.63-5.534v2.772c0,.234-.094.292-.445.292a12.339,12.339,0,0,1-1.521-.105,3.929,3.929,0,0,1,.363,1.345c.374.012.526.012.76.012,1.708,0,2.106-.222,2.106-1.181v-7.627a9.563,9.563,0,0,1,.058-1.3,11.02,11.02,0,0,1-1.322.047H42.4a7.719,7.719,0,0,1-1.287-.082v1.345a9.246,9.246,0,0,1,1.263-.07H44.63ZM36.184-8.856a11.436,11.436,0,0,1,1.5,2.293l1.041-.76a14.688,14.688,0,0,0-1.544-2.211Zm5.159,0a11.893,11.893,0,0,1,1.5,2.293l1.041-.76a13.548,13.548,0,0,0-1.532-2.2Zm8.528-2a7.817,7.817,0,0,1-1.006-.047,9.544,9.544,0,0,1,.047,1.053v4.574a11.166,11.166,0,0,1-.047,1.2c.374-.023.55-.023.936-.023h6.68a8.786,8.786,0,0,1-.187,1.31c-.105.445-.222.55-.643.55-.2,0-.608-.023-.924-.058l.877-.363a9.8,9.8,0,0,0-.667-1.357l-.924.328a11.751,11.751,0,0,1,.561,1.369l-.187-.023a4.9,4.9,0,0,1,.281,1.2c.222.023.573.035.912.035,1.018,0,1.415-.187,1.7-.807a9.363,9.363,0,0,0,.468-2.667c.023-.211.047-.4.082-.585a5.416,5.416,0,0,1-.866.047H50.14V-5.6h6.726A8.121,8.121,0,0,1,58-5.546V-6.692a7.383,7.383,0,0,1-1.111.058H50.14V-7.09h5.182c.363,0,.632.012.983.035a7.1,7.1,0,0,1-.047-.936V-10a6.436,6.436,0,0,1,.047-.9,7.7,7.7,0,0,1-1.006.047H52.644c.105-.164.339-.6.491-.912l-1.38-.129a5.754,5.754,0,0,1-.456,1.041Zm.269,1.451v-.456h4.9v.456Zm0,.866h4.9v.491h-4.9Zm-1.673,4.5a6.128,6.128,0,0,1-1.123,2.281l1.065.725a8.62,8.62,0,0,0,1.146-2.562Zm1.591.409a19.225,19.225,0,0,1,.234,2.363l1.24-.14a20.113,20.113,0,0,0-.363-2.34Zm1.954-.023a12.563,12.563,0,0,1,.55,2.059l1.1-.257a11.462,11.462,0,0,0-.655-2Zm7.241-2.012A3.6,3.6,0,0,1,60-5.744c.433-.023.433-.023.983-.07v3.591a7.3,7.3,0,0,1-.07,1.24H62.2a7.065,7.065,0,0,1-.07-1.228v-3.7c.281-.023.4-.047.784-.094.047.164.082.292.14.573l.889-.445A15.438,15.438,0,0,0,63-8.318l-.772.386c.2.456.257.608.374.948-.374.035-.7.07-1.263.094.409-.526,1.076-1.462,1.439-2.047.585-.912.585-.912.7-1.076l-1.029-.608A11.177,11.177,0,0,1,61.323-8.6c-.164-.211-.211-.257-.421-.526a13.723,13.723,0,0,0,.877-1.509c.328-.632.328-.632.433-.807l-1.181-.48a8.583,8.583,0,0,1-.889,1.965l-.456-.456-.608.994A11.535,11.535,0,0,1,60.668-7.6c-.246.339-.374.515-.562.749-.14.012-.386.012-.409.012a4.013,4.013,0,0,1-.585-.035Zm7.873.386V-5.51a6.91,6.91,0,0,1,.058-1.123H65.851a6.151,6.151,0,0,1,.058,1.123v.234h-.784a7.482,7.482,0,0,1-1.17-.058v1.228c.374-.035.725-.047,1.17-.047h.784v1.614H64.54A7.27,7.27,0,0,1,63.417-2.6v1.263A10.127,10.127,0,0,1,64.7-1.4h3.837a9.748,9.748,0,0,1,1.287.07V-2.6a8.4,8.4,0,0,1-1.263.058H67.126V-4.153h1.053a11.012,11.012,0,0,1,1.135.047v-1.24a7.132,7.132,0,0,1-1.123.07Zm1.591-6.118a5.9,5.9,0,0,1-.912.047H64.751a10.548,10.548,0,0,1-1.287-.058v1.263A4.16,4.16,0,0,1,64.1-10.2a6.992,6.992,0,0,0,1.462,2.035,8.433,8.433,0,0,1-1.965.854,4.232,4.232,0,0,1,.76,1.1,9.788,9.788,0,0,0,2.176-1.17,10.7,10.7,0,0,0,2.936,1.334,4.205,4.205,0,0,1,.55-1.275,8.388,8.388,0,0,1-2.5-.866,8.972,8.972,0,0,0,1.006-1.135c.117-.152.526-.749.936-1.369ZM67.687-10.2a5.839,5.839,0,0,1-1.193,1.345A4.41,4.41,0,0,1,65.359-10.2ZM59.592-5.265a10.785,10.785,0,0,1-.468,3.287l1.076.433a17.471,17.471,0,0,0,.409-3.533ZM62.47-5.1a13.03,13.03,0,0,1,.246,2.527l.994-.281a13.416,13.416,0,0,0-.363-2.48ZM76.741-9.768v-.842a7.462,7.462,0,0,1,.082-1.217H75.349a7.8,7.8,0,0,1,.082,1.2v.854H72.553a9.307,9.307,0,0,1-1.263-.058c.035.374.058.714.058,1.123v6.27a14.349,14.349,0,0,1-.07,1.451h1.3v-.573h7.147v.573h1.31c-.047-.48-.07-.971-.07-1.439V-8.645c0-.456.023-.807.058-1.181a10.615,10.615,0,0,1-1.322.058Zm0,7.042v-2.48h2.983v2.48Zm0-3.6V-8.61h2.983v2.281ZM75.431-8.61v2.281H72.577V-8.61Zm0,3.4v2.48H72.577v-2.48Z" transform="translate(904.846 2014.982)" fill="#0b2257"/>
      <path id="Path_708" data-name="Path 708" d="M.8-5.808a4.237,4.237,0,0,1,.714-.082c.445-.035.445-.035,1.31-.117V-2.24a8.676,8.676,0,0,1-.07,1.2h.854a8.494,8.494,0,0,1-.07-1.193V-6.077c.445-.047.714-.082.807-.094a1.882,1.882,0,0,0,.292-.035c.117.3.152.409.269.784l.6-.269A12.672,12.672,0,0,0,4.474-7.914L3.936-7.7a9.834,9.834,0,0,1,.468.924c-.807.105-1.018.117-1.9.175a25.615,25.615,0,0,0,2.164-2.96c.164-.234.234-.339.339-.48l-.69-.409A11.982,11.982,0,0,1,2.976-8.241c-.246-.292-.433-.5-.784-.854a17.934,17.934,0,0,0,1.158-1.837,4.244,4.244,0,0,1,.269-.445L2.895-11.7A8.7,8.7,0,0,1,1.737-9.54c-.187-.187-.246-.234-.5-.48L.8-9.47A11.6,11.6,0,0,1,2.579-7.68c-.339.456-.456.608-.889,1.123-.187.012-.538.023-.6.023a2.667,2.667,0,0,1-.421-.035Zm9.347-3.205a32.762,32.762,0,0,1-.5,6.118c-.164.749-.292.889-.842.889a9.231,9.231,0,0,1-1.556-.152,2.814,2.814,0,0,1,.2.807c.468.047.9.07,1.24.07,1.123,0,1.415-.246,1.685-1.369a29.3,29.3,0,0,0,.5-5.3,17.608,17.608,0,0,1,.058-1.8,6.331,6.331,0,0,1-.948.047H7.059c.152-.374.246-.608.339-.866.211-.585.211-.585.3-.807l-.8-.2a7.324,7.324,0,0,1-.655,1.93,7.594,7.594,0,0,1-1.31,2,2.129,2.129,0,0,1,.608.456A9.1,9.1,0,0,0,6.743-9.013ZM1.467-5.247A8.655,8.655,0,0,1,.7-2.112l.643.3a10.359,10.359,0,0,0,.772-3.311Zm2.714.117a15.429,15.429,0,0,1,.6,2.819l.678-.222a18.62,18.62,0,0,0-.69-2.784ZM8.65-4.72A14.022,14.022,0,0,0,6.989-7.575l-.608.351a11.33,11.33,0,0,1,1.6,2.9Zm9.241-1.989a9.92,9.92,0,0,1-.158,1.772,4.775,4.775,0,0,1-.573,1.579,3.046,3.046,0,0,1-1.17,1.129,3.945,3.945,0,0,1-1.936.421q-.234,0-.55-.029a2.53,2.53,0,0,1-.5-.088V-2.8a3.246,3.246,0,0,0,1.029.152,2.987,2.987,0,0,0,1.351-.269,2.216,2.216,0,0,0,.848-.731,3.117,3.117,0,0,0,.456-1.076,6.851,6.851,0,0,0,.164-1.293h-.07a2.32,2.32,0,0,1-.749.684,2.392,2.392,0,0,1-1.24.287,2.349,2.349,0,0,1-1.737-.661,2.523,2.523,0,0,1-.661-1.866,3.24,3.24,0,0,1,.328-1.509,2.3,2.3,0,0,1,.93-.971,2.825,2.825,0,0,1,1.41-.339,2.652,2.652,0,0,1,1.439.4,2.735,2.735,0,0,1,1.018,1.217A4.949,4.949,0,0,1,17.891-6.709ZM15.06-9.528a1.576,1.576,0,0,0-1.187.48,2.037,2.037,0,0,0-.462,1.462A1.9,1.9,0,0,0,13.8-6.317a1.5,1.5,0,0,0,1.211.462,1.964,1.964,0,0,0,.971-.228,1.768,1.768,0,0,0,.638-.579,1.314,1.314,0,0,0,.228-.725,2.63,2.63,0,0,0-.2-.994,2.028,2.028,0,0,0-.6-.819A1.512,1.512,0,0,0,15.06-9.528Zm8.025,2.784a5.664,5.664,0,0,1-.632,2.41,5.96,5.96,0,0,1-2.948,2.562,2.445,2.445,0,0,1,.515.655,6.865,6.865,0,0,0,2.948-2.55,6.662,6.662,0,0,0,.912-3.077h2.726a16.652,16.652,0,0,1-.386,4.328c-.082.222-.211.292-.585.292a9.012,9.012,0,0,1-1.649-.2,3.243,3.243,0,0,1,.187.831c.737.07,1.146.094,1.532.094.678,0,.959-.117,1.158-.468a14.869,14.869,0,0,0,.526-4.8,5.168,5.168,0,0,1,.047-.831,8.851,8.851,0,0,1-1.228.058H22.36a8.979,8.979,0,0,1-1.217-.07v.831a9.42,9.42,0,0,1,1.2-.07Zm-.48-4.855a3.762,3.762,0,0,1-.5,1.228A9.639,9.639,0,0,1,18.9-6.943a2.575,2.575,0,0,1,.573.632A11.612,11.612,0,0,0,23.155-10.7a3.192,3.192,0,0,1,.328-.6Zm2.6.328c.058.094.129.222.187.328a11.851,11.851,0,0,0,3.942,4.7,2.886,2.886,0,0,1,.55-.714,9.756,9.756,0,0,1-3.451-3.638,4.736,4.736,0,0,1-.445-.983Z" transform="translate(996.767 2038.337)" fill="#0b2257"/>
      <path id="Path_709" data-name="Path 709" d="M-33.993-14.115v1.872h-2.289a15.675,15.675,0,0,1-1.955-.084,19.979,19.979,0,0,1,.1,2.022v6.751a18.429,18.429,0,0,1-.1,2.156h1.872v-.969h9.776V-1.4h1.872a16.8,16.8,0,0,1-.1-2.139V-10.3a18.473,18.473,0,0,1,.084-2.022,16.173,16.173,0,0,1-1.955.084h-2.49v-1.872h3.326a17.668,17.668,0,0,1,1.939.1V-15.92a15.734,15.734,0,0,1-1.955.1h-11.2a16.029,16.029,0,0,1-1.972-.1v1.905a17.449,17.449,0,0,1,1.939-.1Zm1.7,0h1.454v1.872h-1.454v-1.872Zm-1.771,3.576A5.007,5.007,0,0,1-34.829-7.8a4.11,4.11,0,0,1-1.537,1.287v-4.027Zm3.225,0v2.908c0,1.17.4,1.454,2.022,1.454,1.2,0,1.721-.217,1.972-.8a3.936,3.936,0,0,0,.217-1.253c.017-.267.017-.267.033-.284v4.429h-9.776V-6.411a5.166,5.166,0,0,1,1.27,1.22A5.358,5.358,0,0,0-33.091-7.3a7.54,7.54,0,0,0,.735-3.242Zm1.654,0h2.59v1.788a3.539,3.539,0,0,1-1.37-.418c0,1.3-.017,1.354-.652,1.354-.5,0-.568-.033-.568-.351Zm9.91,8.707v-1.22h9.024v1.22h2.089a18.805,18.805,0,0,1-.1-2.122v-9.592a14.63,14.63,0,0,1,.084-1.838,15.37,15.37,0,0,1-1.872.084h-9.442a14.915,14.915,0,0,1-1.855-.084c.05.585.084,1.1.084,1.838v9.592a14.61,14.61,0,0,1-.117,2.122Zm0-11.581h9.024v8.456H-19.27Z" transform="translate(957.341 1928.735)" fill="#0b2257"/>
      <path id="Path_710" data-name="Path 710" d="M.77-5.485A9.919,9.919,0,0,1,.928-7.258,4.775,4.775,0,0,1,1.5-8.837,3.057,3.057,0,0,1,2.665-9.966a3.91,3.91,0,0,1,1.93-.421q.246,0,.544.023a2.264,2.264,0,0,1,.485.082V-9.4a2.574,2.574,0,0,0-.48-.105,4.068,4.068,0,0,0-.526-.035,3,3,0,0,0-1.345.269,2.143,2.143,0,0,0-.848.737,3.254,3.254,0,0,0-.45,1.076,7.455,7.455,0,0,0-.175,1.3h.07a2.266,2.266,0,0,1,.749-.7,2.367,2.367,0,0,1,1.228-.287A2.384,2.384,0,0,1,5.6-6.486a2.527,2.527,0,0,1,.667,1.878,2.848,2.848,0,0,1-.719,2.059A2.56,2.56,0,0,1,3.613-1.8a2.681,2.681,0,0,1-1.439-.4A2.728,2.728,0,0,1,1.15-3.415,4.923,4.923,0,0,1,.77-5.485ZM3.6-2.666A1.581,1.581,0,0,0,4.794-3.14,2.05,2.05,0,0,0,5.25-4.608a1.869,1.869,0,0,0-.4-1.263,1.512,1.512,0,0,0-1.211-.468,1.939,1.939,0,0,0-.959.228,1.748,1.748,0,0,0-.638.585,1.324,1.324,0,0,0-.228.719,2.674,2.674,0,0,0,.2,1,1.976,1.976,0,0,0,.6.819A1.53,1.53,0,0,0,3.6-2.666Zm8.621-5.978H10.854a9.425,9.425,0,0,0-.842-1.439l-.62.269a7.253,7.253,0,0,1,.725,1.17H8.795a7.658,7.658,0,0,1-1.181-.07v.76a8.2,8.2,0,0,1,1.181-.07h2.737A10.4,10.4,0,0,1,7.356-5.743a1.921,1.921,0,0,1,.421.655c.6-.234.831-.339,1.334-.585,0,.175.012.421.012.655V-2.1a7.382,7.382,0,0,1-.07,1.088h.76v-.632h5.709v.632h.76a7.01,7.01,0,0,1-.07-1.1V-5.029c0-.292,0-.386.012-.655.433.2.5.234,1.462.608a2.506,2.506,0,0,1,.409-.7A11.019,11.019,0,0,1,13.6-8.024H16.48a8.2,8.2,0,0,1,1.181.07v-.76a6.414,6.414,0,0,1-1.181.07h-1.4a11.292,11.292,0,0,0,.9-1.5l-.714-.269a8.264,8.264,0,0,1-.936,1.766h-1.4V-10.41c.959-.105,2.48-.328,3.334-.5.117-.023.2-.035.246-.047L16.726-11l-.526-.667a25.169,25.169,0,0,1-6.867.807c-.246,0-.491,0-.959-.012a2.285,2.285,0,0,1,.316.678c1.181-.012,2.375-.07,3.533-.152ZM10.035-5.953H9.672a8.892,8.892,0,0,0,2.6-2,3.223,3.223,0,0,0-.047.456v.409a5.494,5.494,0,0,1-.047.8h.784a6.891,6.891,0,0,1-.035-.8v-.421c0-.058-.012-.105-.023-.269-.012-.082-.012-.117-.023-.187a9.787,9.787,0,0,0,2.784,2.012H10.035Zm-.222.608h2.421v1.193H9.813Zm0,1.79h2.421v1.287H9.813Zm3.1-1.79h2.609v1.193H12.912Zm.012,1.79h2.585v1.287H12.924Zm9.124-6.867a1.292,1.292,0,0,1,.012.187,9.278,9.278,0,0,1-.117,1.1,13.547,13.547,0,0,1-1.2,4.059,7.52,7.52,0,0,1-1.7,2.316,2.561,2.561,0,0,1,.749.608c1.649-1.72,2.6-3.966,3.088-7.3a4.247,4.247,0,0,1,.152-.8Zm3.357.175a5.085,5.085,0,0,1,.152.772A14.055,14.055,0,0,0,28.74-2.128a2.53,2.53,0,0,1,.725-.655A10.324,10.324,0,0,1,26.81-7.615a14.136,14.136,0,0,1-.538-2.808Zm1.521-.5a8.824,8.824,0,0,1,1.158,1.883l.6-.339a8.667,8.667,0,0,0-1.17-1.837Zm1.345-.6a9.167,9.167,0,0,1,1.158,1.86l.585-.316a8.966,8.966,0,0,0-1.17-1.848Zm12.482,8.8a29.092,29.092,0,0,0-3.9-3.509,14.146,14.146,0,0,0,1.93-3.275,2.183,2.183,0,0,1,.328-.573l-.491-.5a2.181,2.181,0,0,1-.749.094L33.7-10.27h-.3a5.5,5.5,0,0,1-.924-.058l.023.948a7.871,7.871,0,0,1,1.2-.094l3.907-.058a1.987,1.987,0,0,0,.281-.012.248.248,0,0,1-.035.082c-.023.058-.035.07-.058.14a12.679,12.679,0,0,1-4.176,5.276A9.416,9.416,0,0,1,31.243-2.7a2.6,2.6,0,0,1,.573.772,15.064,15.064,0,0,0,2.293-1.4,12.7,12.7,0,0,0,2.234-2.094,21.757,21.757,0,0,1,3.743,3.615Zm7.966-8.036H46.7a7.509,7.509,0,0,1-1.135-.07v.76a7.9,7.9,0,0,1,1.1-.058H51.8a7.973,7.973,0,0,1,1.111.058v-.76a7.742,7.742,0,0,1-1.158.07H49.457v-.246a4.77,4.77,0,0,1,.058-.784H48.65a3.739,3.739,0,0,1,.07.784Zm.2,6.422v2c0,.234-.094.292-.491.292A8.508,8.508,0,0,1,47.07-2a2.675,2.675,0,0,1,.164.749c.445.035.737.047,1.252.047.924,0,1.17-.175,1.17-.854V-4.164H50.8a9.032,9.032,0,0,1,1.17.058v-.749a6.8,6.8,0,0,1-1.146.058H47.363a8.284,8.284,0,0,1-1.135-.058v.749a8.744,8.744,0,0,1,1.146-.058ZM43.76-2.386a11.638,11.638,0,0,1-.07,1.4h.854a11.68,11.68,0,0,1-.058-1.369v-6.34c.4-1.018.468-1.2.62-1.673.211-.678.211-.678.351-1.065l-.807-.211a10.183,10.183,0,0,1-.831,2.609,10.709,10.709,0,0,1-1.649,2.6,2.344,2.344,0,0,1,.456.632,10.6,10.6,0,0,0,1.181-1.813c-.035.585-.047.983-.047,1.439Zm2.609-5.451a5.932,5.932,0,0,1-.047.8,9.244,9.244,0,0,1,1.1-.047h3.428a8.847,8.847,0,0,1,1.111.047,5.089,5.089,0,0,1-.047-.737V-8.55a5.818,5.818,0,0,1,.047-.8,9.151,9.151,0,0,1-1.076.058H47.41a9.216,9.216,0,0,1-1.088-.058,6.53,6.53,0,0,1,.047.819Zm.69-.866h4.164v1.029H47.059Zm-1.8,3.451a4.323,4.323,0,0,1-.047.7h.749V-5.743h6.282v1.2h.772a4.323,4.323,0,0,1-.047-.7v-.4A7.391,7.391,0,0,1,53-6.421a12.129,12.129,0,0,1-1.345.058H46.334c-.526,0-.784-.012-1.111-.035a6.923,6.923,0,0,1,.035.76Z" transform="translate(959.986 1927.199)" fill="#0b2257"/>
      <path id="Path_679" data-name="Path 679" d="M-19064-10609.105l15.654,12.522,15.654-12.522" transform="translate(20013.668 12674.675)" fill="none" stroke="#545e67" stroke-width="1"/>
      <path id="Path_681" data-name="Path 681" d="M-19064-10609.105l15.654,12.522,15.654-12.522" transform="translate(20013.668 12738.365)" fill="none" stroke="#545e67" stroke-width="1"/>
    </g>
    <text id="桐原公園前" transform="translate(1089 2103)" fill="#0b2257" font-size="14" font-family="PingFangSC-Semibold, PingFang SC" font-weight="600" letter-spacing="0.04em"><tspan x="0" y="0">桐原公園前</tspan></text>
    <text id="徒歩_分" data-name="徒歩１分" transform="translate(1171 2103)" fill="#0b2257" font-size="11" font-family="PingFangSC-Regular, PingFang SC" letter-spacing="0.04em"><tspan x="0" y="0">徒歩１分</tspan></text>
  </g>
</svg>
